<svg width="126" height="37" viewBox="0 0 126 37" fill="none" xmlns="http://www.w3.org/2000/svg">
<g clip-path="url(#clip0_901_7968)">
<path d="M5.35091 12.6983C5.35091 12.6983 5.32926 13.0619 5.28596 13.789C5.24266 14.5161 5.20268 15.2164 5.16603 15.8897C5.12937 16.5631 5.05369 17.2829 4.93897 18.0494C4.82174 18.816 4.74163 19.6433 4.69866 20.5313C4.65569 21.4193 4.60477 22.3535 4.5459 23.3341C4.48703 24.3147 4.43951 25.2158 4.40332 26.0373C4.3684 26.8587 4.35265 27.553 4.35607 28.1201C4.35938 28.6861 4.35853 29.1694 4.35351 29.5701C4.34723 29.9709 4.34664 30.3143 4.35172 30.6001C4.35681 30.8859 4.35045 31.0644 4.33266 31.1357C4.31476 31.2057 4.28634 31.2715 4.24739 31.3333C4.20844 31.395 4.16052 31.4487 4.10363 31.4943C4.04674 31.5398 3.98387 31.5752 3.915 31.6003C3.8474 31.6253 3.7769 31.6392 3.70351 31.6419C3.63127 31.6433 3.55996 31.6338 3.4896 31.6134C3.42038 31.5917 3.35599 31.5601 3.29644 31.5185C3.23677 31.4756 3.18588 31.4244 3.14377 31.3648C3.10051 31.3066 3.06814 31.2424 3.04666 31.1721C3.02529 31.103 3.01583 31.0323 3.01828 30.9599C3.01936 30.8863 3.03275 30.8155 3.05843 30.7473C3.08285 30.6793 3.11791 30.6166 3.16361 30.5594C3.20941 30.5034 3.26293 30.4555 3.32415 30.4159C3.38538 30.3762 3.45139 30.3476 3.52218 30.3299C3.59297 30.3122 3.66483 30.3064 3.73774 30.3126C3.81054 30.3176 3.88 30.3348 3.94611 30.3644C4.01336 30.3926 4.07453 30.4309 4.1296 30.4792C4.18342 30.5276 4.22834 30.5832 4.26438 30.6458C4.30053 30.7098 4.32557 30.7772 4.33949 30.8482C4.35352 30.9204 4.35548 30.9924 4.34536 31.0643C4.3365 31.136 4.31591 31.2043 4.28359 31.2693C4.25139 31.3355 4.20901 31.3943 4.15646 31.4459C4.10517 31.4973 4.04732 31.5392 3.9829 31.5715C3.91723 31.6039 3.84803 31.6253 3.77531 31.6355C3.70384 31.6457 3.63195 31.6438 3.55963 31.63C3.48856 31.616 3.42101 31.5916 3.35698 31.5568C3.29409 31.5206 3.23803 31.4755 3.18881 31.4216C3.13959 31.3677 3.10057 31.3072 3.07175 31.2401C3.04294 31.173 3.02535 31.1037 3.01898 31.032C3.01376 30.959 3.01115 30.9225 3.01115 30.9225C3.01115 30.9225 3.03551 30.7823 3.08422 30.5018C3.13408 30.22 3.18656 29.8961 3.24164 29.5302C3.29673 29.1643 3.31989 28.6891 3.31112 28.1047C3.30236 27.5202 3.31264 26.8144 3.34197 25.9872C3.37003 25.1601 3.40926 24.2585 3.45964 23.2824C3.50877 22.3065 3.54999 21.356 3.58332 20.4309C3.61527 19.5046 3.67889 18.6775 3.77417 17.9496C3.86934 17.2203 3.92254 16.5189 3.93378 15.8453C3.94502 15.1717 3.95575 14.4709 3.96597 13.7429C3.97503 13.0163 3.98347 12.6254 3.99126 12.5702C4.00043 12.5162 4.01543 12.4636 4.03626 12.4123C4.05836 12.3609 4.08589 12.3135 4.11884 12.2701C4.15168 12.2254 4.18944 12.1859 4.2321 12.1517C4.27466 12.1163 4.32086 12.0862 4.37072 12.0615C4.42069 12.038 4.47248 12.0208 4.52608 12.0097C4.57969 11.9986 4.63385 11.9938 4.68857 11.9952C4.74467 11.9979 4.79874 12.0064 4.8508 12.0207C4.90423 12.0362 4.95502 12.0577 5.00315 12.0851C5.05129 12.1125 5.09547 12.1453 5.13568 12.1835C5.1759 12.2217 5.21072 12.2636 5.24016 12.3091C5.2697 12.3559 5.29318 12.4058 5.31058 12.4587C5.32912 12.5102 5.34017 12.5631 5.34371 12.6172C5.34862 12.6725 5.35102 12.6996 5.35091 12.6983Z" fill="#B3B3B3"/>
<path d="M5.25449 12.1492C5.25449 12.1492 5.4145 12.4998 5.73453 13.201C6.05466 13.9034 6.3774 14.6994 6.70273 15.5888C7.02805 16.4783 7.33408 17.4505 7.6208 18.5055C7.90878 19.5604 8.17577 20.5292 8.42177 21.4117C8.66903 22.2942 8.88171 23.0803 9.0598 23.77C9.23674 24.4611 9.37922 24.9716 9.48724 25.3015C9.5939 25.6302 9.65072 25.8196 9.6577 25.8696C9.66458 25.9184 9.6651 25.9672 9.65926 26.0158C9.6548 26.0656 9.64387 26.1141 9.62648 26.1612C9.61024 26.207 9.5881 26.2508 9.56007 26.2925C9.53319 26.3329 9.50094 26.37 9.46331 26.4037C9.42694 26.4374 9.38698 26.4663 9.34342 26.4904C9.29975 26.5133 9.25374 26.5313 9.2054 26.5445C9.15831 26.5575 9.11004 26.5643 9.06058 26.5649C9.00986 26.5656 8.96053 26.5605 8.91258 26.5496C8.86453 26.5374 8.81797 26.5206 8.77291 26.4993C8.729 26.4766 8.68847 26.4492 8.65133 26.417C8.61294 26.3849 8.57925 26.3487 8.55026 26.3082C8.52127 26.2677 8.49772 26.2242 8.47962 26.1776C8.46164 26.1324 8.52435 25.8095 8.66778 25.209C8.8112 24.6085 8.95229 23.9746 9.09106 23.3074C9.22845 22.6391 9.42527 21.9395 9.68153 21.2086C9.93905 20.4776 10.189 19.7112 10.4313 18.9094C10.6736 18.1076 10.9466 17.3366 11.2503 16.5965C11.5552 15.8562 11.8306 15.2117 12.0764 14.6629C12.3208 14.113 12.5565 13.6512 12.7836 13.2777C13.0093 12.9029 13.2137 12.5966 13.397 12.3586C13.5791 12.122 13.9078 11.9636 14.3831 11.8834C14.8585 11.8044 15.1923 11.8748 15.3845 12.0946C15.5768 12.3157 15.7601 12.7636 15.9343 13.4385C16.1085 14.1134 16.2466 14.8605 16.3487 15.6798C16.4519 16.4991 16.5291 17.4252 16.5803 18.458C16.6315 19.4922 16.6303 20.6 16.5766 21.7816C16.5218 22.9645 16.4661 24.1449 16.4095 25.3229C16.3528 26.4996 16.309 27.5638 16.278 28.5153C16.247 29.4668 16.2319 30.232 16.2325 30.8108C16.2332 31.3896 16.2521 31.8243 16.2894 32.1149C16.3255 32.4068 16.3588 32.661 16.3895 32.8774C16.4202 33.0938 16.4305 33.2392 16.4206 33.3135C16.4095 33.388 16.3872 33.459 16.3539 33.5266C16.3193 33.5943 16.2751 33.6545 16.2214 33.7074C16.1677 33.7604 16.1068 33.8031 16.0386 33.8358C15.9705 33.8697 15.8994 33.8912 15.8253 33.9003C15.7501 33.9108 15.675 33.9086 15.6 33.8938C15.5263 33.8788 15.4567 33.8527 15.3912 33.8154C15.3257 33.7782 15.2682 33.7313 15.2187 33.6749C15.168 33.6186 15.1282 33.5557 15.0991 33.4861C15.0688 33.4166 15.051 33.344 15.0455 33.2685C15.0401 33.193 15.0468 33.1189 15.0658 33.0463C15.0846 32.9724 15.1147 32.9039 15.156 32.8407C15.1961 32.7776 15.2458 32.7225 15.3051 32.6754C15.3645 32.6296 15.4299 32.5934 15.5011 32.5668C15.5725 32.5415 15.6456 32.528 15.7204 32.5264C15.7964 32.5247 15.8703 32.5353 15.9422 32.558C16.0153 32.5807 16.0823 32.614 16.1434 32.658C16.2045 32.7032 16.2569 32.7562 16.3003 32.8169C16.3439 32.8789 16.3765 32.9457 16.3981 33.0172C16.4198 33.09 16.4296 33.1639 16.4273 33.2388C16.424 33.3151 16.4089 33.3887 16.3822 33.4595C16.3566 33.5289 16.3198 33.5929 16.2717 33.6517C16.2236 33.7104 16.1677 33.7597 16.1039 33.7996C16.0403 33.8407 15.9717 33.8696 15.8983 33.8863C15.825 33.9042 15.7506 33.9102 15.6752 33.9042C15.5997 33.897 15.5276 33.8787 15.4589 33.8493C15.3889 33.8188 15.3263 33.7781 15.271 33.7273C15.2144 33.6766 15.168 33.618 15.1316 33.5516C15.0941 33.4865 15.0688 33.4166 15.0558 33.3417C15.0417 33.2682 15.0346 33.2315 15.0346 33.2315C15.0346 33.2315 15.0453 33.1229 15.0666 32.9056C15.0891 32.687 15.1125 32.4297 15.137 32.1337C15.1614 31.8364 15.1689 31.3923 15.1596 30.8016C15.1501 30.2096 15.1562 29.4351 15.1778 28.4781C15.1982 27.5212 15.2284 26.4545 15.2686 25.278C15.3101 24.1013 15.3479 22.9415 15.3822 21.7984C15.4166 20.6566 15.3953 19.5881 15.3183 18.593C15.2413 17.5979 15.138 16.721 15.0083 15.9623C14.88 15.2036 14.6948 14.5835 14.4527 14.1022C14.2093 13.6209 13.9718 13.5267 13.7401 13.8197C13.5072 14.1127 13.2725 14.5294 13.0361 15.0698C12.7998 15.6101 12.5379 16.2351 12.2506 16.9446C11.9645 17.6541 11.7024 18.419 11.4642 19.2394C11.2273 20.0598 10.9932 20.8115 10.7619 21.4945C10.5307 22.1788 10.3562 22.8505 10.2383 23.5095C10.1204 24.1685 9.99242 24.7144 9.85441 25.1473C9.71628 25.5788 9.65072 25.8196 9.6577 25.8696C9.66458 25.9184 9.6651 25.9672 9.65926 26.0158C9.6548 26.0656 9.64387 26.1141 9.62648 26.1612C9.61024 26.207 9.5881 26.2508 9.56007 26.2925C9.53319 26.3329 9.50094 26.37 9.46331 26.4037C9.42694 26.4374 9.38698 26.4663 9.34342 26.4904C9.29975 26.5133 9.25374 26.5313 9.2054 26.5445C9.15831 26.5575 9.11004 26.5643 9.06058 26.5649C9.00986 26.5656 8.96053 26.5605 8.91258 26.5496C8.86453 26.5374 8.81797 26.5206 8.77291 26.4993C8.729 26.4766 8.68847 26.4492 8.65133 26.417C8.61294 26.3849 8.57925 26.3487 8.55026 26.3082C8.52127 26.2677 8.49772 26.2242 8.47962 26.1776C8.46164 26.1324 8.42532 25.938 8.37068 25.5945C8.31729 25.2509 8.19817 24.739 8.01331 24.0587C7.82959 23.3771 7.60781 22.5956 7.34795 21.7143C7.08809 20.8329 6.81143 19.8841 6.51799 18.8676C6.2258 17.8511 5.91253 16.9188 5.57818 16.0707C5.24509 15.2224 4.90449 14.454 4.55639 13.7655C4.20829 13.0769 4.02496 12.7069 4.00642 12.6553C3.98913 12.6037 3.97877 12.5514 3.97534 12.4985C3.97054 12.4444 3.97209 12.3905 3.98 12.3366C3.98916 12.2825 4.00422 12.2305 4.02517 12.1805C4.04612 12.1306 4.07307 12.0838 4.10602 12.0404C4.13772 11.997 4.1749 11.9582 4.21757 11.924C4.26012 11.8886 4.30575 11.8592 4.35446 11.8359C4.40317 11.8126 4.45433 11.7953 4.50793 11.7842C4.56028 11.7733 4.61381 11.7685 4.66853 11.77C4.72211 11.7728 4.77555 11.7814 4.82887 11.7956C4.88093 11.81 4.9304 11.8309 4.97728 11.8584C5.02542 11.8858 5.06891 11.9181 5.10775 11.9551C5.14785 11.9921 5.18205 12.034 5.21034 12.0809C5.23977 12.1265 5.25449 12.1492 5.25449 12.1492Z" fill="#B3B3B3"/>
<path d="M21.8659 24.8554C21.8659 24.8554 22.0429 24.7966 22.3968 24.679C22.7507 24.5614 23.1181 24.4458 23.4991 24.3322C23.88 24.2185 24.2632 24.0451 24.6488 23.812C25.0331 23.579 25.3314 23.365 25.5439 23.17C25.7551 22.9752 25.6444 22.8292 25.2117 22.7321C24.7789 22.6338 24.4161 22.5584 24.1233 22.5059C23.8303 22.4521 23.4717 22.4453 23.0474 22.4855C22.6233 22.527 22.3185 22.6618 22.1331 22.8898C21.9476 23.1166 21.8086 23.5463 21.7163 24.179C21.6239 24.8104 21.6316 25.3037 21.7393 25.659C21.8469 26.013 22.0418 26.3775 22.324 26.7527C22.6073 27.1266 22.9231 27.4804 23.2715 27.8143C23.621 28.148 23.9671 28.4416 24.3095 28.6949C24.6531 28.9468 24.9573 29.1275 25.2222 29.237C25.4871 29.3465 25.8368 29.4737 26.2712 29.6188C26.7054 29.7626 27.0539 29.8336 27.3165 29.8318C27.5778 29.8289 27.7566 29.8409 27.8529 29.8678C27.9492 29.8934 28.0385 29.9342 28.1209 29.9903C28.2021 30.0464 28.2728 30.1142 28.3332 30.1937C28.3936 30.2732 28.4394 30.3603 28.4707 30.4551C28.5019 30.5486 28.5175 30.6454 28.5175 30.7454C28.5174 30.8443 28.5012 30.9407 28.4689 31.0348C28.4366 31.1288 28.3904 31.2153 28.3301 31.2941C28.2698 31.3729 28.1983 31.4401 28.1157 31.4956C28.0331 31.5523 27.9441 31.5938 27.8487 31.62C27.752 31.6463 27.6539 31.6563 27.5543 31.6499C27.4548 31.6449 27.3589 31.6236 27.2668 31.5862C27.1746 31.5488 27.0907 31.498 27.0152 31.4337C26.9396 31.3695 26.8759 31.2948 26.8238 31.2094C26.7731 31.124 26.7371 31.0328 26.7158 30.9359C26.6944 30.839 26.6896 30.7413 26.7011 30.6427C26.7126 30.5429 26.7391 30.4481 26.7806 30.3583C26.8234 30.2683 26.879 30.1874 26.9475 30.1154C27.016 30.0435 27.094 29.9846 27.1813 29.9388C27.2698 29.8917 27.3635 29.8606 27.4625 29.8455C27.5601 29.8292 27.6585 29.8293 27.7577 29.8458C27.8556 29.8625 27.9486 29.8941 28.0365 29.9407C28.1245 29.9874 28.2021 30.047 28.2695 30.1196C28.3382 30.192 28.393 30.2733 28.434 30.3633C28.4763 30.4533 28.5025 30.5479 28.5125 30.6471C28.5238 30.7449 28.5185 30.8429 28.4968 30.9411C28.4749 31.038 28.4379 31.1287 28.3857 31.2132C28.3349 31.2987 28.2711 31.3734 28.1943 31.4373C28.1187 31.501 28.0343 31.5516 27.9411 31.589C27.8491 31.625 27.7532 31.6456 27.6533 31.6506C27.5535 31.6557 27.5036 31.6583 27.5036 31.6583C27.5036 31.6583 27.2162 31.5748 26.6415 31.408C26.0657 31.2426 25.6351 31.0978 25.3499 30.9737C25.0647 30.8508 24.7623 30.6978 24.4426 30.5147C24.1229 30.3316 23.7748 30.0997 23.3982 29.819C23.0228 29.5382 22.616 29.2171 22.1776 28.8558C21.7392 28.4945 21.3026 28.0602 20.8678 27.5529C20.4329 27.0443 20.1173 26.508 19.9212 25.944C19.7251 25.38 19.6261 24.8157 19.6241 24.2509C19.6222 23.6861 19.7002 23.1497 19.8582 22.6416C20.0148 22.1324 20.2383 21.711 20.5286 21.3774C20.8188 21.0438 21.1216 20.7934 21.4368 20.626C21.7506 20.4575 22.0825 20.3413 22.4323 20.2772C22.7833 20.2131 23.1419 20.1844 23.5082 20.1911C23.8744 20.1979 24.212 20.2255 24.521 20.2741C24.8299 20.3213 25.1322 20.3724 25.4278 20.4272C25.7246 20.4819 26.0469 20.5723 26.3945 20.6985C26.7422 20.8247 27.0556 21.0229 27.3348 21.2933C27.6153 21.5635 27.8087 21.8902 27.9151 22.2734C28.0228 22.6565 27.9783 23.0779 27.7818 23.5374C27.5852 23.997 27.2772 24.3885 26.8578 24.712C26.4383 25.0343 26.09 25.2724 25.8129 25.4262C25.5344 25.5776 25.2704 25.7069 25.0209 25.8139C24.7727 25.9208 24.4679 26.034 24.1065 26.1535C23.7453 26.2743 23.3887 26.3978 23.0368 26.5241C22.6862 26.6503 22.4717 26.7219 22.3932 26.739C22.316 26.756 22.2386 26.7629 22.1608 26.7596C22.082 26.7578 22.0041 26.7463 21.9274 26.7253C21.8506 26.7042 21.7775 26.6746 21.7081 26.6365C21.6398 26.5969 21.5766 26.55 21.5185 26.4956C21.4603 26.4412 21.4099 26.3811 21.3672 26.3152C21.3246 26.2494 21.2897 26.179 21.2628 26.1041C21.2371 26.0291 21.2207 25.9521 21.2137 25.8729C21.2067 25.795 21.2094 25.7175 21.2216 25.6404C21.2324 25.5621 21.2529 25.4862 21.2832 25.4126C21.3135 25.339 21.3525 25.2703 21.4001 25.2065C21.4465 25.1428 21.5004 25.0855 21.5619 25.0344C21.6223 24.9847 21.6883 24.9421 21.76 24.9066C21.8306 24.8725 21.8659 24.8554 21.8659 24.8554Z" fill="#B3B3B3"/>
<path d="M34.7653 21.7048C34.7653 21.7048 34.496 21.7598 33.9573 21.8697C33.4172 21.9785 32.9703 22.1063 32.6164 22.253C32.2637 22.3983 31.9901 22.6133 31.7958 22.8978C31.6013 23.1811 31.3971 23.533 31.1831 23.9536C30.9677 24.373 30.8063 24.799 30.6987 25.2316C30.5912 25.6643 30.5307 26.0554 30.5173 26.4049C30.504 26.7557 30.7105 26.864 31.1365 26.7299C31.5625 26.5945 31.908 26.2965 32.173 25.836C32.4393 25.3753 32.6569 24.7878 32.8258 24.0736C32.9948 23.3606 33.1081 22.4506 33.1659 21.3434C33.2225 20.2376 33.2393 19.1335 33.2163 18.031C33.1919 16.9285 33.1567 15.9177 33.1106 14.9984C33.0644 14.079 33.0229 13.3113 32.9859 12.6952C32.9489 12.079 32.9048 11.6181 32.8535 11.3123C32.8022 11.0065 32.7781 10.8281 32.7812 10.7772C32.783 10.7264 32.7913 10.6762 32.8059 10.6268C32.8206 10.5774 32.8412 10.5306 32.8677 10.4864C32.8942 10.4423 32.9256 10.4021 32.9617 10.366C32.9966 10.3299 33.0364 10.2985 33.081 10.2718C33.1242 10.2438 33.1699 10.2221 33.218 10.2064C33.2674 10.1906 33.3173 10.1811 33.3678 10.1779C33.4195 10.1745 33.4705 10.177 33.5208 10.1852C33.5711 10.1946 33.6194 10.2093 33.6656 10.2293C33.7132 10.2504 33.7568 10.2763 33.7963 10.307C33.8372 10.3388 33.874 10.3742 33.9067 10.4131C33.9382 10.4534 33.9649 10.4966 33.9867 10.5428C34.0086 10.589 34.0244 10.6376 34.034 10.6887C34.0435 10.7385 34.1255 11.0688 34.2801 11.6795C34.4358 12.2889 34.6332 13.0745 34.8723 14.0362C35.1101 14.998 35.3763 16.015 35.6709 17.087C35.9642 18.1592 36.2439 19.2136 36.5099 20.2502C36.7759 21.2867 37.0293 22.2447 37.2699 23.1239C37.5105 24.0031 37.7186 24.7871 37.894 25.4758C38.0696 26.1658 38.207 26.7977 38.3062 27.3715C38.4068 27.9466 38.4963 28.3743 38.5745 28.6549C38.6515 28.9356 38.7201 29.1785 38.7802 29.3834C38.8415 29.5882 38.8717 29.728 38.8708 29.8028C38.871 29.8763 38.8589 29.9483 38.8347 30.0189C38.8118 30.0893 38.7775 30.1538 38.732 30.2123C38.6877 30.272 38.6345 30.3223 38.5721 30.3633C38.5111 30.4055 38.4446 30.4361 38.3727 30.4551C38.3008 30.4754 38.2279 30.4832 38.1538 30.4784C38.0799 30.4748 38.008 30.459 37.9382 30.431C37.8698 30.4042 37.8075 30.3666 37.7511 30.3184C37.6948 30.2703 37.6473 30.2143 37.6086 30.1506C37.57 30.0869 37.543 30.019 37.5277 29.9469C37.5111 29.8749 37.5072 29.8018 37.5158 29.7275C37.5246 29.6546 37.5444 29.5844 37.5752 29.5171C37.606 29.4497 37.647 29.3891 37.698 29.3351C37.7491 29.2812 37.808 29.2367 37.8747 29.2016C37.9403 29.1679 38.0093 29.1447 38.0818 29.1319C38.1557 29.1203 38.2293 29.1207 38.3028 29.1332C38.3762 29.1444 38.4455 29.1674 38.5108 29.2021C38.5762 29.2381 38.6348 29.2829 38.6865 29.3366C38.737 29.3904 38.7779 29.4507 38.8092 29.5176C38.8406 29.5845 38.8602 29.655 38.868 29.729C38.8759 29.803 38.8716 29.8762 38.8552 29.9486C38.8387 30.021 38.8117 30.0887 38.7742 30.1515C38.7354 30.2158 38.6877 30.272 38.6311 30.3201C38.5744 30.3682 38.5117 30.4054 38.443 30.4318C38.3731 30.4595 38.3015 30.4754 38.2282 30.4794C38.1536 30.4835 38.0806 30.4754 38.0089 30.4551C37.9373 30.4349 37.8705 30.4041 37.8084 30.3628C37.7476 30.3213 37.6949 30.2709 37.6502 30.2115C37.6056 30.1521 37.5713 30.0874 37.5473 30.0174C37.5233 29.9473 37.5113 29.9122 37.5113 29.9122C37.5113 29.9122 37.5075 29.8055 37.5 29.5921C37.4924 29.3787 37.481 29.1289 37.4658 28.8428C37.4517 28.5565 37.3956 28.139 37.2973 27.5904C37.1979 27.0431 37.0589 26.4285 36.8802 25.7464C36.7017 25.0656 36.4875 24.2841 36.2377 23.4018C35.9879 22.5196 35.7259 21.5644 35.4517 20.5361C35.1776 19.5078 34.8861 18.4564 34.5773 17.3818C34.2672 16.3061 33.982 15.2826 33.7217 14.3113C33.4601 13.3389 33.2375 12.5195 33.0539 11.8531C32.869 11.1868 32.7781 10.8281 32.7812 10.7772C32.783 10.7264 32.7913 10.6762 32.8059 10.6268C32.8206 10.5774 32.8412 10.5306 32.8677 10.4864C32.8942 10.4423 32.925 10.4022 32.9598 10.3661C32.996 10.33 33.0364 10.2985 33.081 10.2718C33.1242 10.2438 33.1699 10.2221 33.218 10.2064C33.2674 10.1906 33.3173 10.1811 33.3678 10.1779C33.4195 10.1745 33.4705 10.177 33.5208 10.1852C33.5711 10.1946 33.6194 10.2093 33.6656 10.2293C33.7132 10.2504 33.7568 10.2763 33.7963 10.307C33.8372 10.3388 33.874 10.3742 33.9067 10.4131C33.9382 10.4534 33.9649 10.4966 33.9867 10.5428C34.0074 10.5891 34.0231 10.6377 34.034 10.6887C34.0435 10.7385 34.0449 10.9183 34.0381 11.2279C34.0326 11.5375 34.0549 12.0023 34.1049 12.6223C34.1548 13.2411 34.2121 14.0151 34.2769 14.9441C34.3431 15.8743 34.4004 16.9054 34.4489 18.0373C34.4975 19.1692 34.5058 20.3275 34.474 21.5122C34.441 22.6982 34.3386 23.7175 34.1668 24.5701C33.9949 25.4226 33.7409 26.1717 33.4047 26.8171C33.0686 27.4639 32.6565 27.9838 32.1684 28.3767C31.6802 28.7697 31.2199 28.9823 30.7873 29.0144C30.3547 29.0465 30.0044 28.9763 29.7364 28.8038C29.4684 28.6312 29.277 28.3911 29.162 28.0834C29.047 27.7744 29.0034 27.4844 29.0314 27.2134C29.0606 26.9422 29.1019 26.5997 29.1553 26.1858C29.2098 25.7706 29.3009 25.3027 29.4286 24.7821C29.555 24.2616 29.7374 23.7356 29.9758 23.2039C30.2153 22.6709 30.5189 22.1942 30.8866 21.774C31.2543 21.3549 31.6599 21.0542 32.1033 20.8716C32.5478 20.6877 33.0331 20.5129 33.5592 20.347C34.0852 20.18 34.3814 20.0922 34.448 20.0838C34.5131 20.0742 34.5791 20.0734 34.6458 20.0814C34.7124 20.0881 34.7772 20.1033 34.8403 20.1268C34.9032 20.1491 34.9623 20.1787 35.0176 20.2156C35.0731 20.2537 35.1233 20.2974 35.1683 20.3466C35.2133 20.3958 35.2518 20.45 35.2837 20.5092C35.3156 20.5685 35.3401 20.6302 35.3573 20.6946C35.3744 20.7589 35.3834 20.824 35.3841 20.8898C35.385 20.9569 35.3776 21.0228 35.3617 21.0875C35.3459 21.1522 35.3229 21.2145 35.2926 21.2741C35.2624 21.3338 35.2254 21.3891 35.1816 21.4398C35.1379 21.4906 35.0886 21.5355 35.0337 21.5746C34.9786 21.6124 34.9204 21.6435 34.8591 21.668C34.7966 21.6925 34.7653 21.7048 34.7653 21.7048Z" fill="#B3B3B3"/>
<path d="M41.4414 20.4171C41.4414 20.4171 41.5029 20.7302 41.6258 21.3565C41.7476 21.984 41.872 22.6342 41.9991 23.3069C42.1262 23.9797 42.2518 24.6367 42.3761 25.278C42.5016 25.9192 42.6241 26.4828 42.7434 26.9687C42.8629 27.4559 42.9972 27.9177 43.1465 28.3541C43.2957 28.7905 43.3726 29.0485 43.3771 29.1279C43.3817 29.2085 43.3735 29.2878 43.3525 29.3656C43.3303 29.4436 43.2967 29.5156 43.2517 29.5817C43.2069 29.649 43.1524 29.7071 43.0882 29.7558C43.024 29.8046 42.9537 29.8419 42.8772 29.8677C42.8008 29.8935 42.722 29.9068 42.6409 29.9077C42.5608 29.9072 42.4823 29.8946 42.4052 29.8697C42.3292 29.8436 42.2586 29.8061 42.1933 29.7575C42.1293 29.7087 42.0747 29.6515 42.0295 29.5858C41.9842 29.5189 41.9505 29.4465 41.9283 29.3687C41.9075 29.2907 41.8985 29.2117 41.9016 29.1317C41.9059 29.0515 41.9231 28.9739 41.9533 28.8991C41.9834 28.8242 42.0243 28.7559 42.076 28.6944C42.1289 28.6327 42.1897 28.581 42.2584 28.5394C42.3271 28.4979 42.4013 28.4685 42.481 28.4513C42.5593 28.4329 42.6383 28.4284 42.7178 28.4378C42.7985 28.4458 42.8753 28.4669 42.9481 28.501C43.0223 28.5349 43.0884 28.5791 43.1465 28.6334C43.2061 28.6889 43.2542 28.7524 43.2911 28.8239C43.3291 28.8952 43.3548 28.9702 43.3682 29.0488C43.3816 29.1287 43.3817 29.2085 43.3685 29.2882C43.3565 29.3678 43.3315 29.4429 43.2933 29.5134C43.2552 29.5852 43.2069 29.649 43.1484 29.7049C43.0898 29.7595 43.0239 29.804 42.9508 29.8384C42.8777 29.8727 42.8009 29.8941 42.7204 29.9025C42.6399 29.911 42.5608 29.9066 42.4831 29.8894C42.4041 29.8724 42.3298 29.8435 42.2602 29.8028C42.1904 29.7609 42.1294 29.7093 42.077 29.6481C42.0258 29.5868 41.9849 29.5188 41.9541 29.4443C41.9246 29.3697 41.9099 29.3323 41.9099 29.3323C41.9099 29.3323 41.8862 29.1083 41.8387 28.6603C41.7901 28.2124 41.7023 27.7395 41.5756 27.2416C41.4475 26.7437 41.3083 26.1766 41.1578 25.5402C41.0086 24.9049 40.8541 24.2586 40.6941 23.6015C40.5342 22.9444 40.3697 22.3073 40.2006 21.6902C40.0303 21.0745 39.9419 20.7359 39.9351 20.6745C39.9285 20.6142 39.9294 20.5534 39.9379 20.4918C39.9453 20.4316 39.9604 20.3726 39.9832 20.3149C40.006 20.2571 40.0354 20.2032 40.0716 20.1531C40.1065 20.1031 40.1476 20.0577 40.1947 20.0168C40.242 19.9771 40.2929 19.9428 40.3474 19.9139C40.4021 19.8862 40.4599 19.8653 40.5209 19.851C40.5805 19.8368 40.6409 19.8302 40.7019 19.8311C40.7629 19.832 40.8233 19.84 40.883 19.8549C40.9429 19.8711 41.0001 19.8939 41.0548 19.9233C41.1093 19.9513 41.1594 19.9862 41.205 20.0277C41.2506 20.0693 41.2909 20.1157 41.3259 20.1671C41.3609 20.2184 41.3886 20.273 41.409 20.3307C41.4306 20.3883 41.4414 20.4171 41.4414 20.4171Z" fill="#B3B3B3"/>
<path d="M39.343 14.6747C39.343 14.6747 39.3721 14.7095 39.4304 14.779C39.4898 14.8472 39.5365 14.9235 39.5707 15.0079C39.6061 15.0921 39.6265 15.1784 39.6318 15.2666C39.6373 15.3573 39.6281 15.4468 39.6042 15.535C39.5802 15.622 39.543 15.7032 39.4925 15.7787C39.4421 15.8541 39.3813 15.9196 39.3101 15.9754C39.2376 16.0312 39.1582 16.0737 39.0719 16.1029C38.9869 16.132 38.8994 16.1468 38.8093 16.1472C38.718 16.149 38.6292 16.1353 38.5428 16.1063C38.4566 16.0784 38.3774 16.0373 38.3052 15.983C38.2319 15.9287 38.1696 15.8639 38.1185 15.7886C38.0675 15.7146 38.0292 15.6338 38.0036 15.5461C37.9793 15.4584 37.9689 15.37 37.9725 15.281C37.9771 15.1907 37.996 15.1035 38.0292 15.0195C38.0622 14.9342 38.1081 14.8573 38.1668 14.7887C38.224 14.719 38.2918 14.6604 38.3701 14.613C38.4472 14.5656 38.5299 14.5316 38.6182 14.5111C38.7066 14.4919 38.7956 14.4865 38.8852 14.495C38.9762 14.5046 39.0627 14.528 39.1447 14.565C39.228 14.602 39.3029 14.6517 39.3694 14.7142C39.4358 14.7754 39.4903 14.8459 39.5329 14.9257C39.5768 15.0054 39.6059 15.0903 39.6203 15.1802C39.6358 15.2687 39.6366 15.3573 39.6229 15.446C39.6081 15.5359 39.5801 15.6214 39.5391 15.7023C39.4966 15.7821 39.4427 15.8534 39.3772 15.9162C39.3117 15.979 39.2381 16.0299 39.1565 16.0688C39.0736 16.1079 38.987 16.1327 38.8965 16.1432C38.8073 16.1537 38.7186 16.1489 38.6305 16.1289C38.5413 16.1102 38.4578 16.0777 38.38 16.0314C38.301 15.9852 38.2616 15.9628 38.2617 15.964C38.2617 15.964 38.2385 15.9389 38.1921 15.8885C38.1459 15.8394 38.1061 15.7853 38.073 15.7262C38.0399 15.6683 38.0147 15.6066 37.9975 15.541C37.9789 15.4755 37.9687 15.4099 37.9666 15.3442C37.9657 15.2759 37.9724 15.2088 37.9868 15.1429C38.0013 15.077 38.023 15.0137 38.0518 14.9528C38.0821 14.8932 38.119 14.8373 38.1626 14.7853C38.2063 14.7333 38.2549 14.6872 38.3084 14.6469C38.3632 14.6066 38.4219 14.5742 38.4845 14.5496C38.5469 14.5238 38.6119 14.5053 38.6795 14.4943C38.7447 14.4847 38.8112 14.4832 38.8791 14.4898C38.9468 14.4952 39.0122 14.509 39.0751 14.5313C39.1393 14.5535 39.1997 14.5829 39.2563 14.6197C39.3141 14.6564 39.343 14.6747 39.343 14.6747Z" fill="#B3B3B3"/>
<path d="M46.7354 19.8185C46.7354 19.8185 46.7526 19.9981 46.7871 20.3573C46.8215 20.7165 46.8556 21.0853 46.8892 21.4635C46.9227 21.8406 46.9743 22.228 47.0439 22.6259C47.1123 23.0239 47.1914 23.4425 47.2812 23.8817C47.3711 24.3221 47.4838 24.7554 47.6195 25.1817C47.7565 25.609 47.9482 25.9378 48.1946 26.168C48.4412 26.3994 48.6958 26.5434 48.9586 26.5998C49.2214 26.6575 49.5334 26.5183 49.8946 26.1822C50.2545 25.8462 50.5125 25.5073 50.6688 25.1653C50.8263 24.8232 50.9563 24.4361 51.0588 24.0039C51.1614 23.573 51.2497 23.1237 51.3237 22.6561C51.399 22.1895 51.4372 21.7757 51.4381 21.4147C51.439 21.0536 51.4212 20.6599 51.3846 20.2338C51.3479 19.8064 51.3361 19.5452 51.3493 19.4503C51.3613 19.3568 51.3888 19.2669 51.4319 19.1807C51.4739 19.0959 51.5287 19.0195 51.5963 18.9514C51.6639 18.8834 51.7408 18.8277 51.8271 18.7846C51.9135 18.7427 52.0038 18.7151 52.0978 18.7017C52.1931 18.6881 52.2879 18.6905 52.3822 18.7087C52.4765 18.7269 52.5651 18.7596 52.6479 18.8067C52.732 18.8524 52.8064 18.911 52.8711 18.9825C52.9346 19.0542 52.9855 19.1339 53.0238 19.2217C53.062 19.3082 53.0846 19.3987 53.0917 19.4931C53.1002 19.5886 53.0927 19.683 53.0693 19.7763C53.0471 19.8694 53.0104 19.9563 52.9591 20.0369C52.9066 20.1175 52.843 20.1878 52.7684 20.2476C52.6937 20.3075 52.6115 20.354 52.5218 20.3873C52.4321 20.4206 52.3391 20.439 52.243 20.4425C52.1479 20.4446 52.0541 20.4321 51.9616 20.4048C51.8702 20.3762 51.7858 20.3343 51.7085 20.2791C51.6299 20.2227 51.5624 20.1559 51.506 20.0786C51.4509 20.0011 51.4091 19.9168 51.3807 19.8256C51.3523 19.7344 51.3389 19.6406 51.3405 19.5442C51.3435 19.4502 51.3614 19.3586 51.3941 19.2696C51.4267 19.1793 51.4733 19.0966 51.534 19.0216C51.5933 18.9466 51.6632 18.8834 51.7437 18.8319C51.8255 18.7803 51.9129 18.7428 52.006 18.7193C52.0979 18.6959 52.1918 18.6882 52.2877 18.6962C52.3837 18.7041 52.4758 18.727 52.5642 18.7647C52.6525 18.8012 52.7319 18.8518 52.8024 18.9165C52.8741 18.9798 52.9339 19.053 52.9819 19.1361C53.0286 19.2181 53.0612 19.3064 53.0797 19.401C53.0982 19.4944 53.1074 19.5411 53.1074 19.5411C53.1074 19.5411 53.0953 19.7695 53.0712 20.2264C53.0471 20.6846 53.0254 21.1191 53.0061 21.5299C52.9881 21.9419 52.9552 22.4002 52.9074 22.9048C52.8608 23.4093 52.794 23.9441 52.7071 24.5092C52.6215 25.0741 52.476 25.6083 52.2706 26.1117C52.0639 26.614 51.7769 27.0853 51.4098 27.5258C51.044 27.9662 50.684 28.2655 50.3299 28.4236C49.9757 28.5818 49.619 28.6819 49.2597 28.7239C48.9016 28.7659 48.528 28.6477 48.1389 28.3694C47.7511 28.0922 47.4463 27.8546 47.2243 27.6564C47.0023 27.4583 46.7995 27.1913 46.6161 26.8555C46.4338 26.5183 46.2516 26.1114 46.0696 25.6348C45.8889 25.1581 45.739 24.6926 45.6199 24.2383C45.5007 23.7828 45.3923 23.3275 45.2948 22.8726C45.1972 22.4176 45.1316 22.001 45.098 21.6227C45.0644 21.2444 45.0329 20.8754 45.0035 20.5158C44.974 20.1561 44.9606 19.9407 44.9632 19.8695C44.9657 19.7984 44.9767 19.7284 44.9959 19.6595C45.0152 19.5907 45.0424 19.5249 45.0774 19.4623C45.1139 19.4008 45.1564 19.3438 45.2051 19.2913C45.2537 19.2389 45.3087 19.1934 45.3701 19.1551C45.4301 19.1168 45.494 19.0858 45.5618 19.062C45.6296 19.0395 45.6988 19.0252 45.7693 19.0189C45.8398 19.0126 45.9105 19.0146 45.9812 19.0248C46.052 19.0362 46.1204 19.0555 46.1863 19.0825C46.2535 19.1108 46.3157 19.1458 46.3727 19.1876C46.4311 19.2305 46.4831 19.2791 46.5285 19.3333C46.5741 19.3888 46.6124 19.4488 46.6435 19.5131C46.6746 19.5775 46.6977 19.6445 46.7128 19.7141C46.7279 19.7837 46.7354 19.8185 46.7354 19.8185Z" fill="#B3B3B3"/>
<path d="M55.3973 18.474C55.3973 18.474 55.4788 18.6486 55.6419 18.9976C55.8038 19.348 55.9531 19.6635 56.0897 19.944C56.2252 20.2258 56.3575 20.5503 56.4866 20.9176C56.6157 21.2849 56.7207 21.6511 56.8014 22.0164C56.8833 22.3815 56.9494 22.7328 56.9998 23.0704C57.0513 23.4078 57.0971 23.7154 57.137 23.993C57.1755 24.2695 57.2235 24.6098 57.281 25.0138C57.3385 25.4179 57.3665 25.6618 57.365 25.7455C57.3637 25.8305 57.3521 25.9139 57.3301 25.9956C57.3082 26.0774 57.2764 26.1549 57.2347 26.2283C57.1943 26.3028 57.1451 26.3712 57.0872 26.4333C57.0292 26.4955 56.9655 26.5499 56.896 26.5966C56.8252 26.6422 56.7498 26.6793 56.6698 26.7079C56.5898 26.7365 56.5077 26.7552 56.4234 26.764C56.339 26.7715 56.255 26.7695 56.1715 26.7579C56.0867 26.7464 56.0054 26.7245 55.9276 26.6921C55.8487 26.6612 55.7746 26.6209 55.7055 26.5713C55.6376 26.5216 55.5761 26.465 55.5209 26.4015C55.4656 26.3367 55.4194 26.2667 55.3823 26.1915C55.3437 26.1151 55.3158 26.0359 55.2983 25.9538C55.2795 25.8706 55.2056 25.5605 55.0766 25.0235C54.9502 24.4863 54.8942 24.0568 54.9088 23.735C54.9208 23.4122 54.9465 23.0951 54.9862 22.7838C55.0272 22.4736 55.1024 22.1483 55.2118 21.808C55.3224 21.4676 55.4596 21.0963 55.6232 20.6941C55.7856 20.2934 56.0024 19.9403 56.2736 19.635C56.5436 19.3298 56.9121 19.1546 57.379 19.1093C57.8448 19.0641 58.2676 19.1791 58.6475 19.4545C59.0276 19.731 59.332 20.0853 59.5608 20.5171C59.7884 20.9491 59.9779 21.4029 60.1293 21.8784C60.2807 22.3539 60.4141 22.8259 60.5294 23.2945C60.6446 23.763 60.7855 24.1983 60.952 24.6002C61.1197 25.0021 61.2141 25.2426 61.2351 25.3218C61.2561 25.401 61.267 25.4811 61.2679 25.5621C61.2701 25.6442 61.262 25.7248 61.2436 25.8037C61.2254 25.8838 61.1979 25.9604 61.1612 26.0333C61.1245 26.1062 61.0797 26.1735 61.0268 26.2352C60.9739 26.2969 60.914 26.3517 60.8471 26.3994C60.7803 26.4472 60.7089 26.4864 60.6329 26.5173C60.5568 26.5468 60.4787 26.5677 60.3985 26.5799C60.317 26.5909 60.2358 26.5918 60.155 26.5825C60.073 26.5746 59.994 26.5569 59.918 26.5295C59.8406 26.5021 59.7682 26.4661 59.7008 26.4215C59.632 26.3757 59.5702 26.3229 59.5153 26.2631C59.4593 26.2035 59.4115 26.1375 59.372 26.065C59.3327 25.9937 59.2973 25.7024 59.2658 25.1909C59.2329 24.6783 59.2095 24.1927 59.1954 23.7341C59.18 23.2757 59.1813 22.8328 59.1992 22.4056C59.2159 21.9785 59.3017 21.5732 59.4568 21.1895C59.612 20.8071 59.791 20.4429 59.9938 20.0968C60.1967 19.7507 60.4183 19.4947 60.6588 19.329C60.8981 19.1645 61.3234 19.0856 61.9346 19.0921C62.5457 19.0973 63.0294 19.2329 63.3857 19.499C63.7431 19.7636 64.0426 20.0986 64.2843 20.504C64.526 20.9094 64.7347 21.3216 64.9103 21.7405C65.0859 22.1593 65.2442 22.6057 65.3854 23.0796C65.5265 23.5534 65.6402 23.9899 65.7264 24.3888C65.8139 24.7876 65.8854 25.1638 65.9409 25.5174C65.9979 25.8721 66.0542 26.2135 66.11 26.5417C66.1659 26.8699 66.1921 27.0867 66.1888 27.1921C66.1855 27.2975 66.1654 27.4 66.1285 27.4996C66.0915 27.5979 66.0399 27.6879 65.9735 27.7698C65.9073 27.853 65.8297 27.9226 65.7407 27.9786C65.6505 28.0348 65.5544 28.0756 65.4526 28.1011C65.3495 28.1268 65.2455 28.1347 65.1405 28.1251C65.0344 28.1168 64.9331 28.0916 64.8367 28.0495C64.739 28.0075 64.6509 27.9513 64.5723 27.8811C64.4937 27.8108 64.4287 27.7291 64.3772 27.6362C64.3259 27.5445 64.29 27.447 64.2694 27.3437C64.25 27.2402 64.2477 27.1359 64.2625 27.0308C64.2774 26.9268 64.3085 26.8272 64.3559 26.7318C64.4034 26.6376 64.4645 26.5536 64.5392 26.4799C64.6138 26.4048 64.6985 26.3441 64.7934 26.2977C64.8883 26.2512 64.9884 26.2208 65.0938 26.2064C65.1979 26.1921 65.3023 26.1948 65.4068 26.2147C65.5103 26.2359 65.6081 26.2721 65.7003 26.3235C65.7925 26.3761 65.8739 26.4417 65.9444 26.5203C66.0148 26.5989 66.0703 26.6871 66.1107 26.7848C66.1523 26.8812 66.1777 26.9822 66.1871 27.0877C66.1952 27.1934 66.1861 27.2975 66.1596 27.3999C66.1345 27.5022 66.0928 27.5977 66.0347 27.6865C65.9778 27.7752 65.9078 27.8523 65.8248 27.918C65.743 27.9835 65.6524 28.0346 65.5528 28.0713C65.4531 28.1068 65.3501 28.1261 65.2437 28.1292C65.1386 28.1322 65.0358 28.1179 64.9352 28.0863C64.8334 28.0548 64.7397 28.008 64.6542 27.946C64.5687 27.8839 64.4949 27.81 64.4327 27.7244C64.3717 27.6386 64.326 27.5451 64.2954 27.4439C64.2648 27.3428 64.2496 27.2928 64.2497 27.2941C64.2497 27.2941 64.2341 27.1327 64.2029 26.8099C64.1717 26.4872 64.1344 26.1681 64.0912 25.8527C64.0493 25.5385 63.9928 25.2174 63.9218 24.8893C63.8506 24.5599 63.738 24.2 63.584 23.8097C63.4301 23.4205 63.2105 22.9429 62.9253 22.3766C62.6415 21.8116 62.362 21.452 62.0868 21.2978C61.8117 21.1449 61.5708 21.2062 61.3642 21.4817C61.1578 21.7585 61.0503 22.0632 61.0417 22.3958C61.0332 22.7284 61.0597 23.1264 61.1212 23.5896C61.1825 24.0515 61.2116 24.4359 61.2084 24.7428C61.2052 25.0496 61.2141 25.2426 61.2351 25.3218C61.2561 25.401 61.267 25.4811 61.2679 25.5621C61.2701 25.6442 61.262 25.7248 61.2436 25.8037C61.2254 25.8838 61.1979 25.9604 61.1612 26.0333C61.1245 26.1062 61.0797 26.1735 61.0268 26.2352C60.9739 26.2969 60.914 26.3517 60.8471 26.3994C60.7803 26.4472 60.7089 26.4864 60.6329 26.5173C60.5581 26.5467 60.48 26.5676 60.3985 26.5799C60.317 26.5909 60.2358 26.5918 60.155 26.5825C60.073 26.5746 59.994 26.5569 59.918 26.5295C59.8406 26.5021 59.7682 26.4661 59.7008 26.4215C59.632 26.3757 59.5702 26.3229 59.5153 26.2631C59.4593 26.2035 59.4115 26.1375 59.372 26.065C59.3327 25.9937 59.293 25.8757 59.253 25.7107C59.2128 25.5446 59.1361 25.3101 59.0229 25.0073C58.9096 24.7045 58.7768 24.3451 58.6243 23.9293C58.4731 23.5133 58.3215 23.129 58.1696 22.7764C58.0175 22.4226 57.8982 22.1089 57.8117 21.8354C57.7251 21.5606 57.6034 21.6202 57.4467 22.0141C57.2887 22.4069 57.1919 22.7392 57.1563 23.0109C57.1221 23.2824 57.1057 23.6335 57.1071 24.0641C57.1073 24.4947 57.1506 24.8614 57.2372 25.164C57.3238 25.4667 57.3664 25.6605 57.365 25.7455C57.3637 25.8305 57.3521 25.9139 57.3301 25.9956C57.3082 26.0774 57.2764 26.1549 57.2347 26.2283C57.1943 26.3028 57.1451 26.3712 57.0872 26.4333C57.0305 26.4953 56.9667 26.5491 56.8959 26.5947C56.8251 26.6415 56.7498 26.6793 56.6698 26.7079C56.5898 26.7365 56.5077 26.7552 56.4234 26.764C56.339 26.7715 56.255 26.7695 56.1715 26.7579C56.0867 26.7464 56.0054 26.7245 55.9276 26.6921C55.8487 26.6612 55.7746 26.6209 55.7055 26.5713C55.6376 26.5216 55.5761 26.465 55.5209 26.4015C55.4656 26.3367 55.4194 26.2667 55.3823 26.1915C55.3437 26.1151 55.3158 26.0359 55.2983 25.9538C55.2795 25.8706 55.2672 25.7533 55.2613 25.6018C55.2567 25.4502 55.235 25.1196 55.196 24.6101C55.156 24.1019 55.1176 23.6987 55.0809 23.4005C55.043 23.1024 54.9975 22.8119 54.9445 22.5291C54.8914 22.2463 54.811 21.9488 54.7033 21.6366C54.5932 21.3259 54.4782 21.0321 54.3584 20.7552C54.2374 20.4797 54.0911 20.169 53.9195 19.8233C53.7478 19.4775 53.6492 19.2678 53.6236 19.1941C53.5994 19.1215 53.5839 19.0475 53.5772 18.9721C53.5703 18.8942 53.573 18.8173 53.5853 18.7414C53.5975 18.6644 53.6188 18.5903 53.6493 18.5192C53.6786 18.4482 53.7165 18.3821 53.7631 18.3209C53.8096 18.2585 53.8624 18.2025 53.9215 18.153C53.9819 18.1045 54.0468 18.0633 54.1162 18.0293C54.1869 17.9964 54.2602 17.9715 54.3361 17.9546C54.4097 17.9392 54.4853 17.9331 54.563 17.9363C54.6407 17.9383 54.7166 17.9499 54.7909 17.9712C54.8651 17.9925 54.9363 18.0223 55.0045 18.0605C55.0713 18.0989 55.1326 18.1448 55.1881 18.1981C55.2449 18.2513 55.294 18.3109 55.3354 18.3769C55.3767 18.4417 55.3973 18.474 55.3973 18.474Z" fill="#B3B3B3"/>
<path d="M68.2753 17.7192C68.2753 17.7192 68.4797 17.7264 68.8885 17.7407C69.2985 17.7549 69.694 17.7553 70.075 17.7417C70.4571 17.728 70.819 17.7072 71.1606 17.6794C71.5034 17.6515 71.8811 17.6148 72.2934 17.5693C72.7058 17.5237 72.9619 17.5061 73.0619 17.5162C73.1629 17.5249 73.2597 17.5493 73.3521 17.5892C73.4445 17.6291 73.528 17.6831 73.6026 17.7512C73.6772 17.8193 73.7388 17.8975 73.7872 17.9856C73.837 18.0737 73.8706 18.1663 73.8881 18.2636C73.9071 18.3632 73.909 18.4631 73.8938 18.5633C73.8797 18.6621 73.85 18.7565 73.8047 18.8467C73.7594 18.9369 73.7006 19.0175 73.6282 19.0885C73.557 19.1594 73.4758 19.2167 73.3844 19.2603C73.2932 19.3051 73.198 19.3338 73.0988 19.3464C72.9984 19.3592 72.8984 19.3554 72.7988 19.3351C72.7006 19.316 72.6074 19.2812 72.5191 19.2307C72.4321 19.1802 72.3548 19.1174 72.2872 19.0423C72.2209 18.9672 72.1683 18.8832 72.1296 18.7903C72.0896 18.6976 72.0658 18.6009 72.0581 18.5003C72.0517 18.3995 72.0607 18.3012 72.0852 18.2053C72.1108 18.1067 72.1509 18.0158 72.2057 17.9324C72.2604 17.8477 72.3275 17.774 72.407 17.7112C72.4864 17.6484 72.5736 17.6001 72.6683 17.5663C72.7631 17.5326 72.8611 17.5144 72.9624 17.5117C73.0639 17.5103 73.1623 17.5244 73.2576 17.5539C73.3542 17.5846 73.4433 17.6292 73.5246 17.6879C73.6061 17.7478 73.6759 17.8188 73.734 17.9011C73.7934 17.9832 73.8374 18.0717 73.8662 18.1667C73.8951 18.2642 73.9078 18.3632 73.904 18.4636C73.9002 18.564 73.8803 18.6614 73.8442 18.7558C73.8095 18.8501 73.76 18.9362 73.6958 19.0141C73.6316 19.092 73.5569 19.1582 73.4716 19.2126C73.3862 19.2658 73.2944 19.3044 73.1962 19.3283C73.0979 19.351 73.0489 19.3629 73.049 19.3642C73.049 19.3642 72.8396 19.372 72.4207 19.3877C72.0008 19.4047 71.6119 19.4222 71.2542 19.44C70.8965 19.4579 70.509 19.4765 70.0918 19.4958C69.6732 19.514 69.2593 19.521 68.8502 19.5169C68.4411 19.5139 68.2011 19.5068 68.1303 19.4953C68.0583 19.4853 67.9887 19.4667 67.9216 19.4398C67.8545 19.4128 67.7917 19.3785 67.7334 19.3368C67.675 19.2938 67.6225 19.2453 67.5758 19.1912C67.529 19.1358 67.4894 19.076 67.457 19.0117C67.4259 18.9474 67.4021 18.8798 67.3857 18.8091C67.3705 18.7382 67.3636 18.6679 67.365 18.5981C67.3662 18.5258 67.3764 18.4546 67.3955 18.3845C67.4148 18.3156 67.4419 18.2493 67.4769 18.1853C67.5119 18.1227 67.5538 18.0651 67.6025 18.0127C67.651 17.959 67.7059 17.9123 67.7671 17.8727C67.8271 17.8331 67.8909 17.8015 67.9586 17.7777C68.0276 17.7539 68.0979 17.7381 68.1696 17.7305C68.2401 17.723 68.2753 17.7192 68.2753 17.7192Z" fill="#B3B3B3"/>
<path d="M86.0055 7.9236C86.0055 7.9236 85.6983 8.05921 85.0838 8.33042C84.468 8.60174 83.8626 8.89621 83.2675 9.21383C82.6711 9.53156 82.0551 9.88587 81.4195 10.2768C80.7839 10.6676 80.2222 11.1045 79.7345 11.5874C79.2466 12.0691 78.8685 12.5004 78.6002 12.8814C78.3332 13.2624 78.1693 13.6399 78.1086 14.0139C78.0492 14.389 78.0751 14.8022 78.1863 15.2534C78.2987 15.7032 78.5821 16.1929 79.0367 16.7226C79.4913 17.2522 80.1129 17.7828 80.9016 18.3144C81.6903 18.846 82.4812 19.2957 83.2743 19.6635C84.0661 20.0302 84.7611 20.3009 85.3594 20.4758C85.9576 20.6506 86.4116 20.7591 86.7213 20.8013C87.0298 20.8435 87.3712 21.014 87.7456 21.3126C88.1187 21.6113 88.3167 21.9034 88.3395 22.1889C88.3625 22.4757 88.27 22.7923 88.0621 23.1389C87.8531 23.4868 87.5062 23.8267 87.0215 24.1586C86.5357 24.4918 85.9932 24.7655 85.3939 24.9796C84.7933 25.1926 84.2127 25.374 83.6522 25.5239C83.0916 25.6725 82.5743 25.7951 82.1005 25.8917C81.6267 25.9895 81.2463 26.0734 80.9593 26.1432C80.6722 26.213 80.3082 26.2238 79.8672 26.1756C79.4262 26.1274 79.1718 26.0797 79.1042 26.0325C79.0379 25.9865 78.9802 25.9308 78.9312 25.8655C78.8823 25.8002 78.8448 25.7288 78.8189 25.6513C78.793 25.5738 78.7808 25.4944 78.7825 25.4132C78.7828 25.3308 78.7961 25.2517 78.8224 25.1759C78.8498 25.0988 78.8885 25.0276 78.9386 24.9623C78.9888 24.8983 79.048 24.8436 79.1164 24.7983C79.1834 24.7531 79.2567 24.72 79.3361 24.699C79.4154 24.678 79.4959 24.6696 79.5776 24.6737C79.6593 24.6791 79.7377 24.6975 79.8129 24.7288C79.8879 24.7589 79.9564 24.8009 80.0183 24.855C80.0802 24.9077 80.132 24.9696 80.1739 25.0407C80.2156 25.1104 80.2451 25.1851 80.2623 25.2646C80.2783 25.3442 80.2816 25.425 80.2724 25.5069C80.2631 25.5875 80.2407 25.6649 80.2054 25.739C80.1713 25.8117 80.1257 25.8778 80.0688 25.9373C80.0118 25.9956 79.9469 26.0438 79.8741 26.0819C79.8012 26.1188 79.7247 26.144 79.6447 26.1574C79.5632 26.1697 79.4825 26.1686 79.4025 26.1542C79.3214 26.1412 79.2454 26.115 79.1746 26.0757C79.1026 26.0365 79.0385 25.9871 78.9825 25.9274C78.9264 25.8678 78.8817 25.8009 78.8484 25.7265C78.8152 25.6522 78.7943 25.5743 78.7858 25.4927C78.7774 25.4124 78.7823 25.3321 78.8006 25.252C78.8189 25.1731 78.8498 25.0988 78.8931 25.0291C78.9352 24.9594 78.9875 24.8984 79.0501 24.846C79.1128 24.7936 79.1828 24.7525 79.2601 24.7228C79.3362 24.6933 79.4147 24.6768 79.4957 24.6734C79.5779 24.6699 79.658 24.6792 79.7362 24.7014C79.8143 24.7236 79.8534 24.7347 79.8534 24.7347C79.8534 24.7347 79.9276 24.7484 80.076 24.7757C80.2244 24.8018 80.4385 24.8043 80.7185 24.7833C80.9986 24.7634 81.356 24.7139 81.7908 24.6348C82.2254 24.5543 82.7011 24.4285 83.2178 24.2572C83.7345 24.0858 84.2273 23.9015 84.6959 23.704C85.1646 23.5066 85.6479 23.1799 86.1457 22.724C86.6448 22.2692 86.7393 21.9897 86.4292 21.8855C86.1202 21.78 85.6425 21.6331 84.996 21.4448C84.3483 21.2566 83.6016 20.9676 82.7557 20.5779C81.9111 20.1881 81.055 19.6979 80.1875 19.1075C79.3198 18.5158 78.6185 17.8884 78.0835 17.2253C77.5485 16.5622 77.2128 15.9207 77.0765 15.3007C76.9401 14.6795 76.9425 14.1143 77.0839 13.6052C77.2254 13.0973 77.4555 12.6291 77.7741 12.2005C78.0928 11.7719 78.5241 11.289 79.0679 10.7517C79.6106 10.2146 80.207 9.73975 80.8571 9.3273C81.5072 8.91359 82.1381 8.53452 82.7499 8.19009C83.363 7.84554 83.9728 7.52851 84.5793 7.23901C85.1869 6.94814 85.5142 6.79493 85.5611 6.77936C85.608 6.76506 85.6561 6.75572 85.7052 6.75135C85.7544 6.74825 85.8036 6.75085 85.8525 6.75916C85.9016 6.76874 85.9492 6.78287 85.9953 6.80158C86.0403 6.82165 86.0825 6.84703 86.1221 6.87772C86.1616 6.90841 86.1971 6.94326 86.2285 6.98227C86.2598 7.02002 86.2857 7.06205 86.3063 7.10835C86.3268 7.1534 86.3418 7.2002 86.3512 7.24877C86.3605 7.29608 86.3635 7.34458 86.3603 7.39426C86.3584 7.44384 86.3499 7.49209 86.3351 7.53901C86.3216 7.58708 86.3021 7.63251 86.2767 7.6753C86.2513 7.71809 86.2211 7.75687 86.1861 7.79165C86.1512 7.82769 86.1121 7.8584 86.0686 7.88379C86.0266 7.91033 86.0055 7.9236 86.0055 7.9236Z" fill="#B3B3B3"/>
<path d="M93.8221 7.54348C93.8221 7.54348 93.7516 7.88669 93.6108 8.57309C93.47 9.26075 93.3405 9.95374 93.2223 10.6521C93.1017 11.3519 92.9954 12.1416 92.9034 13.0213C92.8103 13.9023 92.7701 14.8363 92.7829 15.8231C92.7971 16.8112 92.8029 17.748 92.8003 18.6337C92.7978 19.5193 92.8091 20.3037 92.8342 20.9867C92.8595 21.671 92.8935 22.2254 92.9363 22.6497C92.9791 23.0741 93.0213 23.399 93.0629 23.6246C93.1058 23.85 93.1252 23.9896 93.1211 24.0431C93.1182 24.0966 93.1083 24.1494 93.0913 24.2016C93.0755 24.2524 93.0538 24.3005 93.0261 24.3461C92.9973 24.393 92.9642 24.4352 92.9269 24.4727C92.8883 24.5103 92.8456 24.5433 92.7986 24.5715C92.7528 24.5996 92.704 24.6217 92.6521 24.6377C92.6001 24.6525 92.5476 24.6616 92.4946 24.665C92.4403 24.6686 92.3867 24.6651 92.3337 24.6546C92.2808 24.6454 92.2299 24.6296 92.1809 24.6074C92.132 24.5851 92.0857 24.5569 92.042 24.5228C91.9997 24.4898 91.9621 24.452 91.9291 24.4094C91.8961 24.3667 91.8686 24.321 91.8465 24.2723C91.8244 24.2236 91.809 24.1724 91.8004 24.1187C91.7907 24.0663 91.7242 23.646 91.6008 22.8577C91.4787 22.0692 91.4387 21.3698 91.481 20.7593C91.5233 20.15 91.6381 19.5768 91.8252 19.0395C92.0136 18.5022 92.2338 18.0298 92.4858 17.6223C92.7377 17.2148 93.0846 16.8325 93.5264 16.4753C93.967 16.1182 94.3885 15.9471 94.791 15.962C95.1949 15.9781 95.6093 16.1198 96.0343 16.3874C96.4606 16.656 96.8423 16.9939 97.1793 17.4009C97.5152 17.8094 97.8107 18.2417 98.0658 18.6978C98.3195 19.1528 98.52 19.5796 98.6671 19.9782C98.8144 20.3781 98.9303 20.7326 99.0149 21.0418C99.0995 21.3509 99.1339 21.7671 99.1182 22.2904C99.1014 22.8151 99.0712 23.1186 99.0277 23.201C98.9844 23.2846 98.9288 23.3592 98.861 23.4248C98.7945 23.4902 98.7185 23.5432 98.6333 23.5837C98.548 23.6242 98.4589 23.6499 98.3659 23.6607C98.2718 23.6729 98.1787 23.6691 98.0868 23.6494C97.9951 23.6309 97.9083 23.5975 97.8266 23.549C97.7449 23.5018 97.6737 23.4429 97.6128 23.3723C97.5507 23.3018 97.5018 23.2232 97.4662 23.1364C97.4305 23.0497 97.4091 22.9591 97.402 22.8647C97.3963 22.7715 97.4059 22.6794 97.4308 22.5885C97.4545 22.4978 97.492 22.4134 97.5435 22.3353C97.5961 22.2559 97.6592 22.1876 97.7329 22.1304C97.8078 22.0731 97.8895 22.0284 97.9781 21.9965C98.0667 21.9658 98.158 21.9501 98.2519 21.9494C98.347 21.9485 98.4391 21.9625 98.528 21.9913C98.6181 22.0201 98.7006 22.0621 98.7753 22.1176C98.8514 22.1741 98.9164 22.2412 98.9703 22.3187C99.024 22.395 99.0638 22.4783 99.0896 22.5685C99.1154 22.6586 99.1267 22.7507 99.1237 22.8447C99.1193 22.9389 99.1001 23.0299 99.066 23.1178C99.0318 23.2044 98.985 23.2839 98.9254 23.3564C98.8645 23.4289 98.7945 23.4902 98.7151 23.5404C98.6344 23.5893 98.5486 23.6242 98.4578 23.6449C98.3658 23.667 98.2731 23.6734 98.1796 23.6639C98.086 23.6545 97.9963 23.6308 97.9104 23.5929C97.8244 23.5536 97.7469 23.5023 97.6777 23.4387C97.6086 23.3752 97.5514 23.3024 97.506 23.2203C97.4605 23.1369 97.4298 23.0491 97.414 22.9568C97.3982 22.8644 97.397 22.7721 97.4103 22.6797C97.4249 22.5859 97.4322 22.5397 97.4323 22.5409C97.4323 22.5409 97.4233 22.2966 97.4052 21.808C97.386 21.3195 97.3326 20.9195 97.2453 20.6081C97.1581 20.2979 97.0022 19.9577 96.7776 19.5875C96.5543 19.2185 96.3177 18.8842 96.0676 18.5847C95.8162 18.284 95.5162 18.0085 95.1677 17.7583C94.8192 17.5081 94.5197 17.4378 94.2692 17.5474C94.02 17.6582 93.7796 17.8664 93.5477 18.1721C93.3147 18.479 93.1189 18.8473 92.9603 19.2769C92.8006 19.7078 92.7101 20.1902 92.689 20.7241C92.6679 21.258 92.6974 21.7975 92.7776 22.3427C92.8565 22.888 92.9345 23.294 93.0115 23.5607C93.0887 23.8288 93.1252 23.9896 93.1211 24.0431C93.1182 24.0966 93.1083 24.1494 93.0913 24.2016C93.0755 24.2524 93.0538 24.3005 93.0261 24.3461C92.9973 24.393 92.9642 24.4352 92.9269 24.4727C92.8883 24.5103 92.8456 24.5433 92.7986 24.5715C92.7528 24.5996 92.704 24.6217 92.6521 24.6377C92.6001 24.6525 92.5476 24.6616 92.4946 24.665C92.4403 24.6686 92.3867 24.6651 92.3337 24.6546C92.2808 24.6454 92.2299 24.6296 92.1809 24.6074C92.132 24.5851 92.0857 24.5569 92.042 24.5228C91.9997 24.4898 91.9621 24.452 91.9291 24.4094C91.8961 24.3667 91.8686 24.321 91.8465 24.2723C91.8244 24.2236 91.809 24.1724 91.8004 24.1187C91.7907 24.0663 91.7922 23.9256 91.8048 23.6965C91.8188 23.4685 91.8225 23.1382 91.8158 22.7056C91.8092 22.2742 91.7889 21.7098 91.7548 21.0123C91.7209 20.3161 91.6991 19.5283 91.6896 18.6488C91.6798 17.768 91.661 16.8127 91.6329 15.7828C91.6048 14.7517 91.6273 13.7832 91.7004 12.8774C91.7735 11.9715 91.8558 11.1617 91.9473 10.448C92.0387 9.73311 92.1341 9.02857 92.2337 8.33444C92.3333 7.64157 92.3915 7.26716 92.4081 7.21121C92.426 7.15516 92.4498 7.10174 92.4795 7.05096C92.5094 7.00144 92.5447 6.95524 92.5853 6.91236C92.6273 6.87063 92.6729 6.83427 92.7222 6.80329C92.7729 6.77345 92.826 6.7491 92.8814 6.73024C92.937 6.71264 92.9938 6.70189 93.0519 6.698C93.1099 6.69411 93.1679 6.69718 93.226 6.70723C93.284 6.71727 93.3401 6.73382 93.3942 6.75688C93.4471 6.78131 93.4974 6.81105 93.5449 6.84609C93.5912 6.88125 93.6323 6.92193 93.6681 6.96815C93.7052 7.01425 93.7363 7.06406 93.7614 7.11757C93.7851 7.16993 93.8027 7.22536 93.8142 7.28387C93.8256 7.33987 93.8294 7.39716 93.8257 7.45576C93.8233 7.51424 93.8221 7.54348 93.8221 7.54348Z" fill="#B3B3B3"/>
<path d="M105.349 16.4589C105.349 16.4589 105.228 16.5134 104.985 16.6224C104.741 16.7315 104.496 17.0103 104.252 17.4589C104.007 17.9063 103.842 18.2648 103.757 18.5346C103.671 18.8045 103.625 19.2038 103.62 19.7325C103.615 20.2611 103.701 20.7127 103.877 21.0871C104.055 21.4602 104.338 21.7226 104.726 21.8743C105.115 22.0247 105.446 22.1093 105.718 22.1282C105.99 22.1471 106.274 22.1554 106.57 22.1532C106.866 22.1522 107.25 22.0148 107.721 21.7412C108.193 21.4687 108.502 21.2082 108.646 20.9598C108.789 20.7102 108.904 20.4365 108.992 20.1386C109.078 19.8409 109.094 19.5234 109.039 19.1864C108.983 18.8505 108.793 18.5571 108.467 18.3061C108.14 18.0552 107.778 17.8246 107.379 17.6143C106.98 17.4053 106.646 17.2639 106.378 17.1902C106.109 17.1153 105.746 16.9949 105.291 16.8289C104.838 16.6627 104.562 16.5517 104.461 16.496C104.363 16.4402 104.275 16.37 104.199 16.2856C104.122 16.2013 104.061 16.1072 104.016 16.0036C103.971 15.8986 103.944 15.7902 103.934 15.6784C103.924 15.5652 103.933 15.4536 103.961 15.3434C103.988 15.2333 104.032 15.13 104.092 15.0335C104.153 14.9381 104.228 14.8542 104.317 14.7817C104.406 14.7105 104.504 14.6549 104.61 14.615C104.717 14.5763 104.827 14.5552 104.94 14.5515C105.054 14.5477 105.165 14.5625 105.273 14.596C105.383 14.6293 105.484 14.6786 105.576 14.7439C105.668 14.8104 105.748 14.8895 105.816 14.981C105.883 15.0739 105.933 15.1745 105.967 15.283C106 15.3915 106.016 15.5016 106.013 15.6133C106.009 15.7276 105.988 15.8378 105.949 15.9439C105.91 16.0512 105.856 16.1491 105.785 16.2378C105.714 16.3264 105.631 16.4016 105.535 16.4633C105.438 16.5251 105.335 16.5697 105.225 16.5973C105.115 16.6247 105.004 16.634 104.89 16.6251C104.776 16.6162 104.667 16.5898 104.563 16.5459C104.459 16.5007 104.364 16.4407 104.279 16.3659C104.193 16.2899 104.122 16.2025 104.067 16.1035C104.01 16.0047 103.97 15.8993 103.949 15.7872C103.928 15.6776 103.924 15.5664 103.938 15.4537C103.954 15.3409 103.987 15.2335 104.037 15.1314C104.088 15.0294 104.154 14.9381 104.234 14.8574C104.314 14.7768 104.405 14.7111 104.506 14.6604C104.608 14.6095 104.716 14.5765 104.828 14.5614C104.94 14.5452 105.052 14.5479 105.164 14.5696C105.277 14.59 105.332 14.6003 105.331 14.6004C105.331 14.6004 105.63 14.7068 106.228 14.9197C106.825 15.1326 107.339 15.3485 107.769 15.5675C108.2 15.7876 108.566 15.9837 108.868 16.1557C109.171 16.329 109.441 16.526 109.681 16.7466C109.92 16.9686 110.16 17.2297 110.402 17.53C110.643 17.8303 110.812 18.1775 110.909 18.5717C111.006 18.9659 111.027 19.3422 110.971 19.7005C110.916 20.0589 110.814 20.4612 110.667 20.9075C110.522 21.3549 110.305 21.7909 110.016 22.2156C109.728 22.6402 109.371 23.0057 108.946 23.312C108.523 23.6181 108.101 23.8336 107.682 23.9582C107.263 24.0829 106.866 24.1453 106.493 24.1456C106.12 24.147 105.707 24.1217 105.254 24.0694C104.8 24.0173 104.378 23.9117 103.988 23.7525C103.6 23.5932 103.257 23.3976 102.961 23.1655C102.666 22.9333 102.406 22.6296 102.181 22.2543C101.956 21.8804 101.809 21.5027 101.74 21.1212C101.669 20.7399 101.635 20.3737 101.638 20.0225C101.64 19.6715 101.666 19.3018 101.717 18.9135C101.767 18.524 101.861 18.1369 101.998 17.7523C102.136 17.3677 102.312 16.9847 102.527 16.6033C102.74 16.2233 102.998 15.8742 103.3 15.556C103.601 15.2367 103.891 15.0177 104.173 14.899C104.453 14.7803 104.63 14.7102 104.703 14.6885C104.776 14.6668 104.85 14.6545 104.926 14.6516C105.002 14.6473 105.077 14.6527 105.152 14.6676C105.227 14.6824 105.299 14.7058 105.368 14.7377C105.438 14.7695 105.502 14.8093 105.561 14.8573C105.621 14.9052 105.674 14.9594 105.72 15.0199C105.766 15.0804 105.805 15.1454 105.835 15.2149C105.865 15.2857 105.887 15.3585 105.9 15.4333C105.913 15.5069 105.916 15.582 105.911 15.6585C105.906 15.7337 105.891 15.8078 105.867 15.8808C105.843 15.9526 105.811 16.0207 105.771 16.0851C105.731 16.1507 105.684 16.21 105.629 16.263C105.574 16.316 105.513 16.362 105.447 16.4008C105.382 16.4395 105.349 16.4589 105.349 16.4589Z" fill="#B3B3B3"/>
<path d="M114.581 3.61843C114.581 3.61843 114.597 3.91147 114.63 4.49756C114.663 5.08364 114.689 5.82363 114.708 6.71755C114.727 7.61135 114.767 8.55786 114.827 9.55706C114.885 10.5564 114.947 11.516 115.014 12.4361C115.079 13.3563 115.119 14.1995 115.132 14.966C115.146 15.7324 115.17 16.4529 115.206 17.1274C115.241 17.8032 115.258 18.3851 115.257 18.8728C115.257 19.3617 115.274 19.7694 115.308 20.0957C115.341 20.4234 115.373 20.7112 115.404 20.9593C115.432 21.2063 115.441 21.3683 115.432 21.4451C115.421 21.5221 115.398 21.5951 115.364 21.664C115.328 21.733 115.283 21.7947 115.228 21.849C115.173 21.9032 115.111 21.9474 115.041 21.9814C114.971 22.0156 114.897 22.0373 114.821 22.0466C114.744 22.0572 114.668 22.0552 114.592 22.0404C114.515 22.0244 114.444 21.9972 114.377 21.9588C114.309 21.9205 114.249 21.8726 114.198 21.815C114.147 21.7562 114.107 21.6914 114.076 21.6207C114.046 21.5499 114.028 21.4755 114.022 21.3975C114.017 21.3207 114.023 21.2448 114.042 21.1696C114.062 21.0944 114.092 21.0245 114.134 20.9601C114.176 20.8955 114.228 20.839 114.288 20.7905C114.35 20.742 114.417 20.705 114.49 20.6795C114.562 20.6528 114.638 20.6385 114.716 20.6366C114.794 20.6348 114.869 20.6458 114.942 20.6697C115.016 20.6935 115.085 20.728 115.147 20.7731C115.21 20.8182 115.263 20.8723 115.308 20.9355C115.353 20.9986 115.387 21.0672 115.41 21.1411C115.431 21.2153 115.44 21.2911 115.438 21.3685C115.436 21.446 115.421 21.5208 115.393 21.5929C115.367 21.6662 115.329 21.7329 115.28 21.793C115.231 21.8531 115.174 21.9038 115.109 21.9451C115.042 21.9864 114.972 22.0161 114.896 22.0343C114.821 22.0523 114.745 22.0578 114.667 22.0508C114.59 22.0437 114.516 22.025 114.445 21.9946C114.373 21.9629 114.309 21.9211 114.253 21.8691C114.195 21.8173 114.147 21.7575 114.109 21.69C114.071 21.6224 114.046 21.5505 114.033 21.4744C114.018 21.3984 114.011 21.3604 114.011 21.3604C114.011 21.3604 114.021 21.2361 114.041 20.9873C114.062 20.7372 114.082 20.4396 114.101 20.0947C114.121 19.7496 114.143 19.348 114.167 18.8899C114.19 18.4318 114.179 17.8589 114.136 17.1711C114.092 16.4847 114.058 15.7689 114.035 15.0236C114.012 14.2783 113.959 13.4444 113.877 12.5219C113.796 11.5981 113.715 10.6312 113.635 9.62118C113.554 8.60995 113.49 7.6694 113.443 6.79954C113.396 5.92842 113.337 5.20149 113.266 4.61877C113.195 4.03605 113.161 3.71613 113.162 3.65901C113.164 3.60179 113.173 3.54589 113.189 3.49131C113.204 3.43548 113.226 3.38286 113.255 3.33345C113.284 3.28404 113.318 3.23858 113.357 3.19707C113.396 3.1543 113.44 3.11748 113.488 3.08661C113.536 3.05574 113.587 3.03094 113.642 3.01219C113.696 2.99469 113.751 2.98343 113.808 2.97839C113.865 2.97336 113.921 2.97466 113.978 2.9823C114.034 2.9912 114.089 3.00661 114.142 3.02852C114.196 3.05158 114.246 3.08012 114.29 3.11413C114.337 3.14803 114.378 3.18677 114.415 3.23036C114.452 3.27395 114.483 3.32187 114.508 3.37412C114.533 3.42512 114.551 3.47856 114.564 3.53444C114.575 3.59044 114.581 3.61843 114.581 3.61843Z" fill="#B3B3B3"/>
<path d="M108.959 9.77319C108.959 9.77319 109.161 9.7514 109.566 9.70782C109.971 9.66549 110.487 9.62794 111.112 9.59516C111.736 9.56249 112.475 9.51649 113.328 9.45717C114.181 9.39785 115.104 9.33037 116.098 9.25474C117.092 9.17911 117.973 9.08877 118.742 8.98371C119.51 8.88002 120.092 8.77131 120.488 8.65757C120.884 8.54384 121.233 8.43744 121.535 8.33838C121.838 8.24058 122.026 8.18838 122.1 8.18177C122.175 8.17643 122.248 8.18256 122.321 8.20017C122.392 8.21915 122.46 8.24863 122.523 8.28861C122.585 8.32871 122.639 8.3777 122.687 8.43559C122.732 8.49485 122.769 8.55877 122.795 8.62736C122.82 8.69732 122.834 8.76959 122.835 8.84419C122.837 8.91879 122.826 8.99131 122.803 9.06175C122.782 9.13333 122.749 9.19896 122.704 9.25862C122.661 9.31817 122.61 9.36965 122.549 9.41307C122.488 9.45522 122.421 9.48708 122.35 9.50866C122.279 9.53012 122.206 9.53975 122.131 9.53756C122.057 9.53525 121.985 9.52141 121.914 9.49604C121.845 9.46929 121.781 9.43251 121.724 9.38568C121.666 9.34011 121.618 9.28616 121.578 9.22383C121.538 9.1615 121.509 9.09376 121.491 9.02062C121.473 8.94873 121.467 8.87578 121.474 8.80177C121.48 8.72776 121.498 8.65645 121.529 8.58786C121.558 8.52063 121.598 8.45947 121.648 8.40439C121.697 8.3493 121.755 8.30366 121.82 8.26745C121.886 8.23124 121.955 8.20607 122.029 8.19192C122.101 8.17789 122.175 8.17643 122.249 8.18753C122.323 8.19749 122.392 8.21915 122.459 8.25251C122.525 8.28588 122.585 8.32871 122.638 8.38101C122.69 8.43468 122.732 8.49485 122.766 8.56151C122.799 8.62702 122.82 8.69674 122.829 8.77067C122.839 8.84448 122.837 8.91816 122.822 8.9917C122.808 9.06387 122.782 9.13265 122.745 9.19804C122.708 9.2608 122.662 9.31686 122.605 9.36622C122.55 9.41547 122.488 9.45454 122.42 9.48343C122.351 9.51357 122.317 9.52865 122.317 9.52865C122.317 9.52865 122.16 9.554 121.846 9.60472C121.532 9.65669 121.155 9.72751 120.716 9.81718C120.279 9.90674 119.666 10.0138 118.877 10.1383C118.088 10.2629 117.198 10.3756 116.206 10.4763C115.215 10.5771 114.294 10.6735 113.444 10.7655C112.594 10.8575 111.859 10.9424 111.239 11.0203C110.617 11.0984 110.103 11.1523 109.697 11.182C109.291 11.2105 109.059 11.2242 109 11.2231C108.942 11.2207 108.884 11.2112 108.828 11.1946C108.771 11.1795 108.717 11.1577 108.666 11.1292C108.615 11.0996 108.568 11.0645 108.525 11.0239C108.483 10.9847 108.446 10.9398 108.414 10.8894C108.382 10.8403 108.357 10.7881 108.338 10.7328C108.319 10.6775 108.307 10.6209 108.302 10.5631C108.297 10.5053 108.298 10.4475 108.307 10.3897C108.316 10.3319 108.332 10.276 108.355 10.2221C108.377 10.1669 108.405 10.1162 108.441 10.07C108.476 10.0226 108.516 9.97977 108.561 9.94158C108.606 9.90465 108.655 9.87367 108.709 9.84864C108.761 9.82246 108.816 9.80303 108.873 9.79034C108.93 9.77891 108.959 9.77319 108.959 9.77319Z" fill="#B3B3B3"/>
</g>
<defs>
<clipPath id="clip0_901_7968">
<rect width="123.757" height="25.462" fill="white" transform="translate(0 10.9536) rotate(-5.07782)"/>
</clipPath>
</defs>
</svg>
