<svg width="97" height="85" viewBox="0 0 97 85" fill="none" xmlns="http://www.w3.org/2000/svg">
<g clip-path="url(#clip0_901_4698)">
<path d="M27.6134 76.8855C27.6134 76.8855 27.3954 77.0193 26.9594 77.2868C26.5231 77.553 26.0945 77.7901 25.6735 77.9983C25.2523 78.205 24.8011 78.415 24.3199 78.6281C23.8387 78.8412 23.3171 79.0474 22.7552 79.2465C22.1933 79.4456 21.6064 79.6243 20.9946 79.7826C20.3813 79.9412 19.8289 80.0535 19.3372 80.1195C18.8469 80.1853 18.358 80.119 17.8705 79.9204C17.3843 79.7216 17.016 79.5132 16.7654 79.2953C16.5145 79.076 16.2142 78.8463 15.8644 78.6062C15.5159 78.366 15.1844 78.1205 14.8697 77.87C14.555 77.6195 14.3617 77.4758 14.2897 77.4389C14.2161 77.4009 14.1393 77.3727 14.0592 77.3543C13.9794 77.3373 13.8983 77.329 13.8159 77.3294C13.7337 77.3312 13.6533 77.3427 13.5745 77.3638C13.4955 77.3835 13.4198 77.4132 13.3472 77.4531C13.276 77.4927 13.2097 77.5399 13.1484 77.5948C13.0884 77.6494 13.0354 77.7113 12.9894 77.7805C12.9445 77.8481 12.9075 77.9199 12.8783 77.996C12.8508 78.0732 12.8329 78.1523 12.8245 78.2333C12.8163 78.3156 12.8173 78.397 12.8273 78.4775C12.839 78.5591 12.86 78.6376 12.8905 78.7131C12.921 78.7885 12.9599 78.8596 13.0073 78.9264C13.0547 78.9932 13.1096 79.0537 13.1718 79.1079C13.2338 79.1607 13.4939 79.1478 13.9521 79.0693C14.4117 78.9905 14.8878 78.9251 15.3806 78.873C15.8731 78.8196 16.3043 78.709 16.6741 78.5412C17.0437 78.372 17.3985 78.1437 17.7385 77.8563C18.0785 77.5689 18.3991 77.2758 18.7001 76.9769C19.0011 76.678 19.3163 76.327 19.6458 75.9237C19.9754 75.5219 20.2848 75.1059 20.5739 74.6757C20.863 74.2456 21.1284 73.8382 21.3701 73.4533C21.6117 73.0685 21.8242 72.7272 22.0073 72.4294C22.1921 72.1327 22.3535 71.8444 22.4916 71.5645C22.6293 71.2833 22.7619 70.9207 22.8892 70.4768C23.0164 70.0314 23.0994 69.6783 23.1384 69.4175C23.1774 69.1566 23.1939 68.965 23.1878 68.8427C23.1831 68.7201 23.1591 68.6009 23.1157 68.4852C23.0713 68.3711 23.01 68.2663 22.932 68.171C22.8541 68.077 22.7625 67.9975 22.6571 67.9325C22.5533 67.8687 22.4413 67.8226 22.3211 67.7943C22.2009 67.766 22.0799 67.7577 21.9583 67.7693C21.8353 67.7813 21.7177 67.8121 21.6057 67.8618C21.4922 67.9117 21.3904 67.9787 21.3001 68.0629C21.2095 68.1456 21.1347 68.2405 21.0754 68.3475C21.0165 68.4558 20.9764 68.5708 20.9554 68.6923C20.9326 68.8126 20.9307 68.9336 20.9494 69.0551C20.9681 69.1766 21.005 69.292 21.06 69.4014C21.1163 69.5106 21.189 69.6076 21.2781 69.6925C21.366 69.7791 21.4651 69.8487 21.5754 69.9015C21.6871 69.954 21.8041 69.9878 21.9262 70.003C22.0484 70.0182 22.1698 70.013 22.2903 69.9873C22.4112 69.963 22.5245 69.9202 22.6302 69.8588C22.737 69.7959 22.8306 69.7183 22.9109 69.626C22.9926 69.5334 23.0568 69.4305 23.1035 69.3173C23.1503 69.204 23.1777 69.0863 23.1859 68.9643C23.1952 68.8406 23.1844 68.7198 23.1535 68.6019C23.121 68.4828 23.0714 68.3718 23.0048 68.2687C22.937 68.1672 22.8544 68.0784 22.7569 68.002C22.6597 67.9271 22.5534 67.8693 22.4381 67.8288C22.3212 67.7872 22.2016 67.7659 22.0791 67.7649C21.9564 67.7626 21.8365 67.7803 21.7195 67.8181C21.6011 67.8562 21.4929 67.9116 21.3949 67.9843C21.2955 68.0573 21.2107 68.144 21.1403 68.2445C21.07 68.3449 21.0176 68.4542 20.9831 68.5724C20.9487 68.6906 20.9314 68.7497 20.9314 68.7497C20.9314 68.7497 20.9197 68.9277 20.8961 69.2837C20.874 69.6395 20.807 70.011 20.6952 70.3983C20.5822 70.7872 20.4507 71.1234 20.3005 71.4068C20.1503 71.6903 19.9617 72.0096 19.7347 72.3649C19.5077 72.7201 19.2603 73.0769 18.9926 73.4351C18.7262 73.7931 18.4338 74.1401 18.1152 74.4762C17.7966 74.8122 17.4943 75.1163 17.2085 75.3884C16.9223 75.6591 16.5954 75.9484 16.2278 76.2563C15.8601 76.5642 15.5066 76.756 15.1674 76.8319C14.8282 76.9077 14.4512 77.0194 14.0366 77.1668C13.6205 77.3145 13.577 77.4059 13.9061 77.4411C14.2338 77.4765 14.3617 77.4758 14.2897 77.4389C14.2161 77.4009 14.1393 77.3727 14.0592 77.3543C13.9794 77.3373 13.8983 77.329 13.8159 77.3294C13.7337 77.3312 13.6533 77.3427 13.5745 77.3638C13.4955 77.3835 13.4198 77.4132 13.3472 77.4531C13.276 77.4927 13.2097 77.5399 13.1484 77.5948C13.0884 77.6494 13.0353 77.7106 12.989 77.7784C12.9444 77.8474 12.9075 77.9199 12.8783 77.996C12.8508 78.0732 12.8329 78.1523 12.8245 78.2333C12.8163 78.3156 12.8173 78.397 12.8273 78.4775C12.839 78.5591 12.86 78.6376 12.8905 78.7131C12.921 78.7885 12.9599 78.8596 13.0073 78.9264C13.0547 78.9932 13.1094 79.053 13.1714 79.1058C13.2337 79.16 13.4432 79.2867 13.7999 79.4857C14.1578 79.6832 14.4963 79.8792 14.8152 80.0736C15.1342 80.2681 15.4767 80.4952 15.8429 80.755C16.209 81.0149 16.5854 81.2169 16.9723 81.361C17.3577 81.5053 17.7575 81.5825 18.1717 81.5927C18.5873 81.6026 19.06 81.5654 19.5897 81.4813C20.1194 81.3971 20.7129 81.2875 21.3701 81.1523C22.0256 81.016 22.6638 80.8615 23.2844 80.6889C23.9051 80.5162 24.4768 80.3281 24.9995 80.1246C25.5221 79.9198 26.0144 79.7054 26.4766 79.4814C26.9386 79.2561 27.3917 79.0167 27.8359 78.7633C28.2801 78.5099 28.5298 78.362 28.5848 78.3196C28.6412 78.277 28.6909 78.2284 28.7339 78.174C28.7782 78.1193 28.8152 78.0595 28.8449 77.9947C28.8735 77.9314 28.8945 77.8653 28.9078 77.7962C28.9214 77.7286 28.9262 77.6596 28.9223 77.5894C28.9197 77.5189 28.9083 77.4507 28.8881 77.3848C28.8676 77.3175 28.8392 77.2537 28.8029 77.1935C28.7682 77.1344 28.7258 77.0795 28.6755 77.0289C28.6269 76.9793 28.5723 76.9358 28.5116 76.8984C28.4525 76.8621 28.3898 76.8335 28.3236 76.8126C28.2557 76.7906 28.1871 76.7773 28.118 76.7725C28.0476 76.768 27.9779 76.7719 27.9089 76.7841C27.8411 76.7947 27.7749 76.8143 27.7103 76.8428C27.6457 76.8713 27.6134 76.8855 27.6134 76.8855Z" fill="#B3B3B3"/>
<path d="M23.134 68.8937C23.134 68.8937 23.1614 68.7073 23.216 68.3344C23.2704 67.9601 23.3537 67.5084 23.466 66.9792C23.5793 66.4483 23.7127 66.0104 23.8662 65.6654C24.0194 65.319 24.1997 64.9408 24.407 64.5309C24.616 64.1221 24.8333 63.7203 25.059 63.3255C25.285 62.9322 25.5159 62.5748 25.7517 62.2534C25.989 61.9318 26.2881 61.6461 26.649 61.3961C27.0113 61.1459 27.3877 60.911 27.7781 60.6912C28.1699 60.4713 28.5689 60.2954 28.975 60.1637C29.3822 60.0304 29.7358 59.9314 30.0358 59.8668C30.3341 59.8011 30.6879 59.7354 31.0972 59.6698C31.5063 59.6028 31.7559 59.7152 31.8462 60.007C31.9375 60.2972 32.1255 60.6072 32.4102 60.9368C32.6962 61.2662 32.9373 61.5426 33.1334 61.7659C33.3311 61.9904 33.4856 62.2758 33.5969 62.622C33.7068 62.9685 33.7923 63.2981 33.8536 63.6106C33.9131 63.9221 33.9698 64.2333 34.0237 64.5444C34.0761 64.8557 34.1381 65.2128 34.2097 65.6158C34.2796 66.0176 34.3193 66.4092 34.3287 66.7905C34.3384 67.1733 34.3503 67.5563 34.3643 67.9397C34.3784 68.3231 34.3553 68.7095 34.295 69.099C34.2334 69.4887 34.107 69.8098 33.9157 70.0622C33.7229 70.3135 33.4674 70.6043 33.1492 70.9346C32.831 71.265 32.5632 71.5629 32.3458 71.8285C32.1299 72.0938 31.869 72.4104 31.5631 72.7783C31.2584 73.1445 30.9951 73.4757 30.7733 73.7719C30.5514 74.068 30.3079 74.3383 30.0427 74.5826C29.7777 74.8282 29.4578 75.0531 29.0831 75.2573C28.7068 75.4603 28.4046 75.5807 28.1766 75.6183C27.9484 75.6546 27.7584 75.7018 27.6066 75.76C27.4546 75.8168 27.3151 75.8962 27.1882 75.9982C27.0629 76.1013 26.9569 76.2215 26.8704 76.3589C26.7839 76.4963 26.7219 76.6435 26.6843 76.8005C26.6468 76.9576 26.6353 77.1171 26.6499 77.2791C26.6642 77.4397 26.7037 77.5944 26.7685 77.7432C26.8334 77.8919 26.9205 78.0261 27.0299 78.1457C27.1393 78.2653 27.265 78.3643 27.4069 78.4427C27.5488 78.521 27.6999 78.575 27.8602 78.6047C28.0202 78.6331 28.1807 78.6358 28.3416 78.6129C28.5025 78.59 28.6553 78.5415 28.8 78.4676C28.945 78.395 29.074 78.3005 29.1869 78.184C29.3015 78.0686 29.3942 77.9379 29.465 77.792C29.5361 77.6474 29.5815 77.4947 29.6012 77.3337C29.6224 77.1725 29.6167 77.0124 29.5842 76.8537C29.5531 76.6946 29.4967 76.545 29.4149 76.4049C29.3345 76.2646 29.2336 76.1406 29.1121 76.0331C28.9909 75.927 28.855 75.8426 28.7045 75.7799C28.5554 75.717 28.3994 75.6795 28.2365 75.6673C28.0753 75.6562 27.9158 75.671 27.7581 75.7118C27.6015 75.751 27.455 75.8153 27.3188 75.9048C27.1823 75.9928 27.0641 76.1004 26.9644 76.2273C26.8632 76.3545 26.785 76.4947 26.7297 76.6478C26.6756 76.7992 26.6466 76.9562 26.6427 77.1186C26.6402 77.2808 26.6633 77.4391 26.7121 77.5936C26.7609 77.7481 26.8331 77.8906 26.9288 78.0211C27.0246 78.1516 27.1391 78.264 27.2724 78.358C27.4041 78.451 27.548 78.5205 27.7041 78.5665C27.8601 78.6126 28.0187 78.6326 28.1798 78.6267C28.3422 78.6206 28.4235 78.6175 28.4235 78.6175C28.4235 78.6175 28.7052 78.5263 29.2687 78.3439C29.8319 78.1602 30.257 77.9911 30.5438 77.8366C30.8304 77.6807 31.1662 77.4572 31.551 77.1661C31.9371 76.8734 32.2501 76.5823 32.4903 76.2928C32.7304 76.0033 32.9887 75.6681 33.2651 75.287C33.5428 74.9043 33.8507 74.5241 34.1889 74.1462C34.5257 73.7686 34.807 73.4789 35.0328 73.2771C35.257 73.0741 35.5223 72.8099 35.8285 72.4846C36.1348 72.1592 36.3714 71.8697 36.5382 71.6159C36.7064 71.3619 36.8542 71.0611 36.9816 70.7136C37.1104 70.3659 37.2023 70.0304 37.2572 69.7071C37.3135 69.3836 37.3538 69.0019 37.3781 68.562C37.4037 68.122 37.4154 67.7234 37.4132 67.3663C37.4107 67.0078 37.3947 66.6376 37.3652 66.2555C37.336 65.8748 37.2849 65.4831 37.212 65.0804C37.1406 64.6788 37.0661 64.275 36.9883 63.8689C36.9104 63.4628 36.8388 63.1074 36.7733 62.8027C36.7078 62.498 36.6182 62.1698 36.5046 61.8183C36.391 61.4668 36.2462 61.1521 36.0702 60.8741C35.8957 60.5958 35.7074 60.3285 35.5055 60.0721C35.3032 59.8144 35.0454 59.5154 34.7318 59.1753C34.4183 58.8352 34.1209 58.5022 33.8397 58.1762C33.5574 57.8518 33.3049 57.5831 33.0822 57.3701C32.8595 57.1572 32.5789 57.0063 32.2403 56.9175C31.9017 56.8286 31.5036 56.8213 31.0461 56.8955C30.5901 56.9708 30.1992 57.0473 29.8731 57.1251C29.5486 57.204 29.1663 57.3173 28.7261 57.465C28.287 57.6111 27.791 57.8013 27.2382 58.0357C26.684 58.2703 26.2671 58.4734 25.9876 58.6451C25.7069 58.8184 25.3844 59.0523 25.02 59.3468C24.6559 59.6427 24.3444 59.9584 24.0854 60.2938C23.828 60.6303 23.5531 61.0203 23.2607 61.4638C22.9697 61.907 22.7131 62.364 22.491 62.8347C22.2688 63.3054 22.0678 63.771 21.8879 64.2314C21.7077 64.6904 21.5618 65.1859 21.4501 65.7178C21.337 66.2501 21.2513 66.6724 21.193 66.9849C21.1345 67.2961 21.0767 67.639 21.0195 68.0138C20.9635 68.3869 20.9341 68.6177 20.9313 68.7061C20.9287 68.796 20.9372 68.8838 20.9568 68.9697C20.9752 69.0573 21.0042 69.1408 21.0439 69.2202C21.0836 69.2997 21.1324 69.3741 21.1902 69.4432C21.2477 69.511 21.3125 69.5712 21.3844 69.6237C21.4563 69.6762 21.5343 69.7191 21.6184 69.7523C21.7011 69.7859 21.7864 69.8097 21.8743 69.8239C21.9633 69.8365 22.0518 69.8385 22.1399 69.83C22.228 69.8214 22.3142 69.8025 22.3986 69.7734C22.483 69.7442 22.5627 69.7045 22.6377 69.6543C22.7129 69.6055 22.7811 69.5487 22.8421 69.4839C22.9031 69.4192 22.9551 69.3475 22.998 69.269C23.0426 69.1916 23.0764 69.1096 23.0995 69.0233C23.1225 68.9369 23.134 68.8937 23.134 68.8937Z" fill="#B3B3B3"/>
<path d="M36.916 64.0738C36.916 64.0738 37.1162 63.8914 37.5165 63.5266C37.9182 63.1613 38.3001 62.8186 38.6622 62.4985C39.0239 62.1772 39.3577 61.9041 39.6638 61.6792C39.9685 61.4548 40.2494 61.2502 40.5064 61.0652C40.7639 60.8816 41.145 60.618 41.6496 60.2742C42.1547 59.9318 42.6352 59.557 43.0911 59.1497C43.5483 58.7419 44.0379 58.3343 44.5598 57.9269C45.0818 57.5195 45.6479 57.0733 46.2583 56.5882C46.8669 56.1023 47.4854 55.5803 48.114 55.0223C48.742 54.4629 49.4465 53.8394 50.2275 53.1519C51.0072 52.4649 51.8481 51.7654 52.7502 51.0535C53.6542 50.3424 54.4794 49.6355 55.226 48.9328C55.973 48.2314 56.6644 47.5703 57.3001 46.9495C57.9345 46.3292 58.5022 45.713 59.0031 45.1009C59.5053 44.4883 59.9814 43.936 60.4315 43.4441C60.8828 42.9516 61.3299 42.4773 61.7728 42.021C62.2156 41.5648 62.653 41.0905 63.0848 40.5981C63.5153 40.1062 63.9746 39.5724 64.4627 38.9967C64.9494 38.4216 65.4637 37.7976 66.0056 37.1247C66.5456 36.4509 67.082 35.7891 67.6148 35.1392C68.1476 34.4893 68.6878 33.787 69.2355 33.0324C69.7831 32.2778 70.363 31.5482 70.9751 30.8436C71.586 30.1395 72.1975 29.4449 72.8097 28.7597C73.4201 28.0738 74.0089 27.3999 74.5761 26.7382C75.1438 26.0778 75.671 25.487 76.1578 24.9658C76.6463 24.4454 77.0665 23.9733 77.4183 23.5493C77.7701 23.1253 78.1221 22.7155 78.4744 22.3198C78.8267 21.9241 79.1229 21.6124 79.3632 21.3844C79.6048 21.156 79.887 20.8602 80.2099 20.4969C80.5319 20.1354 80.8522 19.7424 81.1707 19.3178C81.4892 18.8932 81.7957 18.54 82.0901 18.2582C82.3827 17.9755 82.6662 17.6694 82.9405 17.3399C83.2162 17.0098 83.3886 16.7947 83.4578 16.6945C83.527 16.5943 83.5787 16.4858 83.6129 16.3691C83.6471 16.2524 83.6618 16.1336 83.6568 16.0126C83.6513 15.8903 83.6265 15.7725 83.5824 15.6592C83.5384 15.5458 83.478 15.4425 83.4012 15.3493C83.3226 15.2553 83.2319 15.1765 83.1291 15.1129C83.0249 15.0498 82.9135 15.0045 82.7946 14.977C82.6753 14.9482 82.5557 14.9398 82.4357 14.9518C82.3139 14.963 82.1975 14.9938 82.0864 15.0443C81.9749 15.0934 81.8744 15.1593 81.7848 15.242C81.6953 15.3246 81.6216 15.419 81.5639 15.5254C81.5053 15.6335 81.4653 15.7471 81.4441 15.8663C81.4228 15.9854 81.4213 16.1052 81.4396 16.2255C81.4578 16.3459 81.4955 16.4602 81.5526 16.5685C81.6079 16.676 81.6791 16.7721 81.7661 16.8569C81.8531 16.9416 81.952 17.0105 82.0627 17.0636C82.1729 17.1153 82.288 17.1487 82.408 17.1638C82.5293 17.1783 82.6496 17.1729 82.769 17.1477C82.8888 17.1238 83.0013 17.081 83.1065 17.0193C83.2117 16.9576 83.3035 16.8809 83.3819 16.789C83.4622 16.698 83.5255 16.5963 83.5719 16.4839C83.6183 16.3715 83.6457 16.2545 83.654 16.1329C83.6623 16.0113 83.6511 15.8919 83.6206 15.7748C83.5883 15.6569 83.5389 15.5471 83.4723 15.4455C83.4045 15.3443 83.3231 15.2566 83.2282 15.1825C83.1315 15.1075 83.0256 15.0495 82.9106 15.0086C82.796 14.969 82.6776 14.9481 82.5551 14.9461C82.4332 14.9453 82.3141 14.9636 82.198 15.0011C82.0832 15.038 81.9769 15.0927 81.8788 15.1651C81.7808 15.2375 81.7318 15.2737 81.7318 15.2737C81.7318 15.2737 81.6553 15.3918 81.5023 15.6279C81.3501 15.8622 81.1475 16.1407 80.8946 16.4634C80.6429 16.7857 80.4191 17.0792 80.2231 17.3439C80.0259 17.6091 79.8187 17.9434 79.6015 18.3467C79.3849 18.7514 79.1717 19.1457 78.9621 19.5296C78.7524 19.9135 78.5502 20.2414 78.3555 20.5131C78.1594 20.7854 77.8872 21.1321 77.5389 21.5532C77.1913 21.9725 76.8614 22.391 76.5492 22.8087C76.2378 23.2245 75.8332 23.6981 75.3354 24.2296C74.8369 24.7628 74.3058 25.3573 73.7423 26.0131C73.1801 26.6685 72.5915 27.3407 71.9764 28.03C71.3626 28.7188 70.7396 29.4283 70.1074 30.1587C69.4761 30.8872 68.8921 31.6199 68.3556 32.3567C67.8208 33.0943 67.2858 33.7886 66.7504 34.4395C66.2155 35.0917 65.68 35.7502 65.144 36.4149C64.6084 37.0808 64.0982 37.698 63.6133 38.2665C63.129 38.8362 62.6767 39.359 62.2565 39.8349C61.8368 40.3121 61.4003 40.7809 60.947 41.2412C60.4941 41.7027 60.0333 42.1862 59.5644 42.6914C59.0956 43.1967 58.6231 43.7371 58.147 44.3126C57.6709 44.8881 57.1149 45.4803 56.4791 46.0891C55.8445 46.6975 55.1631 47.336 54.4349 48.0046C53.7066 48.6732 52.8773 49.3637 51.9468 50.0761C51.0176 50.788 50.1559 51.4783 49.3616 52.147C48.5654 52.8149 47.8545 53.4064 47.2287 53.9214C46.603 54.4364 45.9781 54.9151 45.3541 55.3575C44.7315 55.7994 44.1292 56.2086 43.5472 56.5853C42.9658 56.9632 42.4407 57.3141 41.9719 57.638C41.5017 57.9623 41.0122 58.3332 40.5031 58.7506C39.9923 59.1672 39.6219 59.4814 39.3919 59.6934C39.1632 59.9048 38.8938 60.1447 38.5837 60.4132C38.274 60.6829 37.9444 60.9784 37.5947 61.2996C37.2437 61.6213 36.8601 61.9557 36.4438 62.3027C36.0293 62.6505 35.7994 62.8489 35.7539 62.898C35.7102 62.9479 35.6721 63.0024 35.6395 63.0615C35.6082 63.12 35.5848 63.1816 35.5693 63.246C35.5525 63.311 35.5437 63.3773 35.543 63.445C35.5431 63.511 35.5508 63.577 35.5659 63.643C35.5819 63.7073 35.6051 63.7688 35.6354 63.8275C35.6657 63.8862 35.7027 63.9408 35.7464 63.9914C35.7914 64.0414 35.841 64.0859 35.8952 64.1249C35.9502 64.1621 36.0089 64.1933 36.0713 64.2187C36.1345 64.2422 36.1993 64.2583 36.2658 64.267C36.3318 64.2745 36.3981 64.275 36.4647 64.2687C36.5308 64.2611 36.5952 64.2452 36.6579 64.2209C36.7197 64.1985 36.7785 64.1682 36.8343 64.1302C36.8888 64.0926 36.916 64.0738 36.916 64.0738Z" fill="#B3B3B3"/>
<path d="M30.7134 58.7633C30.7134 58.7633 30.9193 58.53 31.3311 58.0633C31.742 57.5985 32.1882 57.0811 32.6694 56.5111C33.1506 55.9411 33.674 55.2881 34.2393 54.5521C34.8052 53.8175 35.4205 53.0127 36.0851 52.138C36.7502 51.2645 37.4721 50.3226 38.2507 49.3122C39.0279 48.3024 39.7966 47.3011 40.5565 46.3085C41.3147 45.315 42.1096 44.3119 42.9412 43.299C43.7724 42.2848 44.5606 41.2857 45.3059 40.3017C46.0494 39.3169 46.8125 38.3284 47.595 37.336C48.3776 36.3436 49.1499 35.3536 49.9119 34.3662C50.6752 33.3783 51.4114 32.4001 52.1207 31.4315C52.8318 30.4638 53.5239 29.4764 54.1972 28.4694C54.8696 27.4641 55.4717 26.5521 56.0034 25.7333C56.5332 24.9136 57.0398 24.1577 57.5231 23.4655C58.0064 22.7733 58.4814 22.1061 58.948 21.4638C59.4147 20.8215 59.8837 20.2143 60.3551 19.6421C60.8264 19.0699 61.3103 18.4525 61.8065 17.7897C62.3028 17.127 62.812 16.4997 63.3343 15.9078C63.8558 15.3178 64.3827 14.7106 64.9149 14.0864C65.4472 13.4622 65.9445 12.8718 66.4069 12.3151C66.8697 11.7597 67.2903 11.2866 67.6685 10.8959C68.0463 10.5039 68.3968 10.1831 68.7203 9.93347C69.0425 9.68437 69.336 9.46585 69.6008 9.27791C69.8651 9.08866 70.1644 8.88888 70.4986 8.67858C70.8336 8.46646 71.1876 8.26427 71.5603 8.07202C71.9331 7.87977 72.2942 7.65534 72.6434 7.39874C72.994 7.14163 73.3859 6.87679 73.819 6.60421C74.254 6.33242 74.6826 6.13881 75.1048 6.02337C75.5287 5.90873 75.9884 5.75632 76.4836 5.56613C76.9788 5.37595 77.4569 5.19389 77.9179 5.01995C78.3776 4.84652 78.7802 4.85258 79.1257 5.03814C79.4698 5.22421 79.7972 5.50819 80.1079 5.89008C80.4185 6.27198 80.7244 6.71494 81.0254 7.21896C81.327 7.72428 81.5757 8.11669 81.7714 8.39616C81.9679 8.67383 82.1511 8.99042 82.3208 9.34591C82.4887 9.70061 82.6402 10.0497 82.7752 10.3931C82.9103 10.7366 82.9692 11.0968 82.952 11.4736C82.9335 11.851 82.85 12.2678 82.7015 12.724C82.5529 13.1802 82.408 13.5818 82.2665 13.9289C82.1246 14.2746 81.9747 14.6114 81.8169 14.9393C81.659 15.2672 81.5087 15.5412 81.366 15.7613C81.2228 15.9802 81.1181 16.1608 81.0519 16.3034C80.9843 16.4464 80.942 16.5962 80.9247 16.7528C80.907 16.9081 80.9147 17.0632 80.948 17.2182C80.9807 17.3719 81.0376 17.5163 81.1186 17.6513C81.1983 17.7868 81.2985 17.9054 81.4191 18.0071C81.5389 18.1107 81.6719 18.1919 81.8179 18.2507C81.964 18.3096 82.1155 18.3439 82.2724 18.3536C82.4307 18.3628 82.5859 18.347 82.7382 18.306C82.89 18.2637 83.0316 18.1992 83.163 18.1123C83.2939 18.0242 83.4074 17.9181 83.5033 17.794C83.6 17.6681 83.6736 17.531 83.724 17.3826C83.7758 17.2336 83.8018 17.0804 83.8021 16.9229C83.8025 16.7654 83.7782 16.6121 83.7293 16.4632C83.6799 16.3129 83.6076 16.1753 83.5125 16.0502C83.4168 15.9239 83.3043 15.816 83.1749 15.7267C83.0443 15.6379 82.903 15.5719 82.7511 15.5288C82.5992 15.4856 82.4445 15.4683 82.2871 15.4768C82.1292 15.4839 81.9774 15.5165 81.8317 15.5743C81.6842 15.6314 81.55 15.7111 81.4291 15.8134C81.3089 15.9138 81.2076 16.0318 81.1251 16.1671C81.0433 16.3007 80.9851 16.4446 80.9505 16.5989C80.9154 16.7519 80.9065 16.9068 80.9238 17.0634C80.9399 17.2206 80.9802 17.3706 81.0448 17.5135C81.1111 17.6572 81.1981 17.7862 81.3056 17.9005C81.4136 18.016 81.5374 18.1105 81.677 18.1839C81.8159 18.259 81.963 18.3092 82.1185 18.3345C82.2732 18.3616 82.4291 18.3627 82.5861 18.3379C82.7419 18.3136 82.8896 18.2646 83.0292 18.1911C83.1688 18.1176 83.2933 18.0245 83.4026 17.9117C83.5115 17.7976 83.5659 17.7406 83.5659 17.7406C83.5659 17.7406 83.6691 17.5754 83.8756 17.2452C84.0834 16.9144 84.275 16.5495 84.4502 16.1504C84.6255 15.7513 84.7688 15.4036 84.8803 15.1071C84.9905 14.8111 85.097 14.4282 85.1996 13.9583C85.3023 13.4883 85.4128 13.0986 85.5312 12.7889C85.6483 12.4798 85.7052 12.1258 85.7018 11.7269C85.6984 11.328 85.661 10.9227 85.5896 10.5112C85.5195 10.0991 85.4041 9.70762 85.2434 9.33665C85.084 8.96517 84.8796 8.53989 84.6303 8.06081C84.3828 7.58252 84.1004 7.08999 83.7833 6.5832C83.4679 6.07721 83.2221 5.65525 83.0456 5.31733C82.8697 4.98071 82.6081 4.5896 82.2606 4.144C81.9137 3.6997 81.6172 3.34831 81.371 3.08984C81.1254 2.83268 80.8625 2.59492 80.5824 2.37658C80.3028 2.15954 79.893 2.03259 79.3531 1.99576C78.8118 1.95943 78.3937 2.00212 78.0986 2.12383C77.8027 2.24734 77.4258 2.39998 76.9678 2.58173C76.5112 2.76298 76.0344 2.95051 75.5376 3.14431C75.0413 3.33941 74.5594 3.54089 74.0921 3.74876C73.6248 3.95662 73.2508 4.17481 72.9702 4.40333C72.6888 4.63366 72.416 4.84345 72.1516 5.03269C71.886 5.22245 71.5889 5.47233 71.2604 5.78235C70.9319 6.09237 70.6439 6.35 70.3963 6.55526C70.1487 6.76051 69.8568 7.02939 69.5205 7.3619C69.1837 7.69311 68.8996 7.97843 68.6683 8.21785C68.4378 8.45546 68.1669 8.73196 67.8555 9.04735C67.5441 9.36274 67.1988 9.73019 66.8198 10.1497C66.4407 10.5692 66.0215 11.0553 65.562 11.6078C65.102 12.1591 64.608 12.7445 64.08 13.3641C63.5506 13.9842 63.0162 14.601 62.4768 15.2145C61.9374 15.828 61.4246 16.4596 60.9384 17.1095C60.4516 17.7581 59.9657 18.3778 59.4806 18.9688C58.9963 19.558 58.5183 20.1769 58.0467 20.8256C57.5763 21.4738 57.0959 22.1484 56.6055 22.8494C56.1143 23.5521 55.605 24.3106 55.0775 25.1248C54.5493 25.9408 53.953 26.8446 53.2888 27.8362C52.6245 28.8278 51.9393 29.8042 51.2333 30.7655C50.5285 31.7263 49.7953 32.6988 49.0336 33.6831C48.2727 34.6657 47.4982 35.6557 46.7101 36.6532C45.9221 37.6507 45.16 38.636 44.4239 39.6089C43.6873 40.5805 42.898 41.577 42.0561 42.5983C41.2143 43.6197 40.4128 44.6254 39.6518 45.6154C38.8917 46.6036 38.1198 47.6024 37.3363 48.6116C36.5523 49.6196 35.8258 50.5573 35.1568 51.4248C34.4879 52.2923 33.873 53.0826 33.3123 53.7958C32.7503 54.5094 32.2276 55.1427 31.7441 55.6955C31.2594 56.2489 30.8046 56.7517 30.3797 57.2039C29.9567 57.657 29.7296 57.9053 29.6984 57.9488C29.6686 57.9918 29.6436 58.0375 29.6233 58.0858C29.6048 58.1349 29.5922 58.1855 29.5854 58.2376C29.5787 58.2897 29.5779 58.3417 29.583 58.3937C29.5887 58.4469 29.6003 58.4979 29.6177 58.5466C29.6365 58.5948 29.6604 58.641 29.6896 58.6852C29.7188 58.7293 29.7528 58.7686 29.7917 58.803C29.8311 58.8387 29.8739 58.8694 29.9199 58.8951C29.9667 58.9189 30.0153 58.9376 30.0656 58.9511C30.1172 58.9641 30.1694 58.9709 30.2221 58.9714C30.2749 58.972 30.327 58.9668 30.3783 58.956C30.4291 58.9438 30.4777 58.9257 30.524 58.9018C30.5702 58.8779 30.6138 58.8491 30.6547 58.8152C30.6938 58.7806 30.7134 58.7633 30.7134 58.7633Z" fill="#B3B3B3"/>
</g>
<defs>
<clipPath id="clip0_901_4698">
<rect width="70.352" height="85.7624" fill="white" transform="matrix(-0.17487 -0.984591 -0.984591 0.17487 96.9474 69.268)"/>
</clipPath>
</defs>
</svg>
