<svg width="59" height="52" viewBox="0 0 59 52" fill="none" xmlns="http://www.w3.org/2000/svg">
<path d="M4.99489 46.2201C4.99489 46.2201 4.83584 46.3147 4.51774 46.504C4.19964 46.6944 4.08564 46.9589 4.17573 47.2974C4.26693 47.6359 4.47325 47.9344 4.79469 48.1927C5.11834 48.4511 5.44311 48.6788 5.769 48.8759C6.09377 49.0741 6.39685 49.2044 6.67825 49.2667C6.95853 49.3291 7.23714 49.3736 7.51409 49.4004C7.79103 49.4271 8.03517 49.3669 8.24649 49.22C8.4567 49.0741 8.45948 48.8798 8.25483 48.637C8.04907 48.3943 7.84219 48.2144 7.63421 48.0975C7.42622 47.9806 7.21879 47.8464 7.01191 47.695C6.80393 47.5424 6.51975 47.431 6.15939 47.3609C5.79792 47.2896 5.55489 47.2618 5.43032 47.2774C5.30464 47.293 5.20343 47.2879 5.12669 47.2623C5.04994 47.2367 4.97765 47.2022 4.9098 47.1588C4.84084 47.1153 4.77856 47.0647 4.72295 47.0068C4.66734 46.9478 4.61895 46.8837 4.5778 46.8147C4.53887 46.7445 4.50829 46.6705 4.48604 46.5925C4.4638 46.5146 4.45101 46.4355 4.44767 46.3553C4.44433 46.2741 4.45101 46.1939 4.46769 46.1148C4.48326 46.0358 4.50884 45.9595 4.54443 45.886C4.5778 45.8125 4.62007 45.7446 4.67123 45.6822C4.72239 45.6198 4.78023 45.5647 4.84474 45.5168C4.90924 45.469 4.97876 45.4289 5.05328 45.3966C5.1278 45.3654 5.20454 45.3437 5.28351 45.3314C5.36359 45.3181 5.44367 45.3147 5.52375 45.3214C5.60494 45.3281 5.3647 45.4829 4.80303 45.7858C4.24246 46.0898 3.93048 46.2028 3.86709 46.1248C3.80369 46.048 3.75419 45.9623 3.7186 45.8676C3.68412 45.7741 3.66522 45.6772 3.66188 45.577C3.65743 45.4779 3.66967 45.3804 3.69858 45.2847C3.7275 45.1878 3.77088 45.0987 3.82871 45.0174C3.88655 44.9361 3.95606 44.8654 4.03726 44.8053C4.11845 44.7463 4.20687 44.7017 4.30252 44.6717C4.39818 44.6416 4.4955 44.6277 4.59448 44.6299C4.69458 44.6321 4.7919 44.6505 4.88644 44.685C4.97987 44.7184 5.06607 44.7663 5.14504 44.8287C5.22289 44.891 5.28907 44.9645 5.34357 45.0492C5.39807 45.1327 5.43811 45.2229 5.46369 45.3197C5.48816 45.4177 5.4965 45.5157 5.48872 45.6137C5.48204 45.7139 5.45869 45.8103 5.41865 45.9027C5.37972 45.9951 5.32744 46.0792 5.26182 46.1549C5.19509 46.2295 5.11834 46.2919 5.03159 46.342C4.94484 46.3921 4.85252 46.4266 4.75464 46.4455C4.65566 46.4656 4.55722 46.4689 4.45935 46.4556C4.36036 46.4433 4.26582 46.4149 4.17573 46.3704C4.08564 46.327 4.005 46.2696 3.93382 46.1983C3.86264 46.1282 3.80425 46.0486 3.75864 45.9595C3.71304 45.8693 3.68357 45.7746 3.67022 45.6755C3.65576 45.5775 3.65743 45.479 3.67523 45.3799C3.69413 45.2819 3.72806 45.1889 3.777 45.1009C3.82482 45.0141 3.88599 44.9367 3.96051 44.8688C4.03503 44.8008 4.11789 44.7468 4.2091 44.7067C4.30141 44.6666 4.39706 44.6421 4.49605 44.6332C4.59504 44.6243 4.69347 44.6321 4.79135 44.6566C4.88811 44.68 4.97876 44.7184 5.06329 44.7719C5.14893 44.8253 5.1912 44.8521 5.19008 44.8521C5.19008 44.8521 5.19898 45.2596 5.21678 46.0747C5.23346 46.8921 5.20343 47.2879 5.12669 47.2623C5.04994 47.2367 4.97765 47.2022 4.9098 47.1588C4.84084 47.1153 4.77856 47.0647 4.72295 47.0068C4.66734 46.9489 4.61895 46.8848 4.5778 46.8147C4.53887 46.7445 4.50829 46.6705 4.48604 46.5925C4.4638 46.5146 4.45101 46.4355 4.44767 46.3553C4.44433 46.2741 4.45101 46.1939 4.46769 46.1148C4.48326 46.0358 4.50884 45.9595 4.54443 45.886C4.5778 45.8136 4.62007 45.7457 4.67123 45.6822C4.72239 45.6198 4.78023 45.5653 4.84474 45.5185C4.90924 45.4695 4.97876 45.4294 5.05328 45.3983C5.1278 45.366 5.20454 45.3437 5.28351 45.3314C5.36359 45.3181 5.44367 45.3147 5.52375 45.3214C5.60494 45.3281 5.53487 45.371 5.31354 45.45C5.09221 45.528 5.28129 45.5658 5.88078 45.5636C6.48138 45.5603 7.0286 45.6727 7.52243 45.901C8.01626 46.1293 8.39219 46.3158 8.65023 46.4606C8.90938 46.6053 9.16297 46.7779 9.41099 46.9784C9.66013 47.1788 9.87312 47.4372 10.05 47.7534C10.2279 48.0708 10.3241 48.3686 10.3386 48.647C10.3542 48.9254 10.3191 49.2049 10.2335 49.4855C10.1478 49.7662 10.0172 50.0267 9.84142 50.2673C9.66458 50.5089 9.42656 50.7071 9.12737 50.8619C8.8293 51.0156 8.5251 51.0879 8.21479 51.079C7.90448 51.069 7.58026 51.0428 7.24215 51.0005C6.90403 50.9593 6.52643 50.8886 6.10934 50.7884C5.69225 50.6882 5.29296 50.5462 4.91147 50.3625C4.5322 50.1776 4.17128 49.9705 3.82871 49.7411C3.48615 49.5117 3.21643 49.2651 3.01957 49.0011C2.82159 48.7383 2.66365 48.4744 2.54576 48.2094C2.42897 47.9455 2.40673 47.5318 2.47902 46.9684C2.55243 46.406 2.69146 46.0202 2.89611 45.8108C3.10076 45.6037 3.36213 45.3955 3.68023 45.1861C3.99833 44.9779 4.18574 44.8604 4.24246 44.8337C4.3003 44.807 4.36092 44.7875 4.42431 44.7752C4.4866 44.7619 4.54888 44.7568 4.61117 44.7602C4.67456 44.7635 4.73685 44.7741 4.79802 44.7919C4.85919 44.8097 4.91759 44.8348 4.9732 44.8671C5.0277 44.8994 5.07775 44.9378 5.12335 44.9823C5.16895 45.0269 5.20899 45.0759 5.24347 45.1293C5.27684 45.1839 5.30353 45.2412 5.32355 45.3014C5.34357 45.3626 5.35581 45.425 5.36025 45.4884C5.3647 45.5508 5.36192 45.6137 5.35191 45.6772C5.34079 45.7396 5.32299 45.8002 5.29853 45.8593C5.27294 45.9172 5.24069 45.9717 5.20176 46.023C5.16395 46.0742 5.12001 46.1198 5.06996 46.1599C5.01991 46.2 4.99489 46.2201 4.99489 46.2201Z" fill="#B3B3B3"/>
<path d="M13.6148 36.7932C13.6148 36.7932 13.4563 36.7731 13.1393 36.7331C12.8223 36.693 12.5548 36.7236 12.3368 36.8249C12.1199 36.9251 11.9431 37.1768 11.8063 37.5799C11.6695 37.9819 11.59 38.3293 11.5677 38.6222C11.5466 38.9162 11.5288 39.2257 11.5143 39.5509C11.4999 39.8761 11.5065 40.1906 11.5344 40.4946C11.5622 40.7997 11.615 41.1021 11.6928 41.4016C11.7696 41.7001 11.8741 41.9489 12.0065 42.1483C12.1389 42.3465 12.2868 42.5447 12.4503 42.7429C12.6149 42.94 12.804 43.1003 13.0175 43.2239C13.2311 43.3476 13.5386 43.5369 13.9401 43.7919C14.3427 44.0457 14.7582 44.2685 15.1864 44.46C15.6135 44.6504 16.0005 44.8007 16.3475 44.911C16.6934 45.0201 17.0043 45.1125 17.2801 45.1883C17.5549 45.2651 17.9541 45.3163 18.478 45.3419C19.0019 45.3675 19.385 45.3313 19.6275 45.2333C19.8688 45.1365 20.0829 45.0034 20.2698 44.8341C20.4567 44.6649 20.6218 44.4778 20.7653 44.2729C20.9088 44.0669 21.0228 43.8425 21.1073 43.5998C21.1907 43.357 21.2619 43.0452 21.3209 42.6644C21.3798 42.2836 21.4121 41.8559 21.4176 41.3816C21.4221 40.9061 21.3909 40.4345 21.3242 39.9668C21.2586 39.498 21.1518 39.0999 21.0039 38.7725C20.8571 38.4451 20.693 38.1372 20.5117 37.8488C20.3304 37.5604 20.148 37.3316 19.9645 37.1623C19.7799 36.9942 19.5291 36.8027 19.2121 36.5877C18.894 36.3728 18.6054 36.2353 18.3462 36.1752C18.0871 36.115 17.7951 36.0482 17.4703 35.9747C17.1467 35.9001 16.8486 35.8517 16.5761 35.8294C16.3036 35.8071 16.0289 35.7715 15.7519 35.7225C15.475 35.6746 15.1574 35.6473 14.7993 35.6407C14.4412 35.634 14.2871 35.5783 14.3372 35.4736C14.3883 35.369 14.4428 35.36 14.5007 35.4469C14.5596 35.5326 14.603 35.6256 14.6308 35.7258C14.6586 35.8261 14.6697 35.928 14.6642 36.0315C14.6586 36.1351 14.6369 36.2353 14.5991 36.3322C14.5602 36.4291 14.5073 36.517 14.4406 36.5961C14.3728 36.6763 14.2944 36.7431 14.2054 36.7965C14.1164 36.85 14.0213 36.8884 13.9201 36.9118C13.8178 36.934 13.7154 36.9396 13.6131 36.9285C13.5097 36.9173 13.4112 36.8901 13.3178 36.8466C13.2233 36.8021 13.1382 36.7442 13.0626 36.6729C12.9869 36.6017 12.9246 36.5198 12.8757 36.4274C12.8268 36.3361 12.794 36.2386 12.7773 36.1351C12.7595 36.0326 12.7589 35.9307 12.7756 35.8294C12.7923 35.7258 12.8251 35.6284 12.874 35.5371C12.923 35.4447 12.9853 35.3628 13.0609 35.2916C13.1365 35.2192 13.2211 35.1613 13.3145 35.1178C13.409 35.0744 13.508 35.0466 13.6114 35.0343C13.7138 35.0232 13.8161 35.0288 13.9184 35.051C14.0196 35.0733 14.1147 35.1112 14.2037 35.1646C14.2927 35.2192 14.3711 35.286 14.4389 35.3651C14.5068 35.4441 14.5596 35.5321 14.5974 35.629C14.6364 35.7258 14.6586 35.8261 14.6642 35.9296C14.6697 36.0321 14.6586 36.134 14.6308 36.2353C14.603 36.3355 14.5602 36.4285 14.5023 36.5142C14.4445 36.6011 14.3739 36.6757 14.2905 36.7381C14.2082 36.8015 14.1175 36.85 14.0185 36.8834C13.9206 36.9168 13.8194 36.9335 13.7149 36.9335C13.6114 36.9335 13.5108 36.9168 13.4129 36.8834C13.3139 36.85 13.2233 36.8021 13.141 36.7397C13.0576 36.6763 13.0158 36.6445 13.0158 36.6445C13.0158 36.6456 12.9163 36.4892 12.7172 36.1752C12.517 35.8623 12.5109 35.4603 12.6989 34.9692C12.8879 34.477 13.1109 34.1719 13.3679 34.0538C13.6248 33.9369 13.9479 33.8896 14.3372 33.9119C14.7265 33.9341 15.1569 33.9932 15.6285 34.0889C16.1012 34.1858 16.5027 34.256 16.833 34.2994C17.1633 34.3417 17.5009 34.4029 17.8457 34.4831C18.1916 34.5622 18.5536 34.6596 18.9318 34.7754C19.3111 34.8912 19.6169 35.0315 19.8494 35.1964C20.0818 35.3612 20.2759 35.5365 20.4316 35.7225C20.5885 35.9085 20.7731 36.1317 20.9855 36.3923C21.198 36.6518 21.3998 36.9541 21.5911 37.2993C21.7824 37.6434 21.9609 38.022 22.1267 38.4351C22.2924 38.8471 22.4292 39.3148 22.5371 39.8382C22.6461 40.3604 22.7206 40.8933 22.7606 41.4367C22.8018 41.9812 22.8001 42.5113 22.7556 43.0268C22.7123 43.5424 22.6122 43.9834 22.4553 44.3497C22.2974 44.7161 22.0994 45.044 21.8614 45.3336C21.6245 45.6231 21.3381 45.8909 21.0022 46.137C20.6674 46.382 20.2876 46.5685 19.8627 46.6966C19.4379 46.8246 19.0541 46.877 18.7116 46.8536C18.369 46.8302 18.0409 46.789 17.7272 46.73C17.4136 46.6709 17.1239 46.5902 16.858 46.4878C16.5911 46.3853 16.2741 46.2723 15.9071 46.1487C15.54 46.0262 15.1063 45.8809 14.6058 45.7127C14.1042 45.5446 13.6187 45.3519 13.1493 45.1348C12.6777 44.9188 12.2701 44.6944 11.9264 44.4617C11.5827 44.2278 11.3058 43.9767 11.0956 43.7083C10.8843 43.4411 10.6852 43.1404 10.4983 42.8064C10.3103 42.4734 10.1602 42.1121 10.0479 41.7223C9.93553 41.3315 9.85656 40.9467 9.81096 40.5681C9.76647 40.1884 9.74478 39.8248 9.74589 39.4774C9.74811 39.1311 9.75701 38.7825 9.77258 38.4318C9.78927 38.081 9.83264 37.7185 9.90271 37.3444C9.97279 36.9691 10.1012 36.6289 10.2881 36.3238C10.475 36.0198 10.6729 35.7938 10.882 35.6457C11.09 35.4965 11.3291 35.3673 11.5994 35.2582C11.8697 35.1479 12.1466 35.0856 12.4303 35.0711C12.715 35.0577 13.017 35.0711 13.3362 35.1112C13.6554 35.1501 13.8472 35.178 13.9117 35.1947C13.9751 35.2103 14.0358 35.2337 14.0936 35.2648C14.1514 35.2949 14.2048 35.3322 14.2538 35.3767C14.3027 35.4202 14.3461 35.4692 14.3839 35.5237C14.4206 35.5772 14.4506 35.6351 14.474 35.6974C14.4962 35.7587 14.5112 35.8222 14.519 35.8879C14.5268 35.9513 14.5268 36.0159 14.519 36.0816C14.5112 36.1462 14.4957 36.2097 14.4723 36.272C14.4478 36.3333 14.4173 36.3906 14.3805 36.4441C14.3427 36.4987 14.2994 36.5476 14.2504 36.5911C14.2004 36.6345 14.1464 36.6713 14.0886 36.7013C14.0308 36.7314 13.9696 36.7542 13.9051 36.7698C13.8417 36.7854 13.7777 36.7932 13.7132 36.7932C13.6476 36.7932 13.6148 36.7932 13.6148 36.7932Z" fill="#B3B3B3"/>
<path d="M24.0865 29.1192C24.0865 29.1192 24.0748 29.3369 24.0515 29.7723C24.0281 30.2088 24.0548 30.549 24.1316 30.7929C24.2083 31.0367 24.3468 31.3185 24.547 31.638C24.7472 31.9587 25.0147 32.2449 25.3495 32.4966C25.6831 32.7483 25.9573 32.9353 26.172 33.0578C26.3866 33.1803 26.6174 33.2811 26.8643 33.3601C27.1101 33.4392 27.3576 33.5177 27.6067 33.5957C27.8548 33.6747 28.1445 33.7248 28.4759 33.746C28.8074 33.7683 29.0849 33.6736 29.3084 33.462C29.5309 33.2505 29.745 32.952 29.9508 32.5667C30.1554 32.1815 30.2611 31.9376 30.2677 31.8351C30.2733 31.7327 30.2961 31.6464 30.3361 31.5762C30.3751 31.5061 30.4218 31.4415 30.4763 31.3825C30.5308 31.3246 30.592 31.2734 30.6598 31.2288C30.7265 31.1854 30.7983 31.1509 30.875 31.1252C30.9506 31.0985 31.0279 31.0813 31.1069 31.0735C31.187 31.0657 31.2671 31.0679 31.3472 31.0802C31.4261 31.0924 31.5029 31.1136 31.5774 31.1436C31.6508 31.1748 31.7198 31.2138 31.7843 31.2605C31.8499 31.3084 31.9083 31.363 31.9594 31.4242C32.0106 31.4855 32.054 31.5523 32.0896 31.6247C32.1252 31.6971 32.1513 31.7728 32.168 31.8518C32.1847 31.9298 32.1919 32.0089 32.1897 32.089C32.1874 32.1692 32.1758 32.2483 32.1546 32.3262C32.1335 32.403 32.1341 32.6241 32.1563 32.9893C32.1797 33.3535 32.3226 33.5155 32.5851 33.4754C32.8476 33.4353 33.1023 33.4242 33.3492 33.442C33.5961 33.4598 33.9003 33.3986 34.2618 33.2583C34.6232 33.118 34.8985 32.9576 35.0876 32.7772C35.2767 32.5957 35.4429 32.3886 35.5864 32.1558C35.7299 31.9231 35.8778 31.6598 36.0302 31.3658C36.1837 31.0729 36.2832 30.8079 36.3288 30.5707C36.3755 30.3335 36.4134 30.0501 36.4423 29.7205C36.4723 29.392 36.6614 29.0991 37.0095 28.8419C37.3576 28.5836 37.6563 28.4655 37.9054 28.4878C38.1534 28.5112 38.4576 28.6309 38.818 28.8469C39.1773 29.0618 39.5916 29.3018 40.0609 29.5668C40.5303 29.8319 41.048 30.0618 41.6141 30.2567C42.1803 30.4516 42.7469 30.6375 43.3142 30.8146C43.8814 30.9916 44.3747 31.1158 44.794 31.1871C45.2133 31.2594 45.5892 31.3034 45.9218 31.319C46.2544 31.3357 46.6181 31.2238 47.0129 30.9833C47.4066 30.7439 47.7253 30.5005 47.9689 30.2533C48.2124 30.0061 48.4171 29.73 48.5828 29.4249C48.7485 29.1197 48.9098 28.7985 49.0666 28.4611C49.2223 28.1248 49.3224 27.823 49.3669 27.5558C49.4114 27.2896 49.4431 27.0586 49.462 26.8626C49.4798 26.6655 49.4976 26.538 49.5154 26.4801C49.5332 26.421 49.5577 26.3648 49.5888 26.3114C49.62 26.259 49.6572 26.2111 49.7006 26.1677C49.7429 26.1232 49.7901 26.0848 49.8424 26.0525C49.8947 26.0202 49.9503 25.9946 50.0092 25.9756C50.0671 25.9567 50.1266 25.945 50.1878 25.9406C50.2489 25.9361 50.3096 25.9394 50.3696 25.9506C50.4308 25.9606 50.4892 25.9779 50.5448 26.0024C50.6015 26.0269 50.6538 26.058 50.7016 26.0959C50.7505 26.1326 50.7945 26.1755 50.8334 26.2245C50.8712 26.2724 50.9029 26.3242 50.9285 26.3799C50.9541 26.4355 50.973 26.4934 50.9852 26.5536C50.9964 26.6137 51.0002 26.6744 50.9969 26.7356C50.9947 26.7969 51.2127 26.8949 51.6509 27.0296C52.0891 27.1655 52.4456 27.2768 52.7203 27.3637C52.9961 27.4505 53.2508 27.5101 53.4844 27.5424C53.7191 27.5747 53.9571 27.5352 54.1985 27.4238C54.4387 27.3113 54.6823 27.1393 54.9292 26.9077C55.175 26.6761 55.4141 26.3709 55.6466 25.9923C55.879 25.6126 56.0692 25.2123 56.2172 24.7914C56.364 24.3693 56.4646 23.9751 56.5191 23.6088C56.5725 23.2424 56.5158 22.8805 56.349 22.5231C56.1821 22.1656 55.9697 21.8755 55.7117 21.6528C55.4547 21.429 55.2195 21.2403 55.0059 21.0866C54.7935 20.9318 54.6217 20.841 54.4904 20.8143C54.3592 20.7887 54.2724 20.7481 54.2302 20.6924C54.1879 20.6367 54.1529 20.5771 54.1251 20.5137C54.0972 20.4491 54.0772 20.3828 54.065 20.3149C54.0539 20.2458 54.0511 20.1763 54.0567 20.1061C54.0611 20.0371 54.0739 19.9691 54.095 19.9023C54.1173 19.8355 54.1467 19.7726 54.1834 19.7136C54.2202 19.6546 54.2635 19.6005 54.3136 19.5515C54.3636 19.5026 54.4187 19.4602 54.4787 19.4246C54.5388 19.389 54.6022 19.3617 54.6689 19.3428C54.7357 19.3227 54.8041 19.311 54.8741 19.3077C54.9442 19.3043 55.0132 19.3094 55.081 19.3227C55.15 19.3361 55.2161 19.3572 55.2795 19.3862C55.3429 19.4163 55.4013 19.453 55.4547 19.4964C55.5092 19.5399 55.3869 19.5543 55.0877 19.5399C54.7885 19.5254 54.5766 19.3021 54.452 18.8701C54.3286 18.4369 54.2552 18.0004 54.2318 17.5605C54.2096 17.1196 54.1456 16.6814 54.04 16.246C53.9343 15.8117 53.822 15.3518 53.703 14.8663C53.5828 14.3808 53.4394 13.9988 53.2725 13.7204C53.1057 13.442 52.9322 13.2188 52.752 13.0506C52.5729 12.8825 52.5062 12.6704 52.5518 12.4142C52.5974 12.1581 52.7882 12.029 53.124 12.0267C53.4599 12.0245 53.5028 11.8541 53.2525 11.5156C53.0011 11.1771 52.6942 10.8358 52.3316 10.4917C51.969 10.1476 51.5141 9.77067 50.9669 9.36088C50.4186 8.95221 49.8385 8.58028 49.2268 8.2451C48.614 7.90992 48.025 7.62931 47.46 7.40326C46.8939 7.17721 46.3628 7.01574 45.8668 6.91886C45.3707 6.82198 44.9175 6.75573 44.5071 6.72009C44.0966 6.68446 43.7446 6.66831 43.451 6.67165C43.1574 6.67611 42.8448 6.75795 42.5134 6.91719C42.1819 7.07754 41.9767 7.37208 41.8978 7.8008C41.8177 8.23063 41.7893 8.57694 41.8127 8.83974C41.8349 9.10365 41.8961 9.34473 41.9962 9.56299C42.0963 9.78125 42.1436 9.92211 42.138 9.98558C42.1336 10.0491 42.1219 10.1114 42.103 10.1727C42.0829 10.2328 42.0563 10.2901 42.0229 10.3447C41.9895 10.3982 41.95 10.4472 41.9044 10.4917C41.8588 10.5362 41.8082 10.5747 41.7526 10.6069C41.6981 10.6392 41.6403 10.6648 41.5791 10.6838C41.5179 10.7016 41.4557 10.7122 41.3923 10.7155C41.3289 10.7189 41.266 10.7144 41.2037 10.7022C41.1414 10.6899 41.0814 10.6704 41.0236 10.6437C40.9657 10.617 40.9118 10.5836 40.8617 10.5435C40.8128 10.5034 40.7689 10.4577 40.7299 10.4065C40.691 10.3564 40.6593 10.3024 40.6348 10.2445C40.6092 10.1855 40.5909 10.1248 40.5798 10.0624C40.5686 9.99895 40.4752 9.85307 40.2995 9.62479C40.1226 9.3954 39.8618 9.07247 39.517 8.656C39.1722 8.24065 38.8158 7.86649 38.4476 7.53354C38.0806 7.2017 37.7019 6.88267 37.3115 6.57644C36.9211 6.27022 36.5179 6.01744 36.1019 5.81812C35.686 5.61879 35.3156 5.48739 34.9908 5.42392C34.6649 5.35933 34.3557 5.32147 34.0632 5.31034C33.7696 5.2992 33.6706 5.45064 33.7663 5.76466C33.8619 6.07757 33.9103 6.30363 33.9114 6.44282C33.9114 6.58201 33.9036 6.68557 33.888 6.7535C33.8736 6.82143 33.8508 6.88657 33.8196 6.94893C33.7874 7.01129 33.749 7.06863 33.7045 7.12097C33.6589 7.17442 33.6083 7.22119 33.5527 7.26128C33.496 7.30137 33.4354 7.33477 33.3709 7.3615C33.3064 7.38711 33.2396 7.40437 33.1707 7.41328C33.1017 7.4233 33.0327 7.42442 32.9638 7.41662C32.8948 7.40994 32.8275 7.39491 32.7619 7.37152C32.6974 7.34814 32.6362 7.31696 32.5784 7.27798C32.5206 7.24012 32.4683 7.19558 32.4216 7.14436C32.3737 7.09313 32.3332 7.0369 32.2998 6.97565C32.2664 6.91441 32.2408 6.85038 32.223 6.78356C32.2052 6.71675 32.1958 6.64827 32.1947 6.57812C32.1936 6.50908 32.2453 6.59983 32.3498 6.85038C32.4544 7.10093 32.386 7.08144 32.1446 6.79192C31.9033 6.50239 31.6691 6.19672 31.4423 5.87491C31.2154 5.55309 30.9668 5.24909 30.6965 4.96291C30.4262 4.67561 30.1409 4.41448 29.8406 4.17952C29.5415 3.94457 29.2729 3.76751 29.0348 3.64836C28.7968 3.53032 28.5493 3.66451 28.2924 4.05091C28.0355 4.43842 27.8275 4.76971 27.6685 5.04475C27.5094 5.31869 27.2008 5.60153 26.7425 5.89328C26.2832 6.18503 25.8589 6.1945 25.4696 5.92168C25.0803 5.64774 24.7444 5.38105 24.4619 5.12159C24.1805 4.86102 23.9069 4.58374 23.6411 4.28977C23.3764 3.99468 23.0983 3.74301 22.8069 3.53478C22.5166 3.32654 22.2363 3.16397 21.9661 3.04704C21.6947 2.93123 21.3888 2.82266 21.0485 2.72133C20.7081 2.61888 20.3706 2.62612 20.0358 2.74304C19.7021 2.85885 19.3562 3.01363 18.9981 3.20739C18.6399 3.40226 18.2646 3.62832 17.8719 3.88555C17.4804 4.14278 17.0778 4.42284 16.6641 4.72572C16.2492 5.02861 15.8772 5.32147 15.5479 5.60431C15.2187 5.88716 14.9568 6.14828 14.7622 6.3877C14.5664 6.62711 14.3595 6.8437 14.1415 7.03746C13.9224 7.23233 13.5771 7.23734 13.1055 7.05249C12.6339 6.86875 12.2524 6.60707 11.961 6.26743C11.6696 5.92669 11.3287 5.59596 10.9383 5.27526C10.549 4.95456 10.1041 4.6667 9.60363 4.4117C9.10313 4.1567 8.60875 3.93065 8.12048 3.73355C7.6311 3.53756 7.2268 3.4095 6.90759 3.34937C6.58949 3.28924 6.25805 3.40839 5.91326 3.70682C5.56736 4.00414 5.26872 4.35658 5.01736 4.76414C4.76599 5.1717 4.50684 5.69173 4.23991 6.32422C3.97186 6.95672 3.78056 7.5547 3.666 8.11816C3.55144 8.68161 3.46858 9.18271 3.41742 9.62145C3.36625 10.0591 3.37348 10.4499 3.4391 10.794C3.50361 11.137 3.64487 11.4633 3.86286 11.7728C4.08197 12.0824 4.20209 12.2622 4.22323 12.3123C4.24436 12.3625 4.25993 12.4142 4.26994 12.4677C4.27884 12.5211 4.28106 12.5746 4.27661 12.628C4.27328 12.6826 4.26327 12.7355 4.24658 12.7867C4.2299 12.8379 4.2071 12.8869 4.17818 12.9337C4.14926 12.9794 4.11534 13.0211 4.07641 13.059C4.03748 13.0968 3.99466 13.1297 3.94795 13.1575C3.90124 13.1843 3.8523 13.2054 3.80113 13.221C3.74886 13.2366 3.69603 13.2455 3.64264 13.2477C3.58814 13.2511 3.5342 13.2472 3.48081 13.236C3.42743 13.226 3.37626 13.2099 3.32733 13.1876C3.27839 13.1642 3.23279 13.1353 3.19052 13.1007C3.14826 13.0673 3.111 13.0289 3.07874 12.9855C3.04538 12.9432 2.97809 13.1687 2.87687 13.662C2.77677 14.1553 2.68557 14.6503 2.60326 15.1469C2.52096 15.6435 2.4748 16.1947 2.46479 16.8005C2.45589 17.4063 2.52207 17.9603 2.66332 18.4625C2.80458 18.9647 2.96251 19.3984 3.13713 19.7637C3.31287 20.1278 3.50973 20.4051 3.72773 20.5955C3.94573 20.7859 4.16483 20.9635 4.38506 21.1283C4.60528 21.2931 4.73485 21.395 4.77378 21.434C4.81271 21.4741 4.84607 21.5175 4.87388 21.5643C4.90169 21.6122 4.92393 21.6628 4.94061 21.7163C4.95619 21.7686 4.96564 21.8226 4.96898 21.8783C4.9712 21.9329 4.96731 21.9874 4.9573 22.042C4.94617 22.0966 4.92949 22.1489 4.90725 22.199C4.88389 22.2491 4.85497 22.2959 4.82049 22.3393C4.78601 22.3828 4.74709 22.4212 4.70371 22.4546C4.65922 22.4891 4.61195 22.5175 4.5619 22.5398C4.51074 22.562 4.45791 22.5776 4.40341 22.5865C4.34891 22.5966 4.29441 22.5993 4.23991 22.5949C4.1843 22.5915 4.13036 22.5815 4.07808 22.5648C4.02581 22.547 3.97576 22.5236 3.92793 22.4947C3.88122 22.4657 3.70493 22.3655 3.39906 22.194C3.0932 22.0225 2.8246 21.8911 2.59325 21.7998C2.36191 21.7096 2.16393 21.669 1.99932 21.6779C1.83471 21.6868 1.71793 21.6823 1.64897 21.6645C1.58113 21.6456 1.51606 21.6189 1.45378 21.5843C1.3926 21.5509 1.33588 21.5097 1.2836 21.4607C1.23133 21.4129 1.18573 21.3594 1.1468 21.3004C1.10787 21.2414 1.07673 21.1784 1.05337 21.1116C1.03002 21.0448 1.01444 20.9763 1.00666 20.9062C0.999986 20.836 1.00165 20.7659 1.01166 20.6957C1.02167 20.6256 1.04003 20.5576 1.06672 20.4919C1.09341 20.4262 1.12734 20.3644 1.16849 20.3065C1.20964 20.2497 1.25747 20.1985 1.31197 20.1529C1.36535 20.1072 1.42375 20.0682 1.48714 20.0359C1.55054 20.0048 1.61672 19.9814 1.68568 19.9658C1.75463 19.9502 1.8247 19.943 1.89589 19.9441C1.96596 19.9463 2.12723 20.1668 2.37971 20.6055C2.63107 21.0454 2.90245 21.5326 3.19386 22.0671C3.48415 22.6005 3.77277 23.0136 4.05973 23.3064C4.34668 23.5982 4.68313 23.8905 5.06908 24.1834C5.45502 24.4751 5.85097 24.6995 6.25694 24.8565C6.66401 25.0135 7.11057 25.1494 7.59662 25.2641C8.08377 25.3788 8.58428 25.4628 9.09813 25.5163C9.61198 25.5686 10.1119 25.5881 10.598 25.5748C11.0829 25.5603 11.5406 25.5118 11.971 25.4294C12.4014 25.3459 12.7663 25.2557 13.0654 25.1588C13.3646 25.062 13.6132 24.95 13.8112 24.8231C14.0092 24.6973 14.1337 24.6288 14.1849 24.6177C14.235 24.6076 14.2856 24.6032 14.3367 24.6043C14.3879 24.6065 14.4379 24.6143 14.4869 24.6277C14.5358 24.6422 14.5825 24.6616 14.627 24.6861C14.6715 24.7117 14.7127 24.7424 14.7505 24.778C14.7872 24.8125 14.8194 24.8515 14.8472 24.8949C14.875 24.9384 14.8973 24.984 14.914 25.0319C14.9307 25.0809 14.9412 25.131 14.9457 25.1822C14.9501 25.2334 14.9485 25.2841 14.9407 25.3342C14.9329 25.3854 14.919 25.4344 14.899 25.4812C14.8789 25.5291 14.8539 25.5736 14.8239 25.6148C14.7939 25.656 14.7588 25.6928 14.7188 25.7251C14.6798 25.7585 14.637 25.7863 14.5903 25.8086C14.5447 25.8309 14.7115 25.8175 15.0908 25.7685C15.469 25.7206 15.791 25.7023 16.0568 25.7134C16.3226 25.7245 16.6607 25.7267 17.0711 25.7201C17.4827 25.7145 17.8781 25.8259 18.2573 26.0541C18.6377 26.2835 18.8396 26.6014 18.8629 27.0079C18.8863 27.4143 18.908 27.8186 18.928 28.2205C18.9491 28.6225 19.0832 28.9043 19.3301 29.0657C19.5781 29.2261 19.9068 29.3118 20.3161 29.323C20.7254 29.3341 21.0963 29.2478 21.4289 29.0641C21.7625 28.8781 22.0945 28.6754 22.4249 28.4561C22.7552 28.2367 22.912 28.1153 22.8953 28.0919C22.8786 28.0686 22.9148 28.0463 23.0038 28.0251C23.0916 28.0029 23.1806 27.9923 23.2707 27.9934C23.3619 27.9934 23.452 28.0045 23.541 28.0268C23.6288 28.0491 23.7134 28.0814 23.7946 28.1237C23.8746 28.166 23.9486 28.2178 24.0165 28.279C24.0843 28.3391 24.1444 28.4071 24.1966 28.4828C24.2478 28.5574 24.2895 28.6376 24.3218 28.7233C24.354 28.8091 24.3757 28.897 24.3868 28.9872C24.3968 29.0763 24.3963 29.1665 24.3852 29.2578C24.374 29.348 24.3523 29.4354 24.3201 29.5201C24.2878 29.6058 24.2456 29.686 24.1933 29.7606C24.141 29.8363 24.081 29.9042 24.0131 29.9644C23.9442 30.0245 23.8696 30.0757 23.7896 30.118C23.7084 30.1604 23.6055 30.1932 23.4809 30.2166C23.3563 30.2411 23.234 30.245 23.1139 30.2283C22.9926 30.2105 22.8775 30.1743 22.7685 30.1197C22.6584 30.0651 22.5605 29.9944 22.4749 29.9076C22.3893 29.8207 22.3192 29.7222 22.2647 29.6119C22.2113 29.5017 22.1763 29.3859 22.1596 29.2645C22.144 29.1442 22.1479 29.024 22.1713 28.9037C22.1957 28.7835 22.238 28.6704 22.2981 28.5646C22.3592 28.4577 22.4354 28.3636 22.5266 28.2824C22.6178 28.2011 22.7196 28.1365 22.8319 28.0886C22.9443 28.0407 23.0616 28.0123 23.184 28.0034C23.3052 27.9934 23.4248 28.0034 23.5426 28.0335C23.6617 28.0635 23.7723 28.112 23.8746 28.1788C23.9781 28.2456 24.0676 28.3269 24.1433 28.4227C24.22 28.5184 24.2789 28.6237 24.3201 28.7384C24.3624 28.853 24.3846 28.9716 24.3868 29.0941C24.3902 29.2155 24.3735 29.3347 24.3368 29.4516C24.3001 29.5685 24.2456 29.6765 24.1733 29.7756C24.1021 29.8747 24.0165 29.9599 23.9164 30.0312C23.8174 30.1025 23.7089 30.1559 23.591 30.1915C23.4742 30.2261 23.3552 30.2416 23.234 30.2383C23.1117 30.2339 22.9932 30.2105 22.8786 30.1682C22.7641 30.1258 22.6595 30.0657 22.565 29.9878C22.4693 29.9109 22.3893 29.8207 22.3248 29.7172C22.2591 29.6136 22.2119 29.5022 22.1829 29.3831C22.154 29.2639 22.1446 29.1442 22.1546 29.024C22.1657 28.9015 22.1957 28.7846 22.2447 28.6732C22.2925 28.5607 22.3576 28.4589 22.4399 28.3675C22.5222 28.2773 22.6167 28.2022 22.7235 28.142C22.8303 28.0819 22.8814 28.053 22.877 28.0552C22.8725 28.0563 22.9148 28.0463 23.0038 28.0251C23.0916 28.004 23.1806 27.9934 23.2707 27.9934C23.3619 27.9934 23.452 28.0045 23.541 28.0268C23.6288 28.0491 23.7134 28.0814 23.7946 28.1237C23.8746 28.166 23.9486 28.2172 24.0165 28.2773C24.0843 28.3386 24.1444 28.4071 24.1966 28.4828C24.2478 28.5574 24.2895 28.6376 24.3218 28.7233C24.354 28.8079 24.3757 28.8959 24.3868 28.9872C24.3968 29.0763 24.3963 29.166 24.3852 29.2562C24.374 29.3475 24.3523 29.4354 24.3201 29.5201C24.2878 29.6058 24.2456 29.686 24.1933 29.7606C24.141 29.8363 24.081 29.9042 24.0131 29.9644C23.9442 30.0245 23.8696 30.0757 23.7896 30.118C23.7084 30.1604 23.6233 30.201 23.5343 30.24C23.4453 30.2801 23.269 30.3892 23.0054 30.5674C22.7407 30.7455 22.4493 30.9031 22.1312 31.0401C21.812 31.177 21.4127 31.2639 20.9334 31.3006C20.454 31.3363 20.0814 31.3474 19.8156 31.334C19.5497 31.3207 19.2867 31.2873 19.0264 31.2338C18.7651 31.1793 18.5176 31.0813 18.284 30.9398C18.0493 30.7984 17.843 30.6108 17.6651 30.3769C17.4871 30.142 17.3397 29.8675 17.223 29.5535C17.1062 29.2417 17.0572 28.8196 17.0761 28.2874C17.0951 27.7562 16.9805 27.4839 16.7325 27.4706C16.4844 27.4572 16.2086 27.4405 15.905 27.4205C15.6013 27.4004 15.2704 27.3637 14.9123 27.3102C14.5531 27.2568 14.2327 27.1677 13.9513 27.043C13.6699 26.9194 13.4291 26.7406 13.2289 26.5068C13.0276 26.2729 12.9476 25.9639 12.9887 25.5798C13.0287 25.1956 13.2256 24.9417 13.5793 24.8181C13.9319 24.6956 14.1332 24.6288 14.1832 24.6177C14.2344 24.6076 14.2856 24.6032 14.3367 24.6043C14.3879 24.6065 14.4379 24.6143 14.4869 24.6277C14.5358 24.6422 14.5825 24.6616 14.627 24.6861C14.6715 24.7117 14.7127 24.7424 14.7505 24.778C14.7872 24.8125 14.8194 24.8515 14.8472 24.8949C14.875 24.9384 14.8973 24.984 14.914 25.0319C14.9307 25.0809 14.9412 25.131 14.9457 25.1822C14.9501 25.2334 14.9485 25.2841 14.9407 25.3342C14.9329 25.3854 14.919 25.4344 14.899 25.4812C14.8789 25.5291 14.8539 25.5736 14.8239 25.6148C14.7939 25.656 14.7588 25.6928 14.7188 25.7251C14.6798 25.7585 14.637 25.7863 14.5903 25.8086C14.5447 25.8309 14.5403 25.8298 14.577 25.8053C14.6137 25.7808 14.4897 25.8208 14.2049 25.9255C13.9202 26.0302 13.6149 26.1115 13.289 26.1694C12.9631 26.2273 12.5611 26.303 12.0828 26.3966C11.6045 26.4901 11.1013 26.5502 10.5729 26.5769C10.0457 26.6026 9.50242 26.5953 8.94297 26.5552C8.38241 26.514 7.83185 26.4411 7.29131 26.3364C6.75077 26.2317 6.22413 26.0931 5.71139 25.9205C5.19976 25.7479 4.7115 25.5141 4.24658 25.219C3.78167 24.9228 3.3479 24.6048 2.94527 24.2652C2.54154 23.9245 2.18785 23.5492 1.88421 23.1394C1.57946 22.7307 1.35534 22.3237 1.21186 21.9184C1.06839 21.5131 1.12233 21.3739 1.37369 21.5008C1.62617 21.6278 1.71793 21.6823 1.64897 21.6645C1.58113 21.6456 1.51606 21.6189 1.45378 21.5843C1.3926 21.5509 1.33588 21.5097 1.2836 21.4607C1.23133 21.4129 1.18573 21.3594 1.1468 21.3004C1.10787 21.2414 1.07673 21.1784 1.05337 21.1116C1.03002 21.0448 1.01444 20.9763 1.00666 20.9062C0.999986 20.836 1.00165 20.7659 1.01166 20.6957C1.02167 20.6256 1.04003 20.5576 1.06672 20.4919C1.09341 20.4262 1.12734 20.3644 1.16849 20.3065C1.20964 20.2497 1.25747 20.1985 1.31197 20.1529C1.36535 20.1072 1.42375 20.0682 1.48714 20.0359C1.55054 20.0048 1.61672 19.9814 1.68568 19.9658C1.75463 19.9502 1.8247 19.943 1.89589 19.9441C1.96596 19.9463 2.13891 19.9775 2.41474 20.0376C2.69057 20.0977 2.98921 20.2258 3.31064 20.4218C3.63208 20.6178 3.94628 20.8255 4.25326 21.0448C4.56134 21.2653 4.73485 21.395 4.77378 21.434C4.81271 21.4741 4.84607 21.5175 4.87388 21.5643C4.90169 21.6122 4.92393 21.6628 4.94061 21.7163C4.95619 21.7686 4.96564 21.8226 4.96898 21.8783C4.9712 21.9329 4.96731 21.9874 4.9573 22.042C4.94617 22.0966 4.92949 22.1489 4.90725 22.199C4.88389 22.2491 4.85497 22.2959 4.82049 22.3393C4.78601 22.3828 4.74709 22.4212 4.70371 22.4546C4.65922 22.4891 4.61195 22.5175 4.5619 22.5398C4.51074 22.562 4.45791 22.5776 4.40341 22.5865C4.34891 22.5966 4.29441 22.5993 4.23991 22.5949C4.1843 22.5915 4.13036 22.5815 4.07808 22.5648C4.02581 22.547 3.97576 22.5236 3.92793 22.4947C3.88122 22.4657 3.84118 22.4145 3.80781 22.341C3.77444 22.2675 3.666 22.1433 3.48248 21.9685C3.29896 21.7948 3.07652 21.5565 2.81514 21.2536C2.55488 20.9496 2.32409 20.5866 2.12278 20.1646C1.92147 19.7414 1.72905 19.2308 1.54553 18.6329C1.36202 18.0349 1.25802 17.3996 1.23355 16.727C1.20797 16.0556 1.23022 15.403 1.30029 14.7694C1.37036 14.1347 1.50383 13.589 1.70069 13.1325C1.89644 12.6759 2.12389 12.3313 2.38304 12.0985C2.6433 11.8669 2.9158 11.7378 3.20053 11.711C3.48637 11.6854 3.72272 11.7667 3.90958 11.9549C4.09754 12.1431 4.20209 12.2622 4.22323 12.3123C4.24436 12.3625 4.25993 12.4142 4.26994 12.4677C4.27884 12.5211 4.28106 12.5746 4.27661 12.628C4.27328 12.6826 4.26327 12.7355 4.24658 12.7867C4.2299 12.8379 4.2071 12.8869 4.17818 12.9337C4.14926 12.9794 4.11534 13.0211 4.07641 13.059C4.03748 13.0968 3.99466 13.1297 3.94795 13.1575C3.90235 13.1843 3.85341 13.2054 3.80113 13.221C3.74886 13.2366 3.69603 13.2455 3.64264 13.2477C3.58814 13.2511 3.5342 13.2472 3.48081 13.236C3.42743 13.226 3.37626 13.2099 3.32733 13.1876C3.27839 13.1642 3.23279 13.1358 3.19052 13.1024C3.14826 13.0679 3.111 13.0289 3.07874 12.9855C3.04538 12.9432 3.00589 12.8446 2.96029 12.6898C2.9158 12.5351 2.81904 12.2984 2.67 11.98C2.52096 11.6626 2.41919 11.2829 2.36469 10.8408C2.3113 10.3987 2.3063 9.9416 2.34968 9.46945C2.39305 8.99842 2.46868 8.44331 2.57657 7.80414C2.68446 7.16384 2.86631 6.49516 3.12212 5.79807C3.37904 5.10099 3.62318 4.51693 3.85452 4.0459C4.08587 3.57375 4.33334 3.16564 4.59694 2.82155C4.86053 2.47635 5.1436 2.24473 5.44612 2.12669C5.74865 2.00865 6.03449 1.97581 6.30365 2.02814C6.57281 2.07937 6.88424 2.15564 7.23792 2.25698C7.59161 2.35942 8.03372 2.50252 8.56426 2.68625C9.0959 2.8711 9.65591 3.09604 10.2443 3.36106C10.8326 3.6272 11.3699 3.9312 11.8559 4.27306C12.3419 4.61381 12.7418 4.9707 13.0554 5.34374C13.3691 5.71567 13.6488 5.7758 13.8946 5.52414C14.1415 5.27136 14.4324 4.98908 14.7672 4.67728C15.1019 4.36549 15.4684 4.03643 15.8666 3.69012C16.2648 3.3438 16.6618 3.00528 17.0578 2.67456C17.4537 2.34272 17.838 2.04986 18.2106 1.79597C18.5832 1.54208 18.9814 1.32494 19.4052 1.14454C19.83 0.963031 20.1909 0.886751 20.4879 0.915703C20.786 0.945769 21.1425 1.051 21.5573 1.2314C21.9733 1.41179 22.3514 1.58328 22.6918 1.74586C23.0321 1.90732 23.4008 2.11778 23.7979 2.37724C24.1961 2.63558 24.5108 2.88613 24.7422 3.12889C24.9724 3.37164 25.2444 3.68121 25.558 4.05759C25.8717 4.43509 26.1047 4.49911 26.257 4.24968C26.4105 3.99913 26.5757 3.69569 26.7525 3.33935C26.9305 2.9819 27.144 2.66788 27.3932 2.39729C27.6412 2.12669 28.0372 2.02257 28.581 2.08493C29.1238 2.14618 29.5359 2.26199 29.8173 2.43236C30.0987 2.60273 30.4201 2.81654 30.7816 3.07377C31.142 3.33211 31.4956 3.61662 31.8427 3.9273C32.1897 4.2391 32.525 4.62495 32.8487 5.08484C33.1723 5.54474 33.4304 5.92112 33.6228 6.21398C33.8152 6.50573 33.9036 6.68557 33.888 6.7535C33.8736 6.82143 33.8508 6.88657 33.8196 6.94893C33.7885 7.01129 33.7501 7.06863 33.7045 7.12097C33.6589 7.17442 33.6083 7.22119 33.5527 7.26128C33.496 7.30137 33.4354 7.33422 33.3709 7.35983C33.3064 7.38655 33.2396 7.40437 33.1707 7.41328C33.1017 7.4233 33.0327 7.42442 32.9638 7.41662C32.8948 7.40994 32.8281 7.39491 32.7636 7.37152C32.698 7.34814 32.6362 7.31696 32.5784 7.27798C32.5206 7.24012 32.4683 7.19558 32.4216 7.14436C32.3737 7.09313 32.3332 7.0369 32.2998 6.97565C32.2664 6.91441 32.2408 6.85038 32.223 6.78356C32.2052 6.71675 32.1958 6.64827 32.1947 6.57812C32.1936 6.50908 32.2036 6.40607 32.2247 6.2691C32.2458 6.13214 32.2792 5.92056 32.3248 5.63438C32.3704 5.3482 32.4839 5.04642 32.6651 4.72906C32.8453 4.41059 33.08 4.20012 33.3692 4.09768C33.6573 3.99412 33.9642 3.99022 34.2901 4.08599C34.616 4.18175 34.9675 4.28642 35.3445 4.40001C35.7227 4.51359 36.1564 4.67895 36.6458 4.89609C37.1352 5.11435 37.594 5.37325 38.0222 5.6728C38.4493 5.97346 38.8797 6.29527 39.3135 6.63825C39.7473 6.98122 40.1727 7.36428 40.5898 7.78743C41.0069 8.20947 41.3706 8.66547 41.6809 9.15543C41.9912 9.64539 42.1436 9.92211 42.138 9.98558C42.1336 10.0491 42.1219 10.1114 42.103 10.1727C42.0829 10.2328 42.0563 10.2901 42.0229 10.3447C41.9895 10.3982 41.95 10.4472 41.9044 10.4917C41.8588 10.5362 41.8082 10.5747 41.7526 10.6069C41.6981 10.6392 41.6403 10.6648 41.5791 10.6838C41.519 10.7016 41.4568 10.7122 41.3923 10.7155C41.3289 10.7189 41.266 10.7144 41.2037 10.7022C41.1414 10.6899 41.0814 10.6704 41.0236 10.6437C40.9657 10.617 40.9123 10.5836 40.8634 10.5435C40.8133 10.5034 40.7689 10.4583 40.7299 10.4082C40.691 10.357 40.6593 10.3024 40.6348 10.2445C40.6092 10.1855 40.5909 10.1248 40.5798 10.0624C40.5686 9.99895 40.5269 9.86198 40.4546 9.65152C40.3824 9.44106 40.3418 9.15098 40.3329 8.78128C40.3251 8.41046 40.364 7.99511 40.4496 7.53521C40.5353 7.07643 40.6882 6.70395 40.9084 6.41776C41.1287 6.13269 41.3978 5.91221 41.7159 5.75631C42.0351 5.60153 42.341 5.51579 42.6335 5.49908C42.9271 5.48238 43.2269 5.4924 43.5327 5.52915C43.8386 5.56701 44.2112 5.60765 44.6505 5.65108C45.0887 5.69451 45.5909 5.76132 46.157 5.85152C46.7232 5.94283 47.3171 6.09539 47.9388 6.30919C48.5606 6.52299 49.2135 6.79303 49.8975 7.1193C50.5804 7.44446 51.2355 7.80469 51.8628 8.2C52.489 8.5942 53.0662 9.00287 53.5945 9.42602C54.1239 9.84806 54.5227 10.2896 54.7907 10.7506C55.0599 11.2105 55.1961 11.6225 55.1995 11.9866C55.2028 12.3508 55.1122 12.6854 54.9275 12.9905C54.7429 13.2956 54.5032 13.5144 54.2085 13.6469C53.9148 13.7806 53.6101 13.8502 53.2942 13.8557C52.9795 13.8624 52.5707 13.7616 52.068 13.5534C51.5641 13.3463 51.2622 13.1163 51.1621 12.8636C51.062 12.6097 51.112 12.2828 51.3122 11.8831C51.5113 11.4833 51.8339 11.2985 52.2799 11.3285C52.7259 11.3575 53.039 11.4577 53.2191 11.6292C53.4004 11.8007 53.5967 12.0189 53.8081 12.284C54.0194 12.549 54.2207 12.8658 54.412 13.2344C54.6022 13.6018 54.7774 14.0217 54.9375 14.4938C55.0977 14.9659 55.2668 15.4542 55.4447 15.9587C55.6227 16.4642 55.7534 16.9458 55.8368 17.4035C55.9202 17.8623 55.9875 18.3188 56.0386 18.7732C56.0898 19.2286 56.0804 19.61 56.0103 19.9174C55.9402 20.2247 55.8112 20.4541 55.6232 20.6055C55.4353 20.7559 55.1667 20.8221 54.8174 20.8043C54.4682 20.7854 54.2724 20.7481 54.2302 20.6924C54.1879 20.6367 54.1529 20.5771 54.1251 20.5137C54.0972 20.4491 54.0778 20.3828 54.0667 20.3149C54.0544 20.2458 54.0511 20.1763 54.0567 20.1061C54.0611 20.0371 54.0739 19.9691 54.095 19.9023C54.1173 19.8355 54.1467 19.7726 54.1834 19.7136C54.2202 19.6546 54.2635 19.6005 54.3136 19.5515C54.3636 19.5026 54.4187 19.4602 54.4787 19.4246C54.5388 19.3901 54.6022 19.3628 54.6689 19.3428C54.7357 19.3227 54.8041 19.311 54.8741 19.3077C54.9442 19.3043 55.0132 19.3094 55.081 19.3227C55.15 19.3361 55.2161 19.3572 55.2795 19.3862C55.3429 19.4163 55.4013 19.453 55.4547 19.4964C55.5092 19.5399 55.5582 19.5827 55.6015 19.625C55.6438 19.6674 55.7806 19.7603 56.012 19.904C56.2433 20.0488 56.4591 20.2202 56.6593 20.4185C56.8595 20.6178 57.0252 20.8227 57.1564 21.0331C57.2888 21.2425 57.4078 21.4808 57.5135 21.748C57.618 22.0153 57.6892 22.3282 57.727 22.6868C57.7648 23.0442 57.7481 23.4378 57.677 23.8677C57.6058 24.2986 57.4968 24.7719 57.35 25.2875C57.2031 25.803 56.9929 26.3169 56.7193 26.8292C56.4468 27.3425 56.1193 27.7824 55.7367 28.1487C55.3552 28.514 54.9209 28.7818 54.4337 28.9522C53.9465 29.1203 53.525 29.1765 53.1691 29.1209C52.8143 29.0674 52.4556 28.9805 52.093 28.8603C51.7293 28.74 51.3829 28.5891 51.0536 28.4076C50.7244 28.2261 50.4475 28.0312 50.2228 27.823C49.997 27.6148 49.8185 27.3537 49.6873 27.0396C49.5549 26.7245 49.4976 26.538 49.5154 26.4801C49.5332 26.421 49.5577 26.3648 49.5888 26.3114C49.62 26.259 49.6572 26.2111 49.7006 26.1677C49.7429 26.1232 49.7901 26.0848 49.8424 26.0525C49.8947 26.0202 49.9497 25.9946 50.0076 25.9756C50.0665 25.9567 50.1266 25.945 50.1878 25.9406C50.2489 25.9361 50.3096 25.9394 50.3696 25.9506C50.4308 25.9606 50.4892 25.9779 50.5448 26.0024C50.6015 26.0269 50.6538 26.058 50.7016 26.0959C50.7505 26.1326 50.7939 26.175 50.8317 26.2228C50.8707 26.2718 50.9029 26.3242 50.9285 26.3799C50.9541 26.4355 50.973 26.4934 50.9852 26.5536C50.9964 26.6137 51.0002 26.6744 50.9969 26.7356C50.9947 26.7969 50.9608 26.9333 50.8951 27.1449C50.8295 27.3564 50.7494 27.6376 50.6549 27.9884C50.5604 28.3391 50.4286 28.6977 50.2595 29.0641C50.0893 29.4282 49.8908 29.8152 49.6639 30.2249C49.4359 30.6347 49.1684 30.9955 48.8614 31.3073C48.5545 31.6191 48.228 31.8814 47.8821 32.094C47.5362 32.3067 47.1931 32.4426 46.8527 32.5016C46.5124 32.5606 46.1598 32.5701 45.795 32.53C45.4313 32.4888 45.0142 32.4376 44.5438 32.3763C44.0744 32.3162 43.545 32.2176 42.9555 32.0807C42.366 31.9448 41.7426 31.7939 41.0853 31.628C40.4291 31.4621 39.834 31.2739 39.3002 31.0634C38.7663 30.8541 38.3275 30.6286 37.9838 30.387C37.6402 30.1453 37.5973 29.9493 37.8554 29.799C38.1134 29.6487 38.2174 29.7433 38.1673 30.083C38.1162 30.4226 38.0472 30.7717 37.9605 31.1303C37.8737 31.4888 37.7508 31.8474 37.5918 32.206C37.4316 32.5645 37.2431 32.9259 37.0262 33.29C36.8093 33.6541 36.5585 33.9793 36.2738 34.2655C35.9902 34.5505 35.6504 34.8078 35.2544 35.0372C34.8585 35.2666 34.4875 35.4046 34.1416 35.4514C33.7957 35.4971 33.4737 35.5154 33.1757 35.5065C32.8776 35.4965 32.5422 35.4631 32.1697 35.4063C31.7982 35.3506 31.4901 35.2565 31.2454 35.124C31.0018 34.9926 30.7888 34.8195 30.6064 34.6045C30.4251 34.3896 30.3017 34.1625 30.236 33.923C30.1693 33.6847 30.1421 33.3835 30.1543 33.0194C30.1654 32.6553 30.1882 32.3412 30.2227 32.0773C30.2583 31.8134 30.2961 31.6464 30.3361 31.5762C30.3751 31.5061 30.4218 31.4415 30.4763 31.3825C30.5308 31.3246 30.592 31.2739 30.6598 31.2305C30.7265 31.1859 30.7977 31.1509 30.8733 31.1252C30.9501 31.0985 31.0279 31.0813 31.1069 31.0735C31.187 31.0657 31.2671 31.0679 31.3472 31.0802C31.4261 31.0924 31.5029 31.1136 31.5774 31.1436C31.6508 31.1748 31.7198 31.2138 31.7843 31.2605C31.8499 31.3084 31.9083 31.363 31.9594 31.4242C32.0106 31.4855 32.054 31.5523 32.0896 31.6247C32.1252 31.6971 32.1513 31.7722 32.168 31.8502C32.1847 31.9292 32.1919 32.0089 32.1897 32.089C32.1874 32.1692 32.1758 32.2483 32.1546 32.3262C32.1335 32.403 32.0968 32.3129 32.0445 32.0556C31.9911 31.7984 31.9022 31.9821 31.7776 32.6068C31.653 33.2315 31.524 33.6686 31.3905 33.918C31.256 34.1686 31.0697 34.4331 30.8316 34.7114C30.5936 34.9898 30.3395 35.1942 30.0692 35.3245C29.7989 35.4559 29.4263 35.5255 28.9514 35.5332C28.4765 35.541 28.1039 35.5182 27.8336 35.4648C27.5622 35.4113 27.3031 35.3412 27.0562 35.2543C26.8093 35.1674 26.5067 35.0622 26.1486 34.9386C25.7893 34.815 25.474 34.6708 25.2026 34.506C24.9313 34.3401 24.6888 34.1708 24.4752 33.9982C24.2628 33.8256 24.0493 33.6319 23.8346 33.4169C23.6199 33.202 23.4236 32.9548 23.2457 32.6753C23.0666 32.3947 22.9426 32.1364 22.8736 31.9003C22.8036 31.6631 22.7274 31.3602 22.6451 30.9916C22.5628 30.6242 22.5099 30.2199 22.4866 29.779C22.4632 29.3391 22.4554 29.0869 22.4632 29.0223C22.471 28.9566 22.4866 28.8931 22.5099 28.8319C22.5333 28.7695 22.5633 28.7116 22.6 28.6582C22.6378 28.6036 22.6812 28.5546 22.7302 28.5112C22.7802 28.4678 22.8342 28.4305 22.892 28.3993C22.9498 28.3692 23.011 28.3458 23.0755 28.3291C23.1389 28.3135 23.2034 28.3057 23.269 28.3057C23.3347 28.3057 23.3992 28.3135 23.4626 28.3291C23.5271 28.3458 23.5882 28.3692 23.6461 28.3993C23.7039 28.4305 23.7579 28.4678 23.8079 28.5112C23.8569 28.5546 23.9002 28.6036 23.938 28.6582C23.9747 28.7116 24.0048 28.7695 24.0281 28.8319C24.0515 28.8931 24.0671 28.9566 24.0748 29.0223C24.0826 29.0869 24.0865 29.1192 24.0865 29.1192Z" fill="#B3B3B3"/>
</svg>
