<svg width="118" height="52" viewBox="0 0 118 52" fill="none" xmlns="http://www.w3.org/2000/svg">
<g clip-path="url(#clip0_901_5270)">
<path d="M16.5731 10.4197C16.5731 10.4197 16.3323 10.4181 15.8506 10.4148C15.3674 10.4113 14.9402 10.4663 14.5691 10.5795C14.1962 10.6943 13.7887 10.8163 13.3467 10.9454C12.9047 11.0746 12.5126 11.2247 12.1703 11.3959C11.828 11.567 11.3593 11.9251 10.7642 12.4702C10.1674 13.0169 9.67883 13.4581 9.29864 13.7938C8.91667 14.131 8.54267 14.476 8.17663 14.8286C7.809 15.1811 7.50578 15.5324 7.26698 15.8824C7.02837 16.2307 6.82723 16.6029 6.66356 16.9989C6.49971 17.3966 6.33312 17.8469 6.16381 18.3497C5.99272 18.8541 5.90019 19.3528 5.88622 19.8459C5.87226 20.339 5.90186 20.8661 5.97503 21.427C6.04839 21.9863 6.17565 22.5022 6.35683 22.9747C6.53801 23.4473 6.74787 23.8864 6.98641 24.292C7.22496 24.6977 7.46195 25.0673 7.69738 25.401C7.93142 25.7328 8.33957 26.1022 8.92181 26.5092C9.50228 26.9177 10.0208 27.2415 10.4774 27.4808C10.9324 27.7199 11.3893 27.9285 11.848 28.1065C12.3065 28.2863 12.7193 28.4148 13.0866 28.4922C13.4522 28.5693 13.8932 28.6345 14.4093 28.6878C14.9287 28.7413 15.3124 28.7796 15.5605 28.8025C15.8101 28.8256 15.9993 28.8581 16.1279 28.8999C16.2565 28.9418 16.3748 29.0046 16.4826 29.0884C16.5906 29.1706 16.683 29.2697 16.7599 29.3859C16.8369 29.5004 16.8942 29.6262 16.9317 29.7635C16.971 29.8993 16.9874 30.0385 16.9809 30.1811C16.976 30.3238 16.95 30.4616 16.9028 30.5944C16.8539 30.7288 16.787 30.8517 16.7021 30.9632C16.6174 31.0731 16.5176 31.1667 16.4028 31.2441C16.2896 31.3217 16.1676 31.3779 16.0367 31.4126C15.9058 31.4472 15.7736 31.4587 15.6399 31.447C15.5047 31.4352 15.376 31.401 15.2539 31.3445C15.1315 31.2898 15.0204 31.2141 14.9204 31.1175C14.8218 31.0228 14.7402 30.9138 14.6754 30.7904C14.6106 30.6671 14.5669 30.5351 14.5442 30.3943C14.5198 30.2551 14.5171 30.1149 14.5363 29.9738C14.5571 29.8329 14.598 29.6985 14.659 29.5706C14.7201 29.4427 14.7981 29.3279 14.8932 29.2261C14.9896 29.1261 15.0985 29.0446 15.2197 28.9815C15.3411 28.9168 15.4687 28.8749 15.6026 28.8559C15.735 28.8368 15.8671 28.8406 15.999 28.8675C16.131 28.8943 16.2549 28.9424 16.3707 29.0118C16.4866 29.0812 16.5892 29.1687 16.6785 29.2743C16.766 29.3815 16.8361 29.5003 16.8889 29.6308C16.94 29.7611 16.9704 29.8976 16.9799 30.0402C16.9897 30.1812 16.9771 30.3214 16.9421 30.4607C16.9088 30.5985 16.8549 30.7272 16.7803 30.8467C16.7072 30.9681 16.6174 31.0731 16.5109 31.1617C16.4061 31.2505 16.2906 31.3201 16.1644 31.3707C16.0367 31.4194 15.906 31.4456 15.7723 31.4492C15.6367 31.4543 15.5697 31.457 15.5713 31.4572C15.5713 31.4572 15.3234 31.4044 14.8276 31.2989C14.3348 31.1954 13.922 31.1019 13.5892 31.0182C13.2578 30.9364 12.8743 30.8325 12.4386 30.7065C12.0029 30.5805 11.5224 30.4178 10.997 30.2186C10.473 30.0212 9.94595 29.7944 9.41574 29.5383C8.88712 29.2824 8.39654 29.0026 7.944 28.699C7.48988 28.3952 7.10344 28.0683 6.78469 27.7184C6.46593 27.3685 6.18899 26.9969 5.95387 26.6036C5.71875 26.2102 5.46444 25.7593 5.19092 25.2507C4.919 24.7424 4.66913 24.181 4.44131 23.5668C4.21527 22.951 4.04285 22.2944 3.92405 21.5969C3.80685 20.8996 3.75957 20.1949 3.78223 19.4827C3.80629 18.7724 3.9076 18.1177 4.08618 17.5187C4.26654 16.9181 4.47834 16.345 4.72159 15.7994C4.96642 15.2539 5.25447 14.7525 5.58574 14.2952C5.9184 13.8399 6.27974 13.415 6.66977 13.0207C7.05802 12.6279 7.43187 12.2701 7.79131 11.9474C8.15056 11.6264 8.52485 11.2789 8.91418 10.905C9.30332 10.5327 9.70649 10.1928 10.1237 9.88514C10.5391 9.57899 10.9759 9.32557 11.434 9.12489C11.8919 8.92589 12.3488 8.76431 12.8047 8.64014C13.2592 8.51411 13.7641 8.38353 14.3192 8.2484C14.8744 8.11328 15.3967 8.0478 15.8863 8.05197C16.3745 8.05427 16.6621 8.06204 16.7489 8.07527C16.8376 8.087 16.9242 8.10958 17.0088 8.14303C17.0916 8.17797 17.1693 8.22258 17.2419 8.27685C17.3145 8.33111 17.3797 8.39392 17.4375 8.46528C17.4954 8.53663 17.5444 8.61467 17.5846 8.6994C17.6248 8.78412 17.655 8.87282 17.675 8.96549C17.6951 9.05817 17.7038 9.15212 17.701 9.24734C17.7003 9.33937 17.6882 9.43182 17.6649 9.52471C17.6417 9.61591 17.6085 9.70342 17.5653 9.78724C17.5221 9.87106 17.4699 9.94875 17.4088 10.0203C17.3479 10.0902 17.2798 10.1524 17.2045 10.207C17.131 10.2601 17.0514 10.3032 16.9658 10.3361C16.8817 10.3693 16.7949 10.391 16.7053 10.4014C16.6172 10.4136 16.5731 10.4197 16.5731 10.4197Z" fill="#B3B3B3"/>
<path d="M25.8576 10.2126C25.8576 10.2126 25.7833 10.5505 25.6346 11.2262C25.4857 11.9037 25.3575 12.5613 25.2501 13.1991C25.1426 13.8369 25.0599 14.4194 25.0019 14.9468C24.9425 15.4723 24.9134 15.9433 24.9145 16.3596C24.9141 16.7758 24.909 17.1761 24.8993 17.5605C24.8878 17.9464 24.8717 18.331 24.8508 18.7142C24.8282 19.0988 24.7829 19.4997 24.7149 19.9168C24.6485 20.334 24.5788 20.8865 24.5058 21.5742C24.4312 22.2635 24.362 22.9534 24.2984 23.6439C24.2348 24.3344 24.1859 24.8593 24.1517 25.2188C24.1159 25.5781 24.0796 25.9425 24.0426 26.3119C24.0057 26.6813 23.9777 27.0713 23.9586 27.482C23.9411 27.8928 23.9912 28.4443 24.109 29.1366C24.2252 29.8286 24.388 30.4211 24.5974 30.9138C24.8068 31.4066 24.9704 31.4302 25.0883 30.9847C25.2077 30.5393 25.3969 30.159 25.6559 29.8437C25.9151 29.5267 26.2118 29.0834 26.5461 28.5139C26.879 27.9426 27.1243 27.4713 27.282 27.1002C27.4412 26.7293 27.5621 26.47 27.6446 26.3224C27.7272 26.1748 27.8295 26.0448 27.9514 25.9324C28.0734 25.8199 28.2088 25.7312 28.3575 25.6661C28.5079 25.6012 28.6633 25.5625 28.8238 25.5499C28.9843 25.5373 29.1416 25.5526 29.2958 25.5956C29.45 25.6386 29.5941 25.7069 29.7282 25.8005C29.8606 25.894 29.9755 26.0076 30.0728 26.1414C30.1702 26.2753 30.2451 26.4228 30.2976 26.5839C30.3485 26.7449 30.3739 26.9107 30.3739 27.0813C30.3757 27.2504 30.3505 27.4164 30.2983 27.5794C30.248 27.7408 30.174 27.8903 30.0765 28.0277C29.9807 28.1652 29.8661 28.2828 29.733 28.3803C29.5999 28.4779 29.4558 28.5511 29.3008 28.6001C29.1461 28.6475 28.9887 28.6681 28.8287 28.6619C28.6689 28.6541 28.5136 28.6203 28.3629 28.5607C28.214 28.4995 28.0781 28.415 27.9553 28.3073C27.8325 28.1996 27.7296 28.0728 27.6464 27.927C27.5647 27.783 27.5059 27.6279 27.47 27.4618C27.4358 27.2959 27.4274 27.1286 27.4448 26.96C27.4609 26.7895 27.5025 26.6271 27.5698 26.4726C27.6373 26.3165 27.7263 26.1756 27.8369 26.0499C27.9475 25.9242 28.0733 25.8207 28.2143 25.7394C28.357 25.6566 28.5072 25.6003 28.6648 25.5703C28.824 25.5406 28.9826 25.538 29.1405 25.5627C29.2983 25.5873 29.4484 25.6384 29.5907 25.7159C29.733 25.7934 29.8599 25.8931 29.9715 26.0148C30.0814 26.1364 30.1703 26.2744 30.238 26.4288C30.3059 26.5815 30.3488 26.7424 30.3666 26.9116C30.3844 27.0808 30.3759 27.2487 30.341 27.4153C30.3077 27.5821 30.291 27.6655 30.291 27.6655C30.291 27.6655 30.2172 27.8423 30.0696 28.1958C29.9206 28.5474 29.7028 28.9535 29.4161 29.4141C29.1295 29.8747 28.8674 30.3099 28.6298 30.7197C28.3925 31.1279 28.1512 31.4929 27.9059 31.8149C27.6606 32.1369 27.2657 32.5742 26.7213 33.1267C26.1783 33.6794 25.5619 34.0089 24.8718 34.1152C24.1815 34.2231 23.6756 34.1642 23.3541 33.9385C23.0341 33.713 22.7448 33.351 22.4862 32.8527C22.229 32.3562 22.0353 31.9027 21.9049 31.4923C21.773 31.0816 21.6549 30.6409 21.5506 30.1703C21.4481 29.6981 21.3772 29.2235 21.338 28.7466C21.3005 28.2681 21.2892 27.785 21.3042 27.2971C21.3178 26.8073 21.3478 26.3783 21.3942 26.01C21.4409 25.6399 21.5122 25.1081 21.6083 24.4145C21.7028 23.7206 21.8048 23.0174 21.9143 22.3048C22.0238 21.5922 22.1538 20.8751 22.3045 20.1535C22.4551 19.4319 22.5791 18.7115 22.6765 17.9924C22.7754 17.2735 22.8429 16.6764 22.879 16.2012C22.9168 15.7244 22.9722 15.2198 23.0453 14.6873C23.1183 14.1548 23.1901 13.5556 23.2605 12.8898C23.3292 12.2254 23.4009 11.5486 23.4756 10.8594C23.5501 10.1718 23.6007 9.78093 23.6274 9.68671C23.6541 9.5925 23.6908 9.50282 23.7373 9.41768C23.7855 9.33271 23.8417 9.25463 23.906 9.18343C23.9703 9.11223 24.0424 9.05043 24.1222 8.99805C24.2004 8.94548 24.284 8.9029 24.3728 8.87029C24.4615 8.83937 24.5521 8.81976 24.6446 8.81145C24.7371 8.80315 24.8283 8.80663 24.9182 8.82191C25.0096 8.83736 25.0974 8.86434 25.1814 8.90284C25.267 8.94151 25.3466 8.9906 25.4202 9.05009C25.4924 9.10773 25.558 9.17484 25.6168 9.25143C25.674 9.32784 25.7226 9.41009 25.7624 9.49818C25.8005 9.58777 25.8286 9.6805 25.8467 9.77637C25.8632 9.87206 25.8691 9.9691 25.8644 10.0675C25.8599 10.1642 25.8576 10.2126 25.8576 10.2126Z" fill="#B3B3B3"/>
<path d="M38.9186 26.0439C38.9186 26.0439 38.7364 26.0285 38.3719 25.9975C38.0061 25.9647 37.6782 26.0513 37.3881 26.2573C37.0981 26.4633 36.858 26.8106 36.6678 27.2992C36.4759 27.7892 36.3305 28.2718 36.2319 28.7468C36.1316 29.2216 36.0765 29.6802 36.0667 30.1226C36.0584 30.5652 36.1937 31.117 36.4725 31.778C36.7527 32.4408 37.1098 32.8275 37.544 32.938C37.9765 33.0499 38.3442 32.874 38.6473 32.4102C38.9502 31.948 39.1457 31.5044 39.234 31.0794C39.3222 30.6544 39.3873 30.2208 39.4292 29.7786C39.4711 29.3364 39.3828 28.8317 39.1641 28.2645C38.947 27.6976 38.7101 27.2563 38.4533 26.9406C38.1934 26.6247 37.9899 26.4635 37.8428 26.4571C37.6957 26.4507 37.579 26.4094 37.4929 26.3331C37.4067 26.2568 37.3305 26.1706 37.2642 26.0744C37.198 25.9782 37.143 25.8748 37.0992 25.7641C37.0571 25.6536 37.0282 25.5394 37.0126 25.4216C36.9956 25.302 36.9923 25.1822 37.0026 25.0623C37.0144 24.9442 37.0388 24.8276 37.0759 24.7124C37.1143 24.6007 37.164 24.4946 37.2252 24.394C37.288 24.2937 37.3611 24.2013 37.4445 24.1169C37.5262 24.034 37.6169 23.9632 37.7168 23.9046C37.8152 23.8441 37.9192 23.7978 38.0289 23.7659C38.1371 23.732 38.2478 23.713 38.3607 23.7087C38.4753 23.7046 38.5874 23.7147 38.6971 23.739C38.8068 23.7634 38.9126 23.8018 39.0143 23.8542C39.1146 23.9048 39.0395 23.8588 38.7889 23.7162C38.5383 23.5735 38.485 23.4763 38.6291 23.4243C38.7731 23.3723 38.9215 23.3465 39.0741 23.3467C39.2237 23.3448 39.3703 23.3699 39.5139 23.422C39.6576 23.4723 39.7891 23.546 39.9082 23.6431C40.029 23.7403 40.1309 23.8551 40.214 23.9873C40.2984 24.1213 40.3601 24.2656 40.3988 24.4201C40.4376 24.5746 40.4519 24.7323 40.4418 24.8932C40.4318 25.0525 40.3983 25.2065 40.3413 25.3552C40.2826 25.5055 40.2036 25.6425 40.1045 25.766C40.0056 25.8879 39.8903 25.9909 39.7587 26.0749C39.6272 26.1573 39.4872 26.2165 39.3385 26.2526C39.19 26.287 39.0412 26.2958 38.8921 26.2789C38.7413 26.2619 38.5974 26.22 38.4604 26.1533C38.3235 26.085 38.201 25.9961 38.0928 25.8866C37.9833 25.7753 37.8939 25.6492 37.8247 25.5083C37.7556 25.3658 37.7093 25.2147 37.6855 25.055C37.6632 24.8973 37.6649 24.7397 37.6908 24.5823C37.7168 24.4232 37.7659 24.2726 37.8382 24.1307C37.9105 23.9887 38.0028 23.8618 38.115 23.75C38.2255 23.6397 38.3505 23.5506 38.4899 23.4828C38.6277 23.4148 38.7723 23.3723 38.9237 23.3553C39.0752 23.3366 39.2237 23.3448 39.3692 23.38C39.518 23.4139 39.6568 23.4722 39.7856 23.555C39.9144 23.6378 40.0274 23.7402 40.1245 23.862C40.2216 23.9839 40.297 24.1195 40.3509 24.2689C40.4063 24.4184 40.4369 24.5737 40.4428 24.7347C40.4505 24.8942 40.4328 25.0509 40.3897 25.2046C40.348 25.3603 40.2835 25.5048 40.1961 25.6382C40.1103 25.7718 40.0065 25.8871 39.8846 25.9843C39.7626 26.083 39.7017 26.1316 39.7018 26.1299C39.7018 26.1299 39.356 26.1829 38.6644 26.289C37.9695 26.3947 37.579 26.4094 37.4929 26.3331C37.4067 26.2568 37.3305 26.1706 37.2642 26.0744C37.198 25.9782 37.143 25.8748 37.0992 25.7641C37.0571 25.6536 37.0282 25.5394 37.0126 25.4216C36.9956 25.302 36.9923 25.1822 37.0026 25.0623C37.0144 24.9442 37.0387 24.8284 37.0756 24.7149C37.1142 24.6015 37.164 24.4946 37.2252 24.394C37.288 24.2937 37.361 24.2021 37.4442 24.1194C37.5261 24.0348 37.6169 23.9632 37.7168 23.9046C37.8152 23.8441 37.9192 23.7978 38.0289 23.7659C38.1371 23.732 38.2478 23.713 38.3607 23.7087C38.4737 23.7044 38.5858 23.7145 38.6971 23.739C38.8068 23.7634 38.9126 23.8018 39.0143 23.8542C39.1146 23.9048 39.2214 23.9552 39.3346 24.0056C39.4464 24.054 39.6808 24.2767 40.0376 24.6735C40.3948 25.067 40.6693 25.4179 40.861 25.7262C41.0543 26.0346 41.2437 26.4125 41.4294 26.86C41.6168 27.3059 41.7629 27.818 41.8679 28.3962C41.9746 28.9729 42.0098 29.5432 41.9734 30.1071C41.9385 30.6712 41.8707 31.2359 41.7698 31.801C41.669 32.3662 41.5026 32.9283 41.2707 33.4871C41.0387 34.0477 40.7118 34.5157 40.2902 34.8911C39.8683 35.2682 39.3977 35.5297 38.8783 35.6757C38.3605 35.8219 37.8533 35.8592 37.3569 35.7877C36.8604 35.7163 36.4343 35.5632 36.0784 35.3285C35.7209 35.0936 35.4048 34.8054 35.1301 34.4639C34.8538 34.1222 34.6182 33.7263 34.4232 33.2761C34.2281 32.8275 34.0491 32.3075 33.8862 31.7159C33.7215 31.1258 33.6415 30.5257 33.6462 29.9156C33.6495 29.3035 33.7006 28.6952 33.7995 28.0906C33.8985 27.4843 34.0519 26.902 34.2596 26.3438C34.4691 25.7841 34.7555 25.297 35.1189 24.8826C35.4823 24.4682 35.852 24.1612 36.2281 23.9615C36.6057 23.7619 37.003 23.6235 37.4199 23.5461C37.8383 23.4688 38.239 23.4561 38.622 23.5079C39.0048 23.5614 39.2415 23.5993 39.3322 23.6215C39.4229 23.6437 39.5099 23.6774 39.5931 23.7226C39.6764 23.7679 39.753 23.8226 39.8228 23.8868C39.8927 23.951 39.9544 24.0236 40.0079 24.1047C40.0614 24.1858 40.1046 24.2726 40.1375 24.365C40.1721 24.4576 40.195 24.5532 40.2064 24.6517C40.2177 24.7502 40.2179 24.8483 40.2068 24.946C40.1958 25.0437 40.1737 25.1393 40.1407 25.2328C40.1076 25.3263 40.0639 25.4143 40.0096 25.4969C39.9569 25.5796 39.8954 25.6545 39.8251 25.7217C39.7549 25.7888 39.6785 25.8458 39.5961 25.8928C39.5137 25.9398 39.4268 25.976 39.3356 26.0015C39.2443 26.027 39.152 26.0405 39.0586 26.0419C38.9653 26.0432 38.9186 26.0439 38.9186 26.0439Z" fill="#B3B3B3"/>
<path d="M52.415 26.1254C52.415 26.1254 52.1117 26.1867 51.5049 26.3091C50.8964 26.4331 50.4067 26.5577 50.0359 26.683C49.6652 26.8065 49.328 27.1028 49.0244 27.5717C48.7223 28.0408 48.5491 28.5423 48.5048 29.0764C48.4605 29.6104 48.606 30.1565 48.9414 30.7147C49.2752 31.2727 49.6155 31.7453 49.9622 32.1325C50.3074 32.5178 50.6682 32.8511 51.0446 33.1325C51.4177 33.4135 51.7731 33.6592 52.1109 33.8697C52.4488 34.0785 52.7509 34.3199 53.0172 34.5939C53.2835 34.868 53.5105 35.2194 53.6982 35.6483C53.8875 36.0774 53.822 36.5997 53.5018 37.2151C53.1831 37.8308 52.8146 38.2053 52.3962 38.3388C51.9796 38.4709 51.5509 38.5538 51.11 38.5875C50.6707 38.6214 50.239 38.6596 49.8149 38.7021C49.3891 38.7444 48.9718 38.7834 48.5628 38.819C48.1523 38.8545 47.67 38.8494 47.116 38.8039C46.5622 38.7566 46.1259 38.6075 45.8072 38.3566C45.4903 38.1041 45.2737 37.689 45.1575 37.1112C45.041 36.5351 44.9913 36.1653 45.0081 36.0017C45.0248 35.8399 45.0657 35.6841 45.1308 35.5346C45.1959 35.385 45.2818 35.2505 45.3885 35.1312C45.4954 35.0103 45.6167 34.9105 45.7525 34.8321C45.8897 34.7555 46.0347 34.7028 46.1874 34.674C46.3385 34.645 46.4905 34.6434 46.6434 34.6692C46.795 34.6932 46.9388 34.7427 47.0749 34.8178C47.211 34.8929 47.3319 34.9893 47.4375 35.107C47.5447 35.2249 47.6301 35.3573 47.6938 35.5044C47.759 35.6534 47.7992 35.8089 47.8146 35.971C47.8316 36.1332 47.8231 36.2943 47.7889 36.4542C47.7548 36.6141 47.6984 36.7647 47.6198 36.9059C47.5396 37.047 47.4403 37.1714 47.3221 37.2791C47.2041 37.3852 47.0733 37.4693 46.9296 37.5316C46.786 37.5938 46.6372 37.6307 46.4833 37.6423C46.3295 37.6522 46.1779 37.636 46.0285 37.5935C45.8806 37.5512 45.7426 37.4853 45.6146 37.3957C45.4883 37.3047 45.3786 37.195 45.2854 37.0668C45.1925 36.9369 45.1209 36.7949 45.0709 36.6408C45.0224 36.4869 44.9986 36.3282 44.9994 36.1645C45.0002 36.0008 45.0255 35.8408 45.0753 35.6844C45.125 35.5296 45.1966 35.3867 45.2901 35.2557C45.3836 35.1247 45.4944 35.0119 45.6224 34.9172C45.7502 34.8241 45.8881 34.7553 46.0362 34.7106C46.186 34.6644 46.3377 34.6449 46.4911 34.652C46.6461 34.6593 46.7951 34.6923 46.9378 34.7511C47.0806 34.8099 47.2103 34.892 47.327 34.9973C47.4452 35.1027 47.5439 35.2248 47.623 35.3634C47.7022 35.5019 47.7583 35.6516 47.7916 35.8123C47.8235 35.9711 47.8394 36.0505 47.8394 36.0505C47.8394 36.0505 47.8262 36.0533 47.7999 36.0589C47.7721 36.0626 47.9515 36.047 48.3378 36.0122C48.7226 35.9772 49.1467 35.9279 49.6102 35.8643C50.0753 35.8009 50.4836 35.8496 50.8349 36.0104C51.1829 36.1726 51.1819 36.1324 50.8317 35.8898C50.4799 35.6471 50.0619 35.3508 49.5777 35.0009C49.0936 34.6494 48.6253 34.2502 48.1729 33.8033C47.719 33.3562 47.3233 32.8833 46.986 32.3846C46.6501 31.8878 46.4012 31.3538 46.2392 30.7828C46.077 30.2135 46.013 29.6851 46.0472 29.1977C46.0814 28.7103 46.1873 28.2139 46.3649 27.7086C46.5426 27.2033 46.7847 26.7317 47.0912 26.2938C47.398 25.8543 47.766 25.4771 48.1953 25.1623C48.6263 24.846 49.0573 24.6294 49.4882 24.5127C49.9192 24.3959 50.4333 24.2476 51.0304 24.0678C51.6276 23.8879 51.9709 23.7928 52.0605 23.7825C52.1516 23.7723 52.2407 23.773 52.3278 23.7845C52.418 23.7964 52.5053 23.82 52.5897 23.8551C52.6741 23.8902 52.7525 23.9358 52.825 23.9917C52.8991 24.0461 52.9658 24.11 53.025 24.1832C53.0827 24.2562 53.1316 24.3351 53.1718 24.4198C53.2121 24.5046 53.2421 24.5941 53.262 24.6885C53.282 24.7811 53.2914 24.876 53.29 24.9731C53.2875 25.0666 53.2745 25.1607 53.2509 25.2553C53.2276 25.3482 53.1943 25.4365 53.1511 25.5203C53.1061 25.6057 53.053 25.6841 52.9919 25.7557C52.9308 25.8272 52.8618 25.8902 52.785 25.9446C52.7099 25.9976 52.6295 26.0405 52.5438 26.0735C52.458 26.1081 52.415 26.1254 52.415 26.1254Z" fill="#B3B3B3"/>
<path d="M59.1389 29.2565C59.1389 29.2565 59.3908 29.3089 59.8948 29.4136C60.3989 29.5166 60.9181 29.6145 61.4523 29.7073C61.9863 29.8018 62.4671 29.8127 62.8947 29.7399C63.3223 29.6671 63.7331 29.5728 64.127 29.457C64.5193 29.341 64.4831 29.22 64.0185 29.0942C63.5539 28.9683 63.136 28.9134 62.7646 28.9294C62.3934 28.9437 62.0537 29.2056 61.7455 29.7149C61.4372 30.2242 61.2398 30.6565 61.153 31.0117C61.0647 31.3668 61.1171 31.8487 61.3102 32.4573C61.5035 33.0642 61.7998 33.5839 62.1992 34.0163C62.5971 34.4485 63.0529 34.7439 63.5668 34.9027C64.0821 35.0633 64.4101 35.1754 64.5507 35.2391C64.6898 35.3026 64.8158 35.3884 64.9289 35.4968C65.042 35.6051 65.1355 35.7299 65.2095 35.8713C65.2835 36.0128 65.3349 36.1627 65.3635 36.3212C65.3904 36.4812 65.3924 36.6417 65.3693 36.8029C65.3479 36.9642 65.3024 37.1177 65.2329 37.2634C65.1634 37.4091 65.074 37.5397 64.9645 37.6553C64.855 37.7708 64.7312 37.8643 64.593 37.9357C64.4546 38.0087 64.3094 38.0563 64.1575 38.0783C64.0055 38.1004 63.8541 38.0969 63.7031 38.0679C63.5539 38.0374 63.4131 37.9823 63.2808 37.9025C63.1484 37.8227 63.0312 37.7224 62.9291 37.6017C62.8287 37.4812 62.7483 37.3467 62.6879 37.1983C62.6293 37.0484 62.5947 36.8927 62.5841 36.7311C62.5734 36.5696 62.5874 36.41 62.6261 36.2523C62.6649 36.0946 62.7257 35.9471 62.8087 35.8098C62.8933 35.6727 62.996 35.5529 63.1169 35.4506C63.2361 35.3481 63.3679 35.2691 63.5124 35.2138C63.657 35.1568 63.8059 35.1259 63.9591 35.121C64.1123 35.1162 64.2617 35.1373 64.4074 35.1845C64.5547 35.2318 64.6898 35.3026 64.8125 35.3966C64.9368 35.4908 65.0429 35.6043 65.1307 35.7371C65.2187 35.8681 65.2845 36.0112 65.328 36.1662C65.3716 36.3212 65.3905 36.4803 65.385 36.6435C65.378 36.8047 65.3474 36.9616 65.2932 37.1141C65.2388 37.2683 65.1635 37.4082 65.0674 37.5338C64.9695 37.6609 64.8553 37.7683 64.7249 37.8559C64.5959 37.9454 64.4568 38.0098 64.3078 38.0493C64.1587 38.0887 64.0078 38.1015 63.8551 38.0877C63.7023 38.0755 63.6258 38.0694 63.6258 38.0694C63.6258 38.0694 63.3306 37.9593 62.7401 37.739C62.1494 37.5204 61.7041 37.3021 61.4042 37.0839C61.1057 36.8677 60.8163 36.6132 60.536 36.3205C60.256 36.0262 59.9552 35.6527 59.6336 35.2001C59.3102 34.749 59.0428 34.2497 58.8316 33.7022C58.6201 33.1563 58.4813 32.5648 58.4151 31.9279C58.3491 31.2893 58.3767 30.6902 58.4978 30.1308C58.6176 29.5677 58.8013 29.0162 59.0487 28.4761C59.2948 27.9342 59.5997 27.4757 59.9634 27.1005C60.3288 26.7256 60.7204 26.4381 61.1383 26.238C61.5562 26.0379 62.1086 25.9408 62.7956 25.9468C63.4841 25.9547 64.1173 26.0382 64.6954 26.1974C65.2734 26.3583 65.8397 26.65 66.3945 27.0727C66.9493 27.4953 67.2686 27.8828 67.3525 28.2352C67.438 28.5877 67.4304 28.9741 67.3299 29.3943C67.2294 29.8145 67.059 30.1637 66.8186 30.4419C66.5783 30.7201 66.2612 30.9742 65.8672 31.2043C65.4752 31.4312 65.036 31.6067 64.5496 31.7309C64.0647 31.8552 63.5112 31.9615 62.8891 32.0498C62.2669 32.1381 61.667 32.1505 61.0893 32.0869C60.5116 32.0233 59.9689 31.9492 59.4611 31.8645C58.9531 31.7815 58.6541 31.7255 58.5642 31.6966C58.4729 31.6658 58.3867 31.6253 58.3056 31.5752C58.2231 31.5232 58.1482 31.461 58.0808 31.3886C58.0133 31.3179 57.9555 31.2397 57.9073 31.1541C57.8575 31.0683 57.8189 30.9769 57.7913 30.8799C57.7637 30.783 57.7467 30.6839 57.7405 30.5825C57.7359 30.4813 57.7423 30.3823 57.7597 30.2853C57.7774 30.185 57.806 30.0884 57.8454 29.9956C57.8848 29.9028 57.934 29.8163 57.9929 29.7359C58.0534 29.6558 58.1209 29.5841 58.1955 29.5209C58.2718 29.4579 58.3533 29.4048 58.4401 29.3617C58.5283 29.3205 58.6193 29.2899 58.7132 29.2698C58.8069 29.2514 58.9016 29.245 58.9973 29.2507C59.0917 29.2546 59.1389 29.2565 59.1389 29.2565Z" fill="#B3B3B3"/>
<path d="M73.6253 25.2526C73.6253 25.2526 73.8449 25.2927 74.2841 25.3731C74.7233 25.4535 75.2133 25.5395 75.754 25.6314C76.2932 25.723 76.8403 25.7934 77.3956 25.8425C77.9508 25.8916 78.4653 25.9165 78.9393 25.9172C79.4132 25.9179 79.9264 25.9188 80.4791 25.9198C81.0315 25.9226 81.3656 25.9373 81.4815 25.9641C81.5992 25.9893 81.7098 26.0342 81.8133 26.0988C81.9153 26.1632 82.0051 26.2433 82.0826 26.3391C82.1602 26.4348 82.2212 26.5415 82.2658 26.6591C82.3101 26.7784 82.3356 26.9016 82.3421 27.0286C82.3487 27.1555 82.3354 27.2803 82.3022 27.4027C82.2709 27.5237 82.2211 27.6375 82.1528 27.7441C82.0845 27.8506 82.0026 27.9429 81.907 28.0208C81.8114 28.0987 81.7067 28.1585 81.5927 28.2002C81.4787 28.2419 81.3622 28.2637 81.243 28.2656C81.1223 28.2673 81.0048 28.248 80.8905 28.2078C80.7775 28.1695 80.6731 28.1124 80.5772 28.0368C80.4813 27.9611 80.3999 27.8709 80.333 27.7661C80.2661 27.6613 80.2171 27.5475 80.1861 27.4245C80.1532 27.3031 80.1398 27.1796 80.146 27.0541C80.1539 26.9271 80.1799 26.8038 80.2239 26.6842C80.2694 26.5665 80.3306 26.4583 80.4077 26.3595C80.4863 26.261 80.5768 26.1782 80.6791 26.1113C80.7831 26.0446 80.8937 25.9974 81.0109 25.9697C81.1283 25.9403 81.2466 25.9315 81.3658 25.9433C81.4847 25.9568 81.5992 25.9893 81.709 26.041C81.8171 26.0941 81.9145 26.1631 82.0013 26.248C82.088 26.3345 82.1595 26.4339 82.2159 26.546C82.2723 26.6582 82.3103 26.7768 82.3299 26.9018C82.3478 27.0283 82.3472 27.1545 82.3281 27.2803C82.3093 27.4044 82.271 27.5229 82.2132 27.6358C82.1571 27.7488 82.0854 27.8499 81.9982 27.939C81.9112 28.0264 81.8131 28.098 81.704 28.1539C81.595 28.2081 81.4802 28.2429 81.3596 28.2583C81.2405 28.2738 81.181 28.2816 81.181 28.2816C81.181 28.2816 80.9177 28.2578 80.3913 28.2102C79.863 28.1642 79.3458 28.1347 78.8395 28.1218C78.3346 28.1108 77.7766 28.0938 77.1654 28.0708C76.5556 28.0496 75.9596 28.0061 75.3773 27.9403C74.7953 27.8728 74.2861 27.7931 73.8498 27.7011C73.4135 27.6091 73.1528 27.549 73.0676 27.5206C72.984 27.4924 72.9041 27.4535 72.8277 27.4039C72.753 27.3545 72.6848 27.2965 72.6233 27.2298C72.5601 27.163 72.5066 27.0895 72.4626 27.0095C72.4172 26.9276 72.3819 26.8418 72.3567 26.7519C72.3315 26.6621 72.317 26.57 72.3132 26.4758C72.3094 26.3815 72.3159 26.2884 72.3328 26.1965C72.3496 26.1046 72.3773 26.0156 72.416 25.9296C72.453 25.8433 72.4998 25.7633 72.5564 25.6896C72.6115 25.6139 72.6744 25.5477 72.7451 25.4908C72.816 25.4323 72.8922 25.3838 72.9737 25.3452C73.0567 25.3069 73.1418 25.279 73.229 25.2615C73.3177 25.2442 73.4059 25.2389 73.4935 25.2454C73.5813 25.2502 73.6253 25.2526 73.6253 25.2526Z" fill="#B3B3B3"/>
<path d="M92.5371 15.3734C92.5371 15.3734 92.4124 15.616 92.1632 16.1013C91.9137 16.5882 91.6728 17.3048 91.4406 18.2508C91.2099 19.1971 90.9864 20.3284 90.7701 21.6447C90.5538 22.9611 90.4277 24.3823 90.3918 25.9084C90.3525 27.4358 90.4095 28.9647 90.5627 30.4951C90.7141 32.027 90.9402 33.395 91.2412 34.5993C91.5419 35.8052 91.8712 36.7508 92.2292 37.436C92.5886 38.1232 92.9477 38.6133 93.3067 38.9063C93.6656 39.1993 94.1959 39.22 94.8976 38.9684C95.6009 38.717 96.1616 38.1628 96.5798 37.306C96.9998 36.4477 97.3998 35.3398 97.7798 33.9822C98.1614 32.6249 98.5368 31.0809 98.9059 29.3502C99.2751 27.6196 99.611 26.0617 99.9138 24.6767C100.217 23.29 100.503 21.9985 100.771 20.8024C101.04 19.6063 101.251 18.5793 101.404 17.7215C101.559 16.8622 101.66 16.176 101.709 15.6629C101.759 15.1483 101.804 14.668 101.843 14.2221C101.88 13.776 101.914 13.5077 101.943 13.4173C101.971 13.3266 102.013 13.2426 102.068 13.1653C102.122 13.0878 102.186 13.0217 102.262 12.9671C102.335 12.9123 102.416 12.871 102.502 12.8433C102.589 12.8173 102.678 12.806 102.769 12.8095C102.858 12.8128 102.946 12.8311 103.03 12.8646C103.113 12.8995 103.189 12.9473 103.257 13.008C103.326 13.0686 103.384 13.1391 103.431 13.2195C103.478 13.3016 103.512 13.389 103.532 13.4816C103.55 13.5741 103.555 13.6685 103.545 13.7647C103.536 13.8592 103.513 13.9504 103.476 14.0383C103.437 14.126 103.387 14.2048 103.326 14.2747C103.264 14.3444 103.193 14.4029 103.114 14.4502C103.035 14.4959 102.951 14.5273 102.862 14.5446C102.772 14.5617 102.682 14.5627 102.594 14.5476C102.506 14.5342 102.421 14.5059 102.341 14.4627C102.261 14.4195 102.19 14.3637 102.128 14.2954C102.066 14.2268 102.015 14.1495 101.976 14.0632C101.939 13.9772 101.916 13.8867 101.906 13.7917C101.896 13.6967 101.9 13.6025 101.918 13.5091C101.939 13.4159 101.972 13.3275 102.018 13.2441C102.065 13.1623 102.122 13.0894 102.19 13.0255C102.258 12.9633 102.335 12.913 102.419 12.8749C102.502 12.8382 102.589 12.8164 102.68 12.8096C102.769 12.8043 102.857 12.8134 102.944 12.837C103.031 12.8605 103.112 12.8986 103.187 12.9514C103.261 13.0041 103.326 13.0678 103.382 13.1423C103.436 13.2184 103.477 13.3015 103.506 13.3917C103.536 13.4821 103.551 13.5751 103.551 13.6707C103.552 13.7662 103.552 13.814 103.552 13.814C103.552 13.8123 103.504 14.0321 103.407 14.4732C103.311 14.9127 103.207 15.3896 103.094 15.9039C102.981 16.4149 102.849 17.1104 102.697 17.9905C102.546 18.8707 102.341 19.9086 102.082 21.1041C101.823 22.2996 101.549 23.5906 101.258 24.9771C100.968 26.3636 100.643 27.9405 100.283 29.708C99.9238 31.4756 99.5449 33.0934 99.146 34.5614C98.7472 36.0277 98.2692 37.2931 97.7118 38.3577C97.1544 39.4223 96.5338 40.1504 95.8501 40.5423C95.1661 40.9358 94.5069 41.0386 93.8726 40.8509C93.2384 40.6616 92.7023 40.3366 92.2643 39.8759C91.8279 39.4155 91.4038 38.7893 90.992 37.9973C90.5785 37.2068 90.2077 36.1729 89.8796 34.8957C89.5532 33.6187 89.3034 32.1823 89.1303 30.5865C88.9572 28.9907 88.8785 27.3911 88.8943 25.7877C88.9116 24.1845 89.0161 22.6986 89.2078 21.33C89.3978 19.9612 89.6155 18.7175 89.8609 17.5989C90.1078 16.4805 90.3677 15.6808 90.6406 15.1999C90.9147 14.7226 91.0719 14.4546 91.1123 14.3961C91.1544 14.336 91.2022 14.2825 91.2557 14.2357C91.3092 14.1889 91.3675 14.1494 91.4306 14.1173C91.4921 14.085 91.5567 14.0608 91.6244 14.0445C91.6919 14.03 91.761 14.0233 91.8315 14.0245C91.8987 14.0269 91.965 14.0378 92.0303 14.0572C92.0972 14.0767 92.1607 14.1043 92.221 14.1401C92.2812 14.1759 92.3358 14.2188 92.3848 14.2687C92.4354 14.3187 92.4788 14.3748 92.5152 14.4369C92.5517 14.4974 92.5813 14.563 92.6038 14.6337C92.6249 14.7027 92.6387 14.7733 92.6449 14.8456C92.6496 14.9178 92.6463 14.9899 92.6349 15.062C92.6252 15.1343 92.6061 15.2037 92.5776 15.2705C92.5506 15.3391 92.5371 15.3734 92.5371 15.3734Z" fill="#B3B3B3"/>
<path d="M106.915 27.1399C106.915 27.1399 106.876 27.4648 106.798 28.1144C106.719 28.764 106.607 29.4199 106.459 30.0822C106.312 30.7445 106.147 31.409 105.964 32.0758C105.78 32.7424 105.564 33.4481 105.318 34.193C105.071 34.9396 104.847 35.7441 104.645 36.6066C104.443 37.4691 104.25 38.3539 104.065 39.2611C103.879 40.168 103.702 41.0478 103.533 41.9004C103.364 42.753 103.21 43.5237 103.069 44.2123C102.929 44.9009 102.841 45.4454 102.807 45.8459C102.773 46.2463 102.746 46.5972 102.725 46.8984C102.705 47.1998 102.678 47.3981 102.645 47.4933C102.612 47.5902 102.565 47.6787 102.504 47.7589C102.444 47.839 102.374 47.907 102.293 47.9627C102.213 48.0202 102.125 48.0615 102.031 48.0866C101.938 48.1119 101.844 48.1218 101.748 48.116C101.653 48.1087 101.56 48.0854 101.472 48.0464C101.383 48.0074 101.303 47.9548 101.232 47.8888C101.16 47.821 101.101 47.7435 101.053 47.6562C101.005 47.5672 100.972 47.4731 100.955 47.3739C100.937 47.2746 100.935 47.1737 100.948 47.0712C100.959 46.9701 100.987 46.8735 101.031 46.7812C101.074 46.6905 101.129 46.608 101.197 46.5338C101.264 46.4613 101.341 46.4017 101.427 46.3551C101.514 46.3087 101.605 46.278 101.7 46.2631C101.795 46.2483 101.889 46.2496 101.984 46.2671C102.078 46.2846 102.168 46.3177 102.252 46.3665C102.335 46.4151 102.409 46.4772 102.474 46.5529C102.538 46.6283 102.589 46.7125 102.627 46.8055C102.664 46.8984 102.687 46.9957 102.695 47.0972C102.703 47.1987 102.695 47.2985 102.673 47.3967C102.65 47.4965 102.613 47.5894 102.56 47.6755C102.508 47.7618 102.445 47.8383 102.37 47.9048C102.295 47.9697 102.213 48.0202 102.124 48.0561C102.033 48.0919 101.939 48.112 101.842 48.1164C101.747 48.121 101.653 48.1087 101.562 48.0796C101.469 48.052 101.383 48.0091 101.306 47.951C101.228 47.8926 101.16 47.8219 101.104 47.7387C101.049 47.6574 101.007 47.5682 100.977 47.4711C100.95 47.3742 100.937 47.2746 100.939 47.1725C100.942 47.0706 100.943 47.0195 100.942 47.0193C100.942 47.0193 100.985 46.8749 101.07 46.586C101.156 46.2972 101.254 45.9535 101.365 45.5549C101.475 45.1562 101.599 44.6159 101.739 43.934C101.878 43.2538 102.027 42.485 102.185 41.6278C102.341 40.7704 102.506 39.8797 102.678 38.9558C102.851 38.0321 103.033 37.1136 103.223 36.2003C103.414 35.2871 103.615 34.4654 103.824 33.7351C104.035 33.005 104.221 32.3155 104.381 31.6666C104.543 31.0179 104.69 30.3949 104.824 29.7975C104.957 29.2002 105.058 28.5762 105.127 27.9255C105.196 27.2748 105.238 26.9146 105.254 26.8447C105.27 26.7749 105.294 26.7076 105.325 26.6429C105.358 26.5784 105.397 26.5189 105.442 26.4642C105.487 26.4079 105.537 26.359 105.593 26.3176C105.649 26.2762 105.709 26.242 105.773 26.2151C105.838 26.1883 105.903 26.1701 105.97 26.1606C106.039 26.1513 106.106 26.1504 106.173 26.1579C106.239 26.1655 106.305 26.1814 106.37 26.2058C106.433 26.23 106.493 26.2623 106.549 26.3028C106.606 26.3433 106.657 26.39 106.702 26.4429C106.748 26.4958 106.786 26.5548 106.817 26.6197C106.849 26.6829 106.873 26.7497 106.891 26.8199C106.907 26.89 106.915 26.9609 106.915 27.0325C106.915 27.1041 106.915 27.1399 106.915 27.1399Z" fill="#B3B3B3"/>
<path d="M109.816 31.1374C109.816 31.1374 109.585 31.2009 109.124 31.3279C108.662 31.4547 108.261 31.6508 107.923 31.9162C107.584 32.1816 107.41 32.4971 107.399 32.8626C107.388 33.2264 107.546 33.7527 107.873 34.4413C108.199 35.1297 108.578 35.6578 109.01 36.0257C109.446 36.3956 109.866 36.4014 110.271 36.0429C110.678 35.6829 110.972 35.2973 111.152 34.886C111.33 34.4746 111.466 34.0781 111.561 33.6964C111.654 33.3146 111.634 32.9029 111.5 32.4614C111.367 32.0182 111.151 31.667 110.851 31.4079C110.55 31.1505 110.233 30.9424 109.899 30.7835C109.567 30.6265 109.521 30.2102 109.761 29.5345C110.001 28.8572 110.217 28.5856 110.407 28.7197C110.599 28.854 110.735 28.9947 110.813 29.1417C110.891 29.2904 110.944 29.4483 110.974 29.6153C111.003 29.7841 111.006 29.9516 110.982 30.1178C110.96 30.2876 110.912 30.4493 110.838 30.603C110.766 30.7569 110.673 30.8939 110.558 31.014C110.443 31.1358 110.313 31.2354 110.167 31.3128C110.022 31.3885 109.87 31.4387 109.712 31.4634C109.551 31.4879 109.393 31.4845 109.236 31.4531C109.078 31.4217 108.93 31.3639 108.79 31.2799C108.65 31.1975 108.527 31.0924 108.421 30.9644C108.315 30.8381 108.23 30.6972 108.167 30.5417C108.105 30.3845 108.068 30.2208 108.056 30.0507C108.045 29.8805 108.059 29.7132 108.099 29.5488C108.138 29.3827 108.202 29.2279 108.291 29.0844C108.378 28.939 108.485 28.8129 108.611 28.706C108.739 28.5976 108.879 28.5136 109.03 28.454C109.181 28.3943 109.338 28.3617 109.499 28.356C109.659 28.3502 109.815 28.3722 109.969 28.4219C110.122 28.4717 110.264 28.5457 110.394 28.644C110.524 28.744 110.635 28.8632 110.727 29.0015C110.821 29.1384 110.891 29.2887 110.937 29.4525C110.983 29.6146 111.002 29.7815 110.996 29.953C110.991 30.1214 110.961 30.286 110.904 30.4467C110.847 30.6075 110.768 30.7546 110.666 30.8881C110.563 31.0214 110.443 31.1349 110.307 31.2288C110.171 31.3209 110.025 31.3879 109.867 31.4298C109.711 31.4719 109.553 31.4864 109.392 31.4734C109.233 31.4605 109.08 31.421 108.933 31.3549C108.785 31.2887 108.651 31.1985 108.533 31.0845C108.414 30.9704 108.354 30.9133 108.354 30.9133C108.354 30.9133 108.262 30.7324 108.078 30.3704C107.896 30.0069 107.937 29.4547 108.203 28.7136C108.468 27.9726 108.846 27.6007 109.336 27.5982C109.827 27.5956 110.282 27.7008 110.701 27.9136C111.121 28.1248 111.473 28.3267 111.758 28.5193C112.045 28.7104 112.316 28.932 112.57 29.1842C112.824 29.4347 113.076 29.737 113.325 30.091C113.573 30.4448 113.788 30.8896 113.97 31.4253C114.154 31.9612 114.238 32.4833 114.222 32.9916C114.206 33.5016 114.134 34.0196 114.005 34.5459C113.875 35.0736 113.704 35.607 113.494 36.1462C113.285 36.6855 113.022 37.2041 112.704 37.7021C112.385 38.2018 111.984 38.5973 111.499 38.8889C111.015 39.1804 110.514 39.3217 109.998 39.3128C109.48 39.3037 109.049 39.2174 108.704 39.054C108.361 38.8923 108.032 38.682 107.717 38.423C107.405 38.1625 107.07 37.8227 106.714 37.4038C106.359 36.9832 106.04 36.5079 105.757 35.9778C105.475 35.4478 105.243 34.8595 105.06 34.2128C104.876 33.566 104.821 32.9994 104.896 32.5131C104.97 32.0285 105.121 31.5594 105.349 31.1058C105.578 30.6524 105.86 30.2885 106.193 30.014C106.526 29.7395 106.884 29.519 107.268 29.3525C107.651 29.1844 108.075 29.0335 108.538 28.9C109.002 28.7647 109.281 28.6897 109.376 28.6748C109.471 28.6616 109.566 28.6596 109.661 28.6686C109.755 28.6792 109.846 28.7015 109.936 28.7355C110.027 28.7696 110.111 28.8151 110.19 28.8717C110.269 28.9284 110.34 28.9936 110.404 29.0674C110.468 29.1428 110.523 29.2249 110.569 29.3137C110.614 29.4024 110.648 29.4958 110.672 29.5941C110.695 29.6922 110.707 29.7925 110.708 29.895C110.708 29.9956 110.697 30.095 110.675 30.1931C110.652 30.2912 110.619 30.3864 110.575 30.4786C110.531 30.5692 110.477 30.6527 110.414 30.7291C110.351 30.8072 110.28 30.876 110.203 30.9355C110.124 30.9948 110.04 31.0433 109.95 31.0809C109.861 31.1186 109.816 31.1374 109.816 31.1374Z" fill="#B3B3B3"/>
</g>
<defs>
<clipPath id="clip0_901_5270">
<rect width="114.224" height="38.4792" fill="white" transform="translate(4.32202) rotate(6.44913)"/>
</clipPath>
</defs>
</svg>
