<?xml version="1.0" encoding="UTF-8"?>
<svg id="Layer_2" data-name="Layer 2" xmlns="http://www.w3.org/2000/svg" viewBox="0 0 23.06 22.57">
  <g id="Layer_1-2" fill="currentColor">
    <path d="M23.06,15.32l-1.95-15.32L5.79,1.95l.31,2.49-3.24.23.18,2.45H0v15.45h15.45v-3.33l3.93-.28-.23-3.14,3.91-.5ZM13.45,20.57H2v-11.45h11.45v11.45ZM17.24,17.11l-1.79.13V7.12H5.04l-.04-.6,1.36-.1,1.99-.14,8.07-.59.6,8.38.15,2,.07,1.04ZM18.27,3.56l-10.17.73-.08-.61,11.36-1.44,1.44,11.35-1.81.23-.74-10.26Z"/>
  </g>
</svg>