<?xml version="1.0" encoding="UTF-8"?>
<svg id="Layer_2" data-name="Layer 2" xmlns="http://www.w3.org/2000/svg" viewBox="0 0 87.82 23.5">
  <g id="Layer_1-2" fill="currentColor">
    <g>
      <path d="M27.47,18.42v-2.46c.8.52,1.91,1.03,3.34,1.03,2.39,0,3.4-1.2,3.4-2.41,0-.99-.63-1.81-1.93-2.44l-1.83-.88c-1.81-.86-2.96-2.14-2.96-3.93,0-2.52,2.21-4.3,5.71-4.3,1.26,0,2.31.25,2.81.55v2.46c-.63-.38-1.68-.71-2.77-.71-1.97,0-3.07.82-3.07,2.02,0,.8.5,1.36,1.64,1.91l1.78.86c2.14,1.03,3.13,2.46,3.13,4.41,0,2.48-1.74,4.81-5.79,4.81-1.43,0-2.64-.38-3.46-.9Z"/>
      <path d="M48.93,12.61v6.38h-2.52v-5.86c0-1.85-.86-2.92-2.27-2.92-1.51,0-2.56,1.28-2.56,3.25v5.52h-2.52V3.24h2.35v7.03c.55-1.2,1.81-2.1,3.46-2.1,2.44,0,4.05,1.68,4.05,4.43Z"/>
      <path d="M51.03,13.74c0-3.19,2.56-5.56,5.61-5.56s5.63,2.39,5.63,5.56-2.54,5.58-5.63,5.58-5.61-2.39-5.61-5.58ZM59.81,13.74c0-2.04-1.34-3.36-3.17-3.36s-3.17,1.32-3.17,3.36,1.41,3.38,3.17,3.38,3.17-1.36,3.17-3.38Z"/>
      <path d="M67.53,10.7v4.47c0,1.15.53,1.81,1.7,1.81.46,0,.94-.1,1.2-.21v2.25c-.36.19-1.05.31-1.64.31-2.33,0-3.74-1.55-3.74-4.16v-4.47h-1.95v-2.2h1.95v-3.25h2.48v3.25h2.9v2.2h-2.9Z"/>
      <path d="M72.51,16.76V3.24h2.52v13.23c0,.48.25.69.63.69.21,0,.36-.02.48-.1v1.95c-.27.19-.73.31-1.2.31-1.53,0-2.44-1.05-2.44-2.56Z"/>
      <path d="M87.82,8.49l-4.83,12.2c-.76,1.89-1.95,2.81-3.65,2.81-.8,0-1.39-.23-1.7-.46v-2.16c.34.21.82.38,1.41.38.99,0,1.66-.48,2.12-1.72l-4.26-11.04h2.69l2.73,7.85,2.88-7.85h2.62Z"/>
    </g>
    <path d="M23.06,15.32l-1.95-15.32L5.79,1.95l.31,2.49-3.24.23.18,2.45H0v15.45h15.45v-3.33l3.93-.28-.23-3.14,3.91-.5ZM13.45,20.57H2v-11.45h11.45v11.45ZM17.24,17.11l-1.79.13V7.12H5.04l-.04-.6,1.36-.1,1.99-.14,8.07-.59.6,8.38.15,2,.07,1.04ZM18.27,3.56l-10.17.73-.08-.61,11.36-1.44,1.44,11.35-1.81.23-.74-10.26Z"/>
  </g>
</svg>